<?xml version="1.0" encoding="utf-8"?>
<!-- Generator: Adobe Illustrator 16.0.0, SVG Export Plug-In . SVG Version: 6.00 Build 0)  -->
<!DOCTYPE svg PUBLIC "-//W3C//DTD SVG 1.1//EN" "http://www.w3.org/Graphics/SVG/1.1/DTD/svg11.dtd">
<svg version="1.1" id="Layer_1" xmlns="http://www.w3.org/2000/svg" xmlns:xlink="http://www.w3.org/1999/xlink" x="0px" y="0px"
	 width="43.743px" height="50px" viewBox="0 0 43.743 50" enable-background="new 0 0 43.743 50" xml:space="preserve">
<g>
	<g>
		<path fill="#563500" d="M7.598,27.621c0,0,1.12-0.142,2.802-0.242c0.42-0.024,0.878-0.054,1.362-0.071
			c0.478-0.023,0.987-0.049,1.51-0.061c0.531-0.014,1.071-0.031,1.624-0.037c0.552-0.003,1.114-0.007,1.677-0.014
			c0.557,0.007,1.12,0.011,1.668,0.014c0.555,0,1.094,0.023,1.625,0.037c1.052,0.03,2.029,0.072,2.872,0.132
			c1.685,0.101,2.804,0.242,2.804,0.242s-1.119,0.143-2.804,0.247c-0.843,0.056-1.82,0.1-2.872,0.13
			c-0.531,0.007-1.069,0.04-1.625,0.04c-0.549,0-1.112,0.004-1.668,0.011c-0.562-0.007-1.125-0.011-1.677-0.016
			c-0.552,0-1.093-0.028-1.624-0.035c-0.523-0.014-1.032-0.038-1.51-0.061c-0.483-0.014-0.941-0.044-1.362-0.069
			C8.717,27.764,7.598,27.621,7.598,27.621z"/>
		<path fill="#563500" d="M5.523,30.6c0,0,1.121-0.147,2.812-0.248c0.417-0.023,0.872-0.049,1.354-0.07
			c0.481-0.018,0.99-0.048,1.515-0.062c0.525-0.01,1.07-0.029,1.619-0.033c0.551-0.003,1.111-0.007,1.677-0.019
			c0.559,0.012,1.122,0.016,1.672,0.019c0.553,0,1.093,0.023,1.623,0.033c1.052,0.034,2.032,0.08,2.871,0.132
			c1.684,0.101,2.804,0.248,2.804,0.248s-1.12,0.143-2.804,0.247c-0.838,0.05-1.818,0.102-2.871,0.126
			c-0.53,0.009-1.07,0.039-1.623,0.039c-0.55,0.005-1.113,0.008-1.672,0.01c-0.565-0.002-1.126-0.005-1.677-0.01
			c-0.549-0.004-1.094-0.03-1.619-0.039c-0.525-0.012-1.034-0.031-1.515-0.057c-0.482-0.02-0.937-0.046-1.354-0.078
			C6.645,30.742,5.523,30.6,5.523,30.6z"/>
		<path fill="#563500" d="M3.586,33.578c0,0,0.244-0.041,0.672-0.087c0.42-0.045,1.028-0.105,1.754-0.159
			c0.362-0.024,0.759-0.054,1.177-0.076c0.416-0.016,0.852-0.049,1.312-0.06c0.453-0.007,0.919-0.033,1.397-0.033
			c0.478-0.007,0.963-0.012,1.451-0.015c0.487,0.003,0.966,0.008,1.448,0.012c0.473,0.003,0.945,0.021,1.397,0.036
			c0.909,0.031,1.76,0.082,2.487,0.136c0.724,0.05,1.333,0.107,1.758,0.159c0.426,0.046,0.666,0.087,0.666,0.087
			s-0.24,0.033-0.666,0.082c-0.425,0.045-1.034,0.109-1.758,0.159c-0.727,0.054-1.578,0.102-2.487,0.132
			c-0.453,0.009-0.924,0.033-1.397,0.044c-0.481,0-0.961,0-1.448,0.005c-0.488-0.005-0.973-0.005-1.451-0.016
			c-0.478,0-0.945-0.024-1.397-0.037c-0.459-0.007-0.896-0.036-1.312-0.057c-0.417-0.018-0.814-0.047-1.177-0.071
			c-0.726-0.05-1.333-0.114-1.754-0.159C3.83,33.611,3.586,33.578,3.586,33.578z"/>
		<path fill="#563500" d="M0,36.551c0,0,1.12-0.142,2.805-0.242c0.42-0.031,0.874-0.054,1.357-0.074
			c0.483-0.021,0.988-0.048,1.517-0.062c0.524-0.014,1.066-0.033,1.618-0.034c0.552-0.004,1.109-0.009,1.675-0.013
			c0.561,0.004,1.12,0.009,1.673,0.013c0.55,0,1.093,0.021,1.623,0.034c1.053,0.031,2.029,0.082,2.869,0.136
			c1.684,0.101,2.808,0.242,2.808,0.242s-1.125,0.145-2.808,0.249c-0.84,0.052-1.816,0.097-2.869,0.128
			c-0.53,0.01-1.072,0.037-1.623,0.037c-0.554,0-1.113,0.007-1.673,0.014c-0.566-0.007-1.123-0.014-1.675-0.014
			c-0.552-0.004-1.094-0.03-1.618-0.037c-0.529-0.016-1.034-0.04-1.517-0.061c-0.483-0.016-0.938-0.046-1.357-0.071
			C1.119,36.695,0,36.551,0,36.551z"/>
	</g>
	<polygon fill="#96D5D2" points="24.567,0 20.723,0 18.98,0 15.527,0 18.532,4.189 15.527,8.366 18.98,8.374 18.98,8.383 
		27.361,8.383 27.361,0 	"/>
	<path fill="#563500" d="M43.046,11.327c-1.32-3.407-4.365-5.946-7.918-6.678v-0.01c-0.053-0.009-0.105-0.017-0.164-0.03
		c-0.029-0.005-0.057-0.005-0.086-0.012c-0.189-0.037-0.389-0.067-0.588-0.087c-0.031-0.005-0.061-0.01-0.09-0.017
		c-0.016,0-0.037,0-0.051,0c-0.15-0.013-0.305-0.03-0.453-0.041c-0.045-0.003-0.09-0.003-0.139-0.012
		c-0.193-0.005-0.385-0.015-0.584-0.015H32.97h-0.006c-0.24,0-0.48,0.01-0.721,0.027c-0.066,0.003-0.139,0.01-0.207,0.019
		c-0.166,0.015-0.33,0.034-0.502,0.056c-0.092,0.014-0.17,0.023-0.26,0.041c-0.146,0.022-0.285,0.047-0.428,0.072
		c-0.094,0.021-0.188,0.044-0.283,0.065c-0.135,0.031-0.258,0.061-0.387,0.098c-0.1,0.027-0.199,0.051-0.295,0.081
		c-0.119,0.035-0.232,0.071-0.352,0.115c-0.209,0.074-0.424,0.151-0.633,0.239c-0.082,0.03-0.16,0.067-0.244,0.101
		c-0.115,0.05-0.234,0.107-0.352,0.165c-0.066,0.028-0.127,0.054-0.182,0.087c0.006,0,0.018-0.01,0.021-0.014
		c-0.293,0.155-0.584,0.31-0.865,0.485l0.008,0.024l0.035,2.503c0,0,0.932-0.917,1.955-1.345c0.066-0.03,0.123-0.061,0.164-0.083
		c0.783-0.322,1.633-0.503,2.533-0.503c0.234,0,0.703,0.052,0.709,0.056c1.246,0.131,2.459,0.606,3.469,1.422
		c2.363,1.919,3.133,5.293,1.807,8.041l0,0c-1.666,3.417-5.588,5.407-9.098,6.299c-1.064,0.267-2.145,0.448-3.213,0.676
		c-0.657,0.138-1.313,0.277-1.976,0.417c-0.291,0.056-0.626,0.083-0.904,0.188c-3.587,0.936-6.267,4.112-6.451,7.952
		c-0.007,0.087,0.017,1.24,0.067,1.613c0.249,3.256,0.946,12.216,0.946,12.216h2.433c0-3.492,2.835-6.325,6.324-6.325
		c3.49,0,6.326,2.833,6.326,6.325h2.486c-0.209-3.498-0.105-7.095,0.445-10.554c0.682-4.236,3.6-7.697,5.68-11.324
		C43.167,19.902,44.697,15.583,43.046,11.327z M32.222,25.745c-0.982,0-0.982-1.528,0-1.528
		C33.208,24.217,33.205,25.745,32.222,25.745z"/>
	<rect x="15.5" y="33.151" fill="#EE3129" width="23.027" height="12.373"/>
	<path fill="#563500" d="M23.323,46.805c0,1.767-1.435,3.195-3.199,3.195c-1.77,0-3.204-1.429-3.204-3.195
		c0-1.772,1.435-3.207,3.204-3.207C21.888,43.598,23.323,45.032,23.323,46.805z"/>
	<path fill="#563500" d="M36.496,46.805c0,1.767-1.434,3.195-3.199,3.195c-1.771,0-3.199-1.429-3.199-3.195
		c0-1.772,1.428-3.207,3.199-3.207C35.062,43.598,36.496,45.032,36.496,46.805z"/>
	<g>
		<path fill="#96D5D2" d="M31.361,39.256c0,2.4-1.947,4.342-4.346,4.342c-2.399,0-4.348-1.941-4.348-4.342
			c0-2.402,1.948-4.349,4.348-4.349C29.414,34.907,31.361,36.854,31.361,39.256z"/>
		<g>
			<path fill="#FFFFFF" d="M27.689,36.614v5.681h-1.418v-3.048c0-0.438-0.01-0.703-0.029-0.791c-0.02-0.091-0.08-0.151-0.176-0.205
				c-0.092-0.047-0.307-0.07-0.634-0.07h-0.138v-0.66c0.685-0.146,1.205-0.452,1.559-0.906H27.689z"/>
		</g>
	</g>
</g>
</svg>
