<?xml version="1.0" encoding="utf-8"?>
<!-- Generator: Adobe Illustrator 16.0.0, SVG Export Plug-In . SVG Version: 6.00 Build 0)  -->
<!DOCTYPE svg PUBLIC "-//W3C//DTD SVG 1.1//EN" "http://www.w3.org/Graphics/SVG/1.1/DTD/svg11.dtd">
<svg version="1.1" id="Layer_1" xmlns="http://www.w3.org/2000/svg" xmlns:xlink="http://www.w3.org/1999/xlink" x="0px" y="0px"
	 width="249.17px" height="59.819px" viewBox="0 0 249.17 59.819" enable-background="new 0 0 249.17 59.819" xml:space="preserve">
<g>
	<path fill="#FFFFFF" d="M0,26.353c76.826,44.623,172.345,44.623,249.17,0H0z"/>
	<g>
		<g>
			<path fill="#96D5D2" d="M135.583,6.915C134.175,2.897,130.387,0,125.886,0c-5.694,0-10.309,4.621-10.309,10.315
				c0,1.038,0.197,2.024,0.485,2.965L98.598,26.158c0,0,12.445,16.044,29.143,6.873C143.665,24.29,136.913,10.32,135.583,6.915z"/>
			<polygon fill="#F7941E" points="136.718,0 135.915,2.897 135.121,5.794 133.009,3.653 130.9,1.509 133.81,0.756 			"/>
			<path fill="#F7941E" d="M104.302,15.624l22.232,1.525c0,0-0.185,12.463-11.387,11.658
				C103.943,28.001,104.302,15.624,104.302,15.624z"/>
			<path fill="#FFFFFF" d="M124.449,8.242c0-0.968,0.783-1.748,1.751-1.748c0.964,0,1.746,0.78,1.746,1.748h1.067
				c-0.002-1.555-1.262-2.813-2.815-2.813c-1.551,0-2.809,1.259-2.809,2.813H124.449z"/>
		</g>
		<g>
			<path fill="#FCCF9A" d="M148.966,17.771c-0.887-2.527-3.268-4.347-6.098-4.347c-3.583,0-6.487,2.903-6.487,6.486
				c0,0.654,0.125,1.272,0.306,1.868l-10.983,8.098c0,0,7.825,10.089,18.33,4.323C154.047,28.703,149.801,19.915,148.966,17.771z"/>
			<polygon fill="#F7941E" points="149.679,13.424 149.176,15.245 148.674,17.068 147.346,15.721 146.02,14.374 147.851,13.9 			"/>
			<path fill="#F7941E" d="M129.292,23.25l13.982,0.961c0,0-0.116,7.837-7.162,7.332C129.067,31.034,129.292,23.25,129.292,23.25z"
				/>
			<path fill="#FFFFFF" d="M141.964,18.606c0-0.607,0.492-1.099,1.099-1.099c0.608,0,1.101,0.492,1.101,1.099h0.669
				c0-0.977-0.792-1.769-1.77-1.769s-1.767,0.792-1.769,1.769H141.964z"/>
		</g>
	</g>
</g>
</svg>
