<?xml version="1.0" encoding="utf-8"?>
<!-- Generator: Adobe Illustrator 16.0.0, SVG Export Plug-In . SVG Version: 6.00 Build 0)  -->
<!DOCTYPE svg PUBLIC "-//W3C//DTD SVG 1.1//EN" "http://www.w3.org/Graphics/SVG/1.1/DTD/svg11.dtd">
<svg version="1.1" id="Layer_1" xmlns="http://www.w3.org/2000/svg" xmlns:xlink="http://www.w3.org/1999/xlink" x="0px" y="0px"
	 width="56.352px" height="16.705px" viewBox="0 0 56.352 16.705" enable-background="new 0 0 56.352 16.705" xml:space="preserve">
<g>
	<g>
		<path fill="#563500" d="M56.352,15.424c0,0.536-0.435,0.973-0.972,0.973h-2.052c-0.537,0-0.973-0.437-0.973-0.973v-2.052
			c0-0.536,0.436-0.972,0.973-0.972h2.052c0.537,0,0.972,0.436,0.972,0.972V15.424z"/>
		<path fill="#563500" d="M56.352,3.331c0,0.536-0.435,0.972-0.972,0.972h-2.052c-0.537,0-0.973-0.436-0.973-0.972V1.279
			c0-0.536,0.436-0.971,0.973-0.971h2.052c0.537,0,0.972,0.435,0.972,0.971V3.331z"/>
		<g>
			<g>
				<path fill="#563500" d="M29.867,6.707l-2.993,7.65h-4.195l-2.992-7.65l-0.339,9.656h-3.702l0.896-16.042h4.009l4.227,10.582
					l4.227-10.582h4.009l0.896,16.042h-3.701L29.867,6.707z"/>
			</g>
			<g>
				<path fill="#563500" d="M0,16.396V0.311h11.386v3.154h-7.55v3.806h7.116v3.187H3.836v5.939H0z"/>
			</g>
			<g>
				<path fill="#563500" d="M38.49,11.631V5.074C38.49,1.764,40.377,0,44.895,0c1.64,0,3.465,0.186,5.073,0.525l-0.31,3.218
					c-1.579-0.278-3.311-0.403-4.641-0.403c-1.979,0-2.691,0.588-2.691,2.197v5.631c0,1.609,0.712,2.197,2.691,2.197
					c1.33,0,3.062-0.125,4.641-0.403l0.31,3.218c-1.608,0.342-3.434,0.525-5.073,0.525C40.377,16.705,38.49,14.941,38.49,11.631z"/>
			</g>
		</g>
	</g>
</g>
</svg>
