<?xml version="1.0" encoding="utf-8"?>
<!-- Generator: Adobe Illustrator 16.0.0, SVG Export Plug-In . SVG Version: 6.00 Build 0)  -->
<!DOCTYPE svg PUBLIC "-//W3C//DTD SVG 1.1//EN" "http://www.w3.org/Graphics/SVG/1.1/DTD/svg11.dtd">
<svg version="1.1" id="Layer_1" xmlns="http://www.w3.org/2000/svg" xmlns:xlink="http://www.w3.org/1999/xlink" x="0px" y="0px"
	 width="124.758px" height="108.956px" viewBox="0 0 124.758 108.956" enable-background="new 0 0 124.758 108.956"
	 xml:space="preserve">
<g>
	<path fill="#F7941E" d="M12.826,95.944l-1.462-0.014c-1.992-0.884-2.636,0.272-4.799-0.057c-0.389-8.471-0.49-17.322,0.36-22.216
		c1.97-11.307,36.22-14.584,36.22-14.584l1.805-12.295h79.808c0,0-1.639,7.051-7.536,12.458
		c-5.902,5.412-32.448,11.637-37.203,16.224c-4.749,4.59-3.053,20.029-3.053,20.029L12.826,95.944z"/>
	<path fill="#F7941E" d="M19.56,76.86c0,0-6.513-6.865-3.892-15.229C18.291,53.277,29.696,43.6,31.15,27.428
		C33.49,1.399,13.493,0,13.493,0s1.863,16.975-6.657,29.922C-1.688,42.866-6.665,72.11,19.56,76.86z"/>
	<polygon fill="#F7941E" points="73.248,48.416 63.266,38.431 63.266,49.366 	"/>
	<polygon fill="#F7941E" points="58.497,48.416 48.514,38.431 48.514,49.366 	"/>
	<rect x="6.392" y="91.438" fill="#F7941E" width="5.694" height="17.52"/>
	<rect x="28.496" y="91.438" fill="#F7941E" width="5.695" height="17.52"/>
	<rect x="50.079" y="91.438" fill="#F7941E" width="5.692" height="17.518"/>
	<rect x="71.267" y="74.376" fill="#F7941E" width="5.697" height="34.58"/>
	<circle fill="#563500" cx="120.209" cy="46.089" r="4.547"/>
	<path fill="#FFFFFF" d="M61.598,56.466c0-1.516-1.229-2.74-2.743-2.74c-1.515,0-2.74,1.225-2.74,2.74h-1.667
		c0.003-2.436,1.976-4.41,4.41-4.41c2.433,0,4.406,1.975,4.408,4.41H61.598z"/>
	<path fill="#FFFFFF" d="M76.86,56.466c0-1.516-1.229-2.74-2.744-2.74s-2.742,1.225-2.742,2.74h-1.667
		c0-2.436,1.976-4.41,4.412-4.41c2.432,0,4.405,1.975,4.408,4.41H76.86z"/>
	<path fill="#563500" d="M24.709,24.726l-7.266,3.739l-6.708-6.461v-0.003C14.69,10.974,13.493,0,13.493,0S33.49,1.399,31.15,27.429
		c-0.089,1.004-0.221,1.986-0.383,2.945l0,0L24.709,24.726z"/>
</g>
</svg>
