<?xml version="1.0" encoding="utf-8"?>
<!-- Generator: Adobe Illustrator 16.0.0, SVG Export Plug-In . SVG Version: 6.00 Build 0)  -->
<!DOCTYPE svg PUBLIC "-//W3C//DTD SVG 1.1//EN" "http://www.w3.org/Graphics/SVG/1.1/DTD/svg11.dtd">
<svg version="1.1" id="Layer_1" xmlns="http://www.w3.org/2000/svg" xmlns:xlink="http://www.w3.org/1999/xlink" x="0px" y="0px"
	 width="224.806px" height="130.592px" viewBox="0 0 224.806 130.592" enable-background="new 0 0 224.806 130.592"
	 xml:space="preserve">
<g>
	<g>
		<path fill="#F7941E" d="M12.826,95.945l-1.462-0.015c-1.992-0.883-2.636,0.273-4.799-0.056c-0.388-8.47-0.49-17.322,0.361-22.216
			c1.969-11.307,36.219-14.584,36.219-14.584l1.805-12.295h79.808c0,0-1.639,7.051-7.537,12.457
			c-5.902,5.412-32.448,11.637-37.203,16.224c-4.749,4.59-3.052,20.029-3.052,20.029L12.826,95.945z"/>
		<path fill="#F7941E" d="M19.559,76.86c0,0-6.512-6.865-3.891-15.228c2.623-8.355,14.028-18.032,15.482-34.204
			C33.49,1.399,13.493,0,13.493,0s1.863,16.975-6.657,29.922C-1.688,42.866-6.665,72.11,19.559,76.86z"/>
		<polygon fill="#F7941E" points="73.248,48.416 63.265,38.431 63.265,49.366 		"/>
		<polygon fill="#F7941E" points="58.497,48.416 48.513,38.431 48.513,49.366 		"/>
		<rect x="6.391" y="91.439" fill="#F7941E" width="5.695" height="17.519"/>
		<rect x="28.496" y="91.439" fill="#F7941E" width="5.695" height="17.519"/>
		<rect x="50.079" y="91.439" fill="#F7941E" width="5.692" height="17.517"/>
		<rect x="71.266" y="74.376" fill="#F7941E" width="5.698" height="34.58"/>
		<circle fill="#563500" cx="120.209" cy="46.089" r="4.547"/>
		<path fill="#FFFFFF" d="M61.597,56.466c0-1.516-1.229-2.74-2.743-2.74c-1.514,0-2.74,1.225-2.74,2.74h-1.667
			c0.003-2.436,1.976-4.41,4.41-4.41c2.433,0,4.406,1.975,4.408,4.41H61.597z"/>
		<path fill="#FFFFFF" d="M76.86,56.466c0-1.516-1.229-2.74-2.744-2.74s-2.742,1.225-2.742,2.74h-1.667
			c0-2.436,1.975-4.41,4.412-4.41c2.432,0,4.405,1.975,4.408,4.41H76.86z"/>
		<path fill="#563500" d="M24.709,24.726l-7.266,3.739l-6.708-6.461v-0.003C14.69,10.974,13.493,0,13.493,0
			S33.49,1.399,31.15,27.429c-0.089,1.004-0.221,1.986-0.383,2.945l0,0L24.709,24.726z"/>
	</g>
	<g>
		<circle opacity="0.8" fill="#F7941E" cx="185.541" cy="114.709" r="11.835"/>
		<circle fill="#F7941E" cx="185.541" cy="114.709" r="8.011"/>
		<circle opacity="0.8" fill="#F7941E" cx="207.734" cy="122.651" r="7.942"/>
		<circle fill="#F7941E" cx="207.734" cy="122.651" r="5.376"/>
	</g>
	<g>
		<path fill="#F7941E" d="M169.834,85.677c0,0,3.926-48.514,17.799-50.377c13.873-1.858,22.333,10.278,18.516,19.488
			C202.331,64.001,169.834,85.677,169.834,85.677z"/>
		<g>
			<circle opacity="0.8" fill="#F7941E" cx="164.053" cy="53.353" r="11.835"/>
			<circle fill="#F7941E" cx="164.052" cy="53.353" r="8.011"/>
		</g>
		<path fill="#96D5D2" d="M207.768,57.854l-78.714,0.071c-0.438,10.636,3.362,21.412,11.493,29.531
			c3.902,3.899,8.416,6.795,13.236,8.712v5.123h29.253v-5.13c4.837-1.928,9.372-4.841,13.286-8.761
			C204.431,79.274,208.213,68.491,207.768,57.854z"/>
		<path fill="#62BB46" d="M199.792,37.742c0,0,1.371-4.427,2.208-9.457c0.788-4.738-0.487-12.694,0.466-10.915
			c0.954,1.775,2.992,6.764,2.992,6.764s9.597-7.594,11.506-5.982c1.91,1.612-6.449,12.045-6.449,12.045s14.861,0.156,14.292,4.244
			c-0.57,4.088-23.437,5.035-23.437,5.035L199.792,37.742z"/>
	</g>
</g>
</svg>
