<?xml version="1.0" encoding="utf-8"?>
<!-- Generator: Adobe Illustrator 16.0.0, SVG Export Plug-In . SVG Version: 6.00 Build 0)  -->
<!DOCTYPE svg PUBLIC "-//W3C//DTD SVG 1.1//EN" "http://www.w3.org/Graphics/SVG/1.1/DTD/svg11.dtd">
<svg version="1.1" id="Layer_1" xmlns="http://www.w3.org/2000/svg" xmlns:xlink="http://www.w3.org/1999/xlink" x="0px" y="0px"
	 width="302.855px" height="194.139px" viewBox="0 0 302.855 194.139" enable-background="new 0 0 302.855 194.139"
	 xml:space="preserve">
<g>
	<g>
		<path fill="#F7941E" d="M285.902,40.788c0,19.09-15.472,34.565-34.564,34.565c-19.089,0-34.564-15.476-34.564-34.565
			s15.476-34.563,34.564-34.563C270.431,6.224,285.902,21.698,285.902,40.788z"/>
		<g>
			<path fill="#563500" d="M243.132,40.538c0-1.053,0.851-1.898,1.902-1.898c1.047,0,1.897,0.846,1.897,1.898h1.159
				c-0.003-1.688-1.37-3.059-3.057-3.059c-1.69,0-3.062,1.371-3.062,3.059H243.132z"/>
			<path fill="#563500" d="M255.744,40.538c0-1.053,0.849-1.898,1.896-1.898c1.057,0,1.904,0.846,1.904,1.898h1.16
				c-0.004-1.688-1.371-3.059-3.064-3.059c-1.684,0-3.052,1.371-3.052,3.059H255.744z"/>
		</g>
		<g>
			<path fill="#62BB46" d="M256.37,0.229c-1.356-0.517-3.005-0.155-4.116,1.041c-1.113,1.197-1.352,2.861-0.74,4.18
				c1.357,0.518,3.004,0.157,4.115-1.037C256.742,3.215,256.984,1.547,256.37,0.229z"/>
			<path fill="#62BB46" d="M245.523,0.621c1.319-0.612,2.986-0.372,4.183,0.74c1.198,1.114,1.556,2.76,1.039,4.118
				c-1.317,0.612-2.983,0.371-4.181-0.74C245.371,3.628,245.01,1.982,245.523,0.621z"/>
		</g>
		<g>
			<rect x="245.484" y="63.144" fill="#F7941E" width="2.812" height="38.066"/>
			<rect x="253.209" y="63.144" fill="#F7941E" width="2.812" height="38.066"/>
			<path fill="#563500" d="M243.674,98.686c-2.555,0-4.624,1.263-4.624,2.817h9.247C248.297,99.949,246.228,98.686,243.674,98.686z"
				/>
			<path fill="#563500" d="M258.322,98.686c-2.554,0-4.625,1.263-4.625,2.817h9.249C262.946,99.949,260.875,98.686,258.322,98.686z"
				/>
		</g>
	</g>
	<g>
		<circle fill="#EE3129" cx="179.966" cy="46.303" r="34.565"/>
		<g>
			<path fill="#62BB46" d="M184.636,5.745c-1.357-0.517-3.007-0.155-4.114,1.041c-1.115,1.196-1.354,2.86-0.742,4.179
				c1.356,0.517,3.004,0.157,4.115-1.038C185.011,8.731,185.247,7.063,184.636,5.745z"/>
			<path fill="#62BB46" d="M173.791,6.135c1.318-0.612,2.984-0.371,4.179,0.741c1.198,1.114,1.558,2.758,1.041,4.117
				c-1.319,0.612-2.985,0.371-4.181-0.74C173.637,9.143,173.275,7.497,173.791,6.135z"/>
		</g>
		<rect x="173.75" y="68.659" fill="#EE3129" width="2.811" height="38.066"/>
		<rect x="181.475" y="68.659" fill="#EE3129" width="2.812" height="38.066"/>
		<path fill="#563500" d="M171.938,104.202c-2.551,0-4.62,1.262-4.62,2.815h9.243C176.561,105.463,174.49,104.202,171.938,104.202z"
			/>
		<path fill="#563500" d="M186.588,104.202c-2.556,0-4.625,1.262-4.625,2.815h9.247C191.21,105.463,189.141,104.202,186.588,104.202
			z"/>
		<g>
			<path fill="#563500" d="M171.034,46.053c0-1.053,0.849-1.898,1.901-1.898c1.048,0,1.901,0.846,1.901,1.898h1.156
				c-0.003-1.689-1.37-3.06-3.058-3.06c-1.689,0-3.061,1.37-3.061,3.06H171.034z"/>
			<path fill="#563500" d="M183.646,46.053c0-1.053,0.849-1.898,1.896-1.898c1.055,0,1.904,0.846,1.904,1.898h1.16
				c-0.004-1.689-1.372-3.06-3.064-3.06c-1.685,0-3.053,1.37-3.053,3.06H183.646z"/>
		</g>
	</g>
	<g>
		<path fill="#EE3129" d="M0,99.858c5.189,15.797,16.664,29.488,33.012,36.906c30.987,14.062,67.517,0.322,81.579-30.669
			c7.415-16.333,7.034-34.189,0.543-49.508L0,99.858z"/>
		<path fill="#62BB46" d="M105.711,60.13c5.585,12.897,5.972,27.999-0.288,41.804c-11.771,25.923-42.324,37.422-68.245,25.654
			c-13.816-6.268-23.466-17.887-27.74-31.279L0,99.858c5.195,15.797,16.672,29.488,33.012,36.902
			c30.995,14.063,67.517,0.323,81.586-30.665c7.407-16.338,7.033-34.192,0.536-49.508L105.711,60.13z"/>
		<g>
			<path fill="#563500" d="M71.396,97.584l0.03-0.012l-0.343-0.255c-0.08-0.066-0.146-0.124-0.229-0.175l-8.827-6.617l-2.303,10.914
				c-0.052,0.192-0.098,0.384-0.126,0.58l0,0l0,0c-0.179,1.18-0.082,2.424,0.37,3.627c1.405,3.74,5.583,5.639,9.324,4.231
				c3.749-1.405,5.637-5.585,4.232-9.328C73.069,99.344,72.313,98.364,71.396,97.584z"/>
			<path fill="#563500" d="M82.261,83.14l0.015-0.028l-0.432,0.063c-0.096,0.009-0.192,0.017-0.292,0.039l-10.915,1.562l6.083,9.354
				c0.104,0.163,0.209,0.334,0.32,0.493l0,0l0,0c0.714,0.967,1.658,1.774,2.832,2.303c3.644,1.651,7.934,0.041,9.594-3.599
				c1.647-3.651,0.036-7.942-3.606-9.591C84.685,83.201,83.449,83.042,82.261,83.14z"/>
			<path fill="#563500" d="M42.227,98.185l-0.029-0.019l0.363-0.228c0.081-0.06,0.157-0.113,0.245-0.165l9.236-6.01l1.59,11.043
				c0.023,0.199,0.066,0.387,0.084,0.586l0,0l0,0c0.095,1.192-0.084,2.428-0.612,3.593c-1.651,3.645-5.946,5.259-9.59,3.607
				c-3.651-1.649-5.259-5.947-3.606-9.593C40.442,99.827,41.267,98.891,42.227,98.185z"/>
		</g>
	</g>
	<g>
		<path fill="#EE3129" d="M148.022,93.497c-9.416-12.469-27.156-14.926-39.608-5.523c-12.463,9.412-14.95,27.147-5.548,39.623
			c1.635,2.15,3.583,3.899,5.634,5.437l-0.25-0.024c0,0,10.515,8.597,12.518,11.108c3.118-1.955,15.652-7.542,15.652-7.542
			l-0.129-0.014c2.153-0.901,4.256-1.978,6.202-3.447C154.958,123.694,157.431,105.958,148.022,93.497z"/>
		<path fill="#62BB46" d="M124.907,82.268c0,0-11.243-12.713-9.491-19.685c1.501-5.959,7.597-2.88,9.137,1.645
			c1.521,4.528,1.482,9.979,1.482,9.979s-3.101-32.567,8.148-31.011c12.897,1.771-2.027,32.417-2.027,32.417
			s4.686-12.595,10.142-11.836c8.124,1.135,3.664,9.16-1.076,14.049c-2.896,2.998-7.495,5.674-7.495,5.674L124.907,82.268z"/>
	</g>
	<g>
		<path fill="#62BB46" d="M259.559,59.789c-9.824,4.011-16.805,14.137-16.787,26.061c0.02,11.944,8.64,22.731,18.476,26.712
			c4.925-2.589,15.229-14.861,15.21-26.786C276.424,73.845,269.397,63.757,259.559,59.789z"/>
		<path fill="#86CB71" d="M223.041,74.75c9.904-3.746,21.939-1.127,30.053,7.609c8.158,8.729,9.878,20.897,5.418,30.521
			c-9.918,3.773-21.938,1.146-30.073-7.58C220.324,96.563,218.564,84.368,223.041,74.75z"/>
		<path fill="#62BB46" d="M295.92,73.885c-9.613-4.487-21.785-2.729-30.524,5.388c-8.749,8.122-10.812,21.782-7.051,31.702
			c5.245,1.855,21.253,1.074,29.995-7.042C297.064,95.81,299.696,83.795,295.92,73.885z"/>
		<path fill="#86CB71" d="M299.537,80.458c-13.65-5.164-30.241-1.551-41.429,10.494c-11.243,12.026-13.622,28.801-7.466,42.072
			c13.674,5.202,30.24,1.573,41.455-10.449C303.285,110.526,305.715,93.717,299.537,80.458z"/>
		<path fill="#62BB46" d="M216.792,83.826c13.256-6.181,30.034-3.76,42.081,7.429c12.061,11.204,14.901,30.029,9.715,43.706
			c-7.226,2.558-29.297,1.479-41.344-9.707C215.215,114.051,211.586,97.493,216.792,83.826z"/>
	</g>
	<g>
		<g>
			<g>
				<path fill="#62BB46" d="M157.978,90.098c-4.083,1.665-7.002,5.869-7.002,10.82c0,4.962,2.918,9.164,7.002,10.829
					c4.083-1.665,7-5.867,7-10.823C164.978,95.965,162.061,91.763,157.978,90.098z"/>
				<path fill="#62BB46" d="M134.685,113.392c1.666-4.086,5.866-7.001,10.823-7.001c4.96,0,9.157,2.915,10.823,7.001
					c-1.666,4.087-5.868,7.002-10.823,6.999C140.551,120.391,136.351,117.479,134.685,113.392z"/>
			</g>
			<path fill="#F7941E" d="M198.225,113.591c11.185,11.183,11.18,29.327,0,40.507c-11.187,11.183-29.324,11.188-40.508,0.002
				c-11.19-11.188-11.18-29.322,0.002-40.503C168.902,102.414,187.036,102.403,198.225,113.591z"/>
		</g>
		<path fill="#FCCF9A" d="M174.644,142.015c2.929,8.909,9.399,16.628,18.616,20.81c17.475,7.93,38.074,0.182,46.004-17.293
			c4.18-9.21,3.966-19.279,0.307-27.916L174.644,142.015z"/>
		<path fill="#F7941E" d="M234.256,119.612c3.15,7.275,3.369,15.789-0.162,23.571c-6.637,14.62-23.866,21.103-38.48,14.468
			c-7.793-3.536-13.236-10.088-15.648-17.637l-5.318,1.997c2.929,8.913,9.398,16.629,18.617,20.813
			c17.473,7.928,38.07,0.179,46.003-17.293c4.177-9.21,3.965-19.282,0.304-27.916L234.256,119.612z"/>
		<g>
			<path fill="#563500" d="M214.908,140.73l0.016-0.003l-0.195-0.146c-0.043-0.035-0.084-0.067-0.131-0.098l-4.975-3.732
				l-1.302,6.156c-0.025,0.109-0.055,0.213-0.071,0.325v0.003l0,0c-0.098,0.666-0.045,1.365,0.209,2.044
				c0.795,2.108,3.15,3.181,5.262,2.387s3.178-3.149,2.386-5.261C215.852,141.723,215.424,141.168,214.908,140.73z"/>
			<path fill="#563500" d="M221.031,132.588l0.008-0.016l-0.241,0.031c-0.055,0.009-0.108,0.014-0.162,0.022l-6.155,0.881
				l3.429,5.275c0.06,0.095,0.114,0.19,0.182,0.28l0,0l0,0c0.401,0.545,0.935,0.998,1.595,1.298c2.055,0.932,4.474,0.022,5.41-2.03
				c0.93-2.057,0.02-4.478-2.035-5.407C222.4,132.621,221.703,132.529,221.031,132.588z"/>
			<path fill="#563500" d="M198.457,141.071l-0.016-0.009l0.207-0.132c0.043-0.033,0.086-0.063,0.136-0.09l5.208-3.395l0.896,6.23
				c0.014,0.11,0.036,0.221,0.045,0.33l0,0l0,0c0.058,0.676-0.045,1.367-0.34,2.028c-0.934,2.054-3.355,2.964-5.412,2.035
				c-2.058-0.936-2.963-3.356-2.035-5.411C197.452,141.998,197.915,141.469,198.457,141.071z"/>
		</g>
	</g>
	<g>
		<path fill="#FBD2D0" d="M288.92,167.331c4.042-7.836,2.147-17.392-4.004-24.814l0.604-0.107c0,0-4.447-5.773-2.409-10.991
			c2.03-5.221,7.454-9.666,7.454-9.666l-8.504,4.343l3.8-10.073l-5.817,8.867l-3.161-9.571c0.666,2.096,2.288,8.413-1.063,12.006
			c-2.49,2.676-7.244,3.645-10.529,3.994c-10.616-1.747-20.841,2.222-25.263,10.787c-4.919,9.538-1.039,21.637,8.606,29.309
			c0.585,1.087,1.46,2.975,1.086,3.925c-0.545,1.374-0.545,1.374-0.545,1.374l3.084-0.559l0.158,2.229l2.352-1.589l1.174,3.407
			c0,0,0.895-3.112,3.182-2.647c0.5,0.103,0.91,0.014,1.253-0.161C272.109,180.641,284.042,176.782,288.92,167.331z"/>
		<path fill="#FCD0AF" d="M276.633,114.561l0.249,0.756C276.746,114.88,276.633,114.561,276.633,114.561z"/>
	</g>
	<g>
		<path fill="#62BB46" d="M160.263,145.613c-6.214,1.738-13.59,9.741-18.434,20.845c-4.837,11.129-5.678,21.948-2.724,27.682
			c6.212-1.74,13.572-9.723,18.415-20.824C162.369,162.19,163.209,151.333,160.263,145.613z"/>
		<path fill="#62BB46" d="M161.662,146.59c-7.362-3.924-21.412-3.009-35.846,3.066c-14.469,6.089-24.898,15.471-27.26,23.479
			c7.376,3.914,21.396,3.006,35.834-3.067C148.846,163.989,159.316,154.581,161.662,146.59z"/>
		<path fill="#62BB46" d="M164.074,137.735c0,0,0.07,4.102-2.412,6.491c-2.494,2.389-3.779,3.323-3.779,3.323l2.829,1.489
			c0,0,2.772-1.89,4.062-4.812c1.285-2.928,1.285-6.021,1.285-6.021L164.074,137.735z"/>
		<path fill="#FFFFFF" d="M154.529,167.274c0,2.35-1.901,4.252-4.258,4.252c-2.344,0-4.257-1.902-4.257-4.252
			c0-2.349,1.914-4.256,4.257-4.256C152.628,163.018,154.529,164.925,154.529,167.274z"/>
		<path fill="#FFFFFF" d="M149.678,178.16c0,2.348-1.901,4.252-4.246,4.252c-2.354,0-4.257-1.904-4.257-4.252
			c0-2.351,1.903-4.256,4.257-4.256C147.776,173.904,149.678,175.809,149.678,178.16z"/>
	</g>
</g>
</svg>
