<?xml version="1.0" encoding="utf-8"?>
<!-- Generator: Adobe Illustrator 16.0.0, SVG Export Plug-In . SVG Version: 6.00 Build 0)  -->
<!DOCTYPE svg PUBLIC "-//W3C//DTD SVG 1.1//EN" "http://www.w3.org/Graphics/SVG/1.1/DTD/svg11.dtd">
<svg version="1.1" id="Layer_1" xmlns="http://www.w3.org/2000/svg" xmlns:xlink="http://www.w3.org/1999/xlink" x="0px" y="0px"
	 width="200px" height="84px" viewBox="0 0 200 84" enable-background="new 0 0 200 84" xml:space="preserve">
<g>
	<g>
		<g>
			<path fill="#563500" d="M81.055,31.751c-0.743,0.955-1.554,1.627-2.442,2.006c-0.888,0.387-1.914,0.577-3.085,0.577
				c-0.979,0-1.852-0.178-2.637-0.52c-0.775-0.346-1.441-0.814-1.978-1.4c-0.539-0.581-0.959-1.274-1.252-2.068
				c-0.288-0.802-0.433-1.649-0.433-2.555c0-0.956,0.154-1.838,0.479-2.649c0.32-0.801,0.757-1.495,1.325-2.072
				c0.568-0.572,1.243-1.022,2.022-1.343c0.78-0.314,1.631-0.478,2.55-0.478c0.87,0,1.672,0.146,2.394,0.442
				c0.728,0.293,1.351,0.712,1.877,1.275c0.522,0.553,0.924,1.237,1.208,2.04c0.283,0.815,0.423,1.729,0.423,2.757v0.663H71.459
				c0.03,0.535,0.162,1.045,0.383,1.533c0.22,0.485,0.51,0.909,0.869,1.272c0.351,0.366,0.771,0.654,1.245,0.865
				c0.48,0.218,0.999,0.316,1.572,0.316c0.901,0,1.666-0.154,2.289-0.479c0.617-0.315,1.176-0.788,1.672-1.405L81.055,31.751z
				 M79.275,26.674c-0.035-1.063-0.382-1.915-1.036-2.555c-0.652-0.639-1.562-0.955-2.711-0.955c-1.154,0-2.086,0.316-2.794,0.955
				c-0.707,0.64-1.134,1.491-1.274,2.555H79.275z"/>
			<path fill="#563500" d="M83.925,24.52c0-0.566-0.018-1.099-0.049-1.594c-0.041-0.5-0.059-0.947-0.059-1.356h1.974
				c0,0.333,0.005,0.671,0.022,1.01c0.023,0.338,0.031,0.685,0.031,1.036h0.049c0.15-0.302,0.344-0.591,0.6-0.875
				c0.261-0.284,0.563-0.54,0.915-0.756c0.359-0.226,0.757-0.396,1.203-0.537c0.445-0.135,0.918-0.198,1.432-0.198
				c0.676,0,1.234,0.086,1.69,0.253c0.455,0.171,0.824,0.373,1.129,0.608c0.298,0.244,0.537,0.501,0.708,0.774
				c0.162,0.274,0.302,0.518,0.406,0.73c0.464-0.744,1-1.324,1.6-1.74c0.6-0.419,1.383-0.626,2.338-0.626
				c0.886,0,1.63,0.118,2.236,0.355c0.603,0.244,1.088,0.587,1.461,1.036c0.37,0.456,0.636,1.006,0.794,1.655
				c0.161,0.647,0.238,1.368,0.238,2.167v7.551h-2.068v-7.448c0-0.423-0.049-0.842-0.136-1.247c-0.084-0.41-0.247-0.771-0.476-1.09
				c-0.231-0.32-0.546-0.582-0.934-0.771c-0.387-0.194-0.882-0.294-1.486-0.294c-0.441,0-0.86,0.09-1.253,0.266
				c-0.387,0.177-0.726,0.429-1.022,0.739c-0.292,0.32-0.528,0.711-0.693,1.163c-0.167,0.45-0.249,0.95-0.249,1.503v7.179h-2.077
				v-7.047c0-1.383-0.186-2.362-0.554-2.941c-0.375-0.572-0.986-0.861-1.839-0.861c-0.674,0-1.252,0.118-1.744,0.343
				c-0.487,0.233-0.883,0.558-1.194,0.982c-0.315,0.433-0.54,0.933-0.693,1.519c-0.148,0.585-0.225,1.233-0.225,1.941v6.064h-2.078
				V24.52z"/>
			<path fill="#563500" d="M118.644,25.192c-0.348-0.784-0.811-1.474-1.4-2.063c-0.586-0.587-1.29-1.051-2.1-1.397
				c-0.807-0.346-1.676-0.519-2.609-0.519c-0.622,0-1.208,0.096-1.753,0.271c-0.54,0.176-1.027,0.397-1.446,0.667
				c-0.423,0.266-0.771,0.541-1.045,0.83c-0.104,0.104-0.181,0.197-0.252,0.292v-1.852h-2.101v0.062v3.275v14.819h2.101v-7.219
				c0.071,0.09,0.148,0.172,0.213,0.248c0.26,0.266,0.588,0.523,1.004,0.762c0.409,0.248,0.893,0.459,1.445,0.635
				c0.555,0.176,1.162,0.266,1.834,0.266c0.934,0,1.803-0.175,2.609-0.518c0.81-0.343,1.514-0.815,2.1-1.415
				c0.59-0.599,1.053-1.293,1.4-2.081c0.341-0.784,0.519-1.636,0.519-2.55C119.162,26.823,118.984,25.979,118.644,25.192z
				 M116.733,29.494c-0.231,0.542-0.536,1.019-0.938,1.433c-0.401,0.405-0.878,0.729-1.428,0.96
				c-0.559,0.233-1.171,0.352-1.834,0.352c-0.644,0-1.248-0.118-1.804-0.352c-0.552-0.23-1.029-0.555-1.427-0.96
				c-0.401-0.414-0.721-0.891-0.95-1.433c-0.235-0.549-0.348-1.145-0.348-1.788c0-0.618,0.112-1.199,0.348-1.743
				c0.229-0.546,0.549-1.02,0.95-1.421c0.397-0.396,0.875-0.71,1.427-0.946c0.556-0.233,1.16-0.351,1.804-0.351
				c0.663,0,1.275,0.117,1.834,0.351c0.55,0.236,1.026,0.551,1.428,0.946c0.401,0.401,0.706,0.875,0.938,1.421
				c0.216,0.544,0.329,1.125,0.329,1.743C117.062,28.35,116.949,28.945,116.733,29.494z"/>
			<path fill="#563500" d="M120.738,27.791c0-0.973,0.166-1.86,0.504-2.658c0.339-0.797,0.798-1.486,1.385-2.063
				c0.584-0.572,1.283-1.022,2.103-1.343c0.812-0.314,1.699-0.478,2.654-0.478c0.956,0,1.842,0.163,2.663,0.478
				c0.814,0.32,1.514,0.771,2.094,1.343c0.586,0.577,1.045,1.267,1.39,2.063c0.333,0.798,0.504,1.686,0.504,2.658
				c0,0.974-0.171,1.861-0.504,2.658c-0.345,0.798-0.804,1.486-1.39,2.059c-0.58,0.582-1.279,1.027-2.094,1.348
				c-0.821,0.319-1.707,0.479-2.663,0.479c-0.955,0-1.843-0.159-2.654-0.479c-0.819-0.32-1.519-0.766-2.103-1.348
				c-0.587-0.572-1.046-1.261-1.385-2.059C120.904,29.652,120.738,28.765,120.738,27.791z M122.973,27.791
				c0,0.658,0.099,1.262,0.307,1.822c0.203,0.557,0.5,1.043,0.888,1.459c0.387,0.418,0.856,0.747,1.396,0.985
				s1.149,0.356,1.82,0.356c0.676,0,1.284-0.118,1.824-0.356c0.541-0.238,1.006-0.567,1.396-0.985
				c0.388-0.416,0.686-0.902,0.889-1.459c0.203-0.561,0.301-1.164,0.301-1.822c0-0.652-0.098-1.262-0.301-1.824
				c-0.203-0.558-0.501-1.045-0.889-1.46c-0.391-0.418-0.855-0.743-1.396-0.987c-0.54-0.237-1.148-0.355-1.824-0.355
				c-0.671,0-1.28,0.118-1.82,0.355c-0.54,0.244-1.01,0.569-1.396,0.987c-0.388,0.415-0.685,0.902-0.888,1.46
				C123.071,26.529,122.973,27.139,122.973,27.791z M128.312,14.762h2.927l-3.803,3.83h-1.887L128.312,14.762z"/>
			<path fill="#563500" d="M136.448,24.52c0-0.566-0.014-1.099-0.05-1.594c-0.035-0.5-0.052-0.947-0.052-1.356h1.967
				c0,0.333,0.008,0.671,0.026,1.01c0.02,0.338,0.028,0.685,0.028,1.036h0.053c0.142-0.302,0.334-0.591,0.596-0.875
				c0.257-0.284,0.563-0.54,0.919-0.756c0.357-0.226,0.753-0.396,1.198-0.537c0.438-0.135,0.919-0.198,1.434-0.198
				c0.139,0,0.279,0.01,0.421,0.027c0.147,0.018,0.286,0.054,0.432,0.109l-0.133,2.095c-0.358-0.104-0.729-0.158-1.119-0.158
				c-1.276,0-2.199,0.414-2.778,1.239c-0.575,0.819-0.865,1.955-0.865,3.388v6.064h-2.076V24.52z"/>
			<path fill="#563500" d="M144.72,16.7c0-0.406,0.145-0.759,0.44-1.059c0.29-0.303,0.649-0.451,1.074-0.451
				c0.427,0,0.788,0.148,1.081,0.451c0.288,0.3,0.438,0.652,0.438,1.059c0,0.445-0.146,0.806-0.428,1.094
				c-0.279,0.283-0.649,0.423-1.091,0.423c-0.442,0-0.802-0.14-1.091-0.423C144.864,17.506,144.72,17.146,144.72,16.7z
				 M145.198,21.569h2.078v12.444h-2.078V21.569z"/>
			<path fill="#563500" d="M149.88,27.791c0-0.973,0.165-1.86,0.508-2.658c0.335-0.797,0.799-1.486,1.379-2.063
				c0.587-0.572,1.282-1.022,2.104-1.343c0.81-0.314,1.699-0.478,2.657-0.478c0.955,0,1.843,0.163,2.653,0.478
				c0.821,0.32,1.519,0.771,2.105,1.343c0.585,0.577,1.046,1.267,1.383,2.063c0.338,0.798,0.504,1.686,0.504,2.658
				c0,0.974-0.166,1.861-0.504,2.658c-0.337,0.798-0.798,1.486-1.383,2.059c-0.587,0.582-1.284,1.027-2.105,1.348
				c-0.811,0.319-1.698,0.479-2.653,0.479c-0.958,0-1.848-0.159-2.657-0.479c-0.822-0.32-1.518-0.766-2.104-1.348
				c-0.58-0.572-1.044-1.261-1.379-2.059C150.045,29.652,149.88,28.765,149.88,27.791z M152.114,27.791
				c0,0.658,0.104,1.262,0.305,1.822c0.205,0.557,0.501,1.043,0.894,1.459c0.387,0.418,0.852,0.747,1.393,0.985
				s1.149,0.356,1.823,0.356c0.677,0,1.279-0.118,1.821-0.356c0.539-0.238,1.004-0.567,1.396-0.985
				c0.392-0.416,0.684-0.902,0.886-1.459c0.207-0.561,0.307-1.164,0.307-1.822c0-0.652-0.1-1.262-0.307-1.824
				c-0.202-0.558-0.494-1.045-0.886-1.46c-0.393-0.418-0.857-0.743-1.396-0.987c-0.542-0.237-1.145-0.355-1.821-0.355
				c-0.674,0-1.282,0.118-1.823,0.355c-0.541,0.244-1.006,0.569-1.393,0.987c-0.393,0.415-0.688,0.902-0.894,1.46
				C152.218,26.529,152.114,27.139,152.114,27.791z"/>
		</g>
		<g>
			<path fill="#563500" d="M172.23,30.265c0.338,0.789,0.811,1.478,1.396,2.067c0.587,0.588,1.289,1.055,2.101,1.397
				c0.812,0.342,1.684,0.514,2.613,0.514c0.621,0,1.208-0.087,1.748-0.267c0.545-0.175,1.022-0.396,1.445-0.662
				s0.771-0.544,1.051-0.833c0.099-0.104,0.179-0.199,0.252-0.288v1.846h2.096v-0.062v-3.279V15.89h-2.096v7.207
				c-0.077-0.086-0.153-0.171-0.217-0.238c-0.26-0.267-0.589-0.523-1-0.766c-0.414-0.244-0.896-0.456-1.445-0.632
				c-0.555-0.18-1.168-0.27-1.834-0.27c-0.93,0-1.802,0.176-2.613,0.518c-0.812,0.343-1.514,0.815-2.101,1.415
				c-0.585,0.599-1.058,1.289-1.396,2.081c-0.347,0.788-0.519,1.64-0.519,2.545C171.712,28.639,171.884,29.477,172.23,30.265z
				 M174.145,25.971c0.221-0.54,0.531-1.019,0.932-1.432c0.397-0.41,0.875-0.73,1.435-0.965c0.554-0.234,1.161-0.352,1.829-0.352
				c0.644,0,1.242,0.117,1.798,0.352c0.554,0.234,1.031,0.555,1.437,0.965c0.396,0.413,0.712,0.892,0.945,1.432
				c0.23,0.546,0.347,1.14,0.347,1.779c0,0.622-0.116,1.203-0.347,1.754c-0.233,0.545-0.549,1.013-0.945,1.414
				c-0.405,0.396-0.883,0.716-1.437,0.946c-0.556,0.238-1.154,0.352-1.798,0.352c-0.668,0-1.275-0.113-1.829-0.352
				c-0.56-0.23-1.037-0.55-1.435-0.946c-0.4-0.401-0.711-0.869-0.932-1.414c-0.224-0.551-0.334-1.132-0.334-1.754
				C173.811,27.11,173.921,26.517,174.145,25.971z"/>
			<path fill="#563500" d="M187.065,30.265c0.343,0.789,0.812,1.478,1.397,2.067c0.589,0.588,1.289,1.055,2.104,1.397
				c0.811,0.342,1.68,0.514,2.612,0.514c0.621,0,1.199-0.087,1.743-0.267c0.549-0.175,1.032-0.396,1.452-0.662
				c0.423-0.266,0.77-0.544,1.048-0.833c0.1-0.104,0.181-0.199,0.252-0.288v1.846h2.092v-0.062v-3.279v-9.109h-2.092v1.509
				c-0.075-0.086-0.152-0.171-0.215-0.238c-0.257-0.267-0.591-0.523-1.001-0.766c-0.41-0.244-0.897-0.456-1.45-0.632
				c-0.555-0.18-1.166-0.27-1.829-0.27c-0.933,0-1.802,0.176-2.612,0.518c-0.815,0.343-1.516,0.815-2.104,1.415
				c-0.586,0.599-1.055,1.289-1.397,2.081c-0.347,0.788-0.513,1.64-0.513,2.545C186.553,28.639,186.719,29.477,187.065,30.265z
				 M188.985,25.971c0.22-0.54,0.53-1.019,0.924-1.432c0.4-0.41,0.883-0.73,1.438-0.965c0.559-0.234,1.167-0.352,1.833-0.352
				c0.645,0,1.244,0.117,1.797,0.352c0.555,0.234,1.031,0.555,1.43,0.965c0.405,0.413,0.72,0.892,0.954,1.432
				c0.231,0.546,0.348,1.14,0.348,1.779c0,0.622-0.116,1.203-0.348,1.754c-0.234,0.545-0.549,1.013-0.954,1.414
				c-0.398,0.396-0.875,0.716-1.43,0.946c-0.553,0.238-1.152,0.352-1.797,0.352c-0.666,0-1.274-0.113-1.833-0.352
				c-0.555-0.23-1.037-0.55-1.438-0.946c-0.394-0.401-0.704-0.869-0.924-1.414c-0.225-0.551-0.333-1.132-0.333-1.754
				C188.652,27.11,188.761,26.517,188.985,25.971z"/>
		</g>
		<g>
			<g>
				<rect x="134.894" y="44.704" fill="#563500" width="3.804" height="18.044"/>
				<path fill="#563500" d="M136.796,42.384c0.612,0,1.117-0.208,1.514-0.604c0.399-0.397,0.599-0.905,0.599-1.514
					c0-0.568-0.201-1.068-0.607-1.487c-0.406-0.413-0.91-0.626-1.505-0.626c-0.596,0-1.101,0.213-1.511,0.626
					c-0.4,0.419-0.607,0.919-0.607,1.487c0,0.608,0.207,1.116,0.6,1.51C135.679,42.176,136.188,42.384,136.796,42.384z"/>
			</g>
			<path fill="#563500" d="M157.382,46.362c-0.583-0.661-1.33-1.181-2.205-1.545c-0.873-0.37-1.91-0.55-3.085-0.55
				c-0.754,0-1.461,0.098-2.109,0.292c-0.652,0.199-1.243,0.461-1.762,0.784c-0.521,0.324-0.982,0.703-1.36,1.127
				c-0.032,0.035-0.068,0.072-0.099,0.109l-0.005-0.037c-0.022-0.456-0.031-0.905-0.031-1.361v-0.478h-3.654v0.478
				c0,0.577,0.022,1.218,0.076,1.896c0.044,0.663,0.069,1.388,0.069,2.158v13.512h3.803V53.94c0-0.924,0.099-1.774,0.296-2.541
				c0.185-0.739,0.479-1.384,0.87-1.919c0.373-0.52,0.864-0.92,1.465-1.203c0.594-0.284,1.337-0.428,2.188-0.428
				c1.184,0,2.032,0.347,2.572,1.054c0.564,0.739,0.852,1.784,0.852,3.104v10.741h3.803V51.72c0-1.06-0.131-2.06-0.406-2.965
				C158.385,47.821,157.952,47.024,157.382,46.362z"/>
			<path fill="#563500" d="M176.583,46.362c-0.581-0.658-1.321-1.181-2.199-1.545c-0.874-0.37-1.915-0.55-3.091-0.55
				c-0.699,0-1.37,0.091-1.99,0.274c-0.624,0.18-1.191,0.414-1.695,0.698c-0.509,0.28-0.946,0.608-1.32,0.969
				c-0.022,0.022-0.045,0.045-0.067,0.067v-7.775h-3.798v24.247h3.798V53.94c0-0.924,0.095-1.779,0.298-2.541
				c0.189-0.739,0.482-1.384,0.874-1.919c0.374-0.52,0.869-0.92,1.46-1.203c0.604-0.284,1.337-0.428,2.184-0.428
				c1.195,0,2.036,0.347,2.583,1.054c0.562,0.739,0.852,1.779,0.852,3.104v10.741h3.799V51.72c0-1.064-0.133-2.064-0.402-2.965
				C177.591,47.821,177.158,47.024,176.583,46.362z"/>
			<path fill="#563500" d="M129.542,46.8c-0.853-0.849-1.871-1.527-3.032-2.022c-1.171-0.5-2.438-0.748-3.781-0.748
				c-0.896,0-1.755,0.13-2.544,0.387c-0.784,0.262-1.491,0.582-2.095,0.968c-0.393,0.248-0.739,0.506-1.05,0.768v-1.835h-3.362
				l-0.478,0.077v25.803h3.84v-9.24c0.274,0.226,0.594,0.445,0.941,0.652c0.595,0.352,1.298,0.662,2.09,0.914
				c0.807,0.261,1.704,0.388,2.657,0.388c1.343,0,2.61-0.248,3.781-0.747c1.161-0.492,2.185-1.181,3.032-2.05
				c0.847-0.861,1.527-1.87,2.019-3.001c0.499-1.135,0.753-2.38,0.753-3.688c0-1.281-0.254-2.506-0.753-3.642
				C131.069,48.65,130.389,47.651,129.542,46.8z M122.729,59.163c-0.814,0-1.58-0.149-2.278-0.442
				c-0.703-0.293-1.307-0.702-1.812-1.217c-0.504-0.513-0.909-1.131-1.208-1.819c-0.287-0.685-0.437-1.445-0.437-2.261
				c0-0.785,0.149-1.529,0.437-2.215c0.299-0.688,0.704-1.292,1.202-1.792c0.506-0.499,1.114-0.905,1.817-1.199
				c0.698-0.292,1.464-0.446,2.278-0.446c0.849,0,1.633,0.154,2.334,0.443c0.698,0.297,1.312,0.703,1.817,1.202
				c0.495,0.5,0.891,1.104,1.17,1.788c0.28,0.686,0.424,1.429,0.424,2.219c0,0.818-0.144,1.58-0.424,2.264
				c-0.279,0.691-0.675,1.304-1.175,1.816c-0.504,0.515-1.118,0.924-1.812,1.217C124.361,59.014,123.577,59.163,122.729,59.163z"/>
			<path fill="#563500" d="M85.566,46.8c-0.852-0.849-1.875-1.527-3.033-2.022c-1.171-0.5-2.443-0.748-3.775-0.748
				c-0.901,0-1.757,0.13-2.55,0.387c-0.784,0.257-1.491,0.582-2.094,0.968c-0.393,0.248-0.75,0.506-1.056,0.768v-1.835h-3.355
				l-0.475,0.077v25.803h3.83v-9.24c0.276,0.226,0.599,0.445,0.951,0.652c0.59,0.352,1.288,0.662,2.086,0.914
				c0.806,0.261,1.707,0.388,2.662,0.388c1.333,0,2.604-0.248,3.775-0.747c1.158-0.492,2.186-1.181,3.033-2.05
				c0.846-0.861,1.522-1.87,2.018-3.001c0.496-1.135,0.748-2.38,0.748-3.688c0-1.276-0.252-2.506-0.748-3.646
				C87.088,48.646,86.407,47.646,85.566,46.8z M78.757,59.163c-0.815,0-1.585-0.149-2.289-0.442
				c-0.697-0.293-1.306-0.702-1.806-1.217c-0.505-0.518-0.911-1.131-1.208-1.819c-0.293-0.685-0.442-1.445-0.442-2.261
				c0-0.785,0.149-1.529,0.442-2.215c0.297-0.688,0.703-1.292,1.203-1.792c0.5-0.499,1.114-0.905,1.811-1.199
				c0.704-0.292,1.474-0.446,2.289-0.446c0.843,0,1.627,0.154,2.329,0.443c0.699,0.297,1.312,0.703,1.812,1.202
				c0.5,0.5,0.896,1.104,1.176,1.788c0.28,0.686,0.419,1.429,0.419,2.219c0,0.818-0.139,1.58-0.419,2.264
				c-0.28,0.691-0.676,1.304-1.18,1.816c-0.5,0.515-1.109,0.924-1.808,1.217C80.384,59.014,79.6,59.163,78.757,59.163z"/>
			<path fill="#563500" d="M105.354,45.989c-0.271-0.23-0.596-0.45-0.946-0.655c-0.591-0.359-1.299-0.666-2.087-0.918
				c-0.811-0.257-1.702-0.387-2.663-0.387c-1.337,0-2.604,0.248-3.776,0.752c-1.165,0.491-2.183,1.176-3.037,2.045
				c-0.842,0.861-1.518,1.87-2.013,2.997c-0.497,1.14-0.753,2.383-0.753,3.689c0,1.284,0.256,2.51,0.753,3.645
				c0.495,1.131,1.171,2.136,2.022,2.982c0.848,0.846,1.862,1.531,3.027,2.023c1.172,0.499,2.438,0.747,3.776,0.747
				c0.896,0,1.76-0.127,2.551-0.388c0.778-0.256,1.485-0.58,2.094-0.969c0.391-0.247,0.739-0.504,1.051-0.766v1.838h3.36l0.477-0.08
				v-17.98h-3.837V45.989z M93.917,53.513c0-0.816,0.141-1.577,0.42-2.262c0.282-0.685,0.68-1.297,1.18-1.814
				c0.504-0.515,1.113-0.925,1.812-1.219c0.702-0.292,1.481-0.446,2.328-0.446c0.816,0,1.585,0.154,2.285,0.446
				c0.702,0.294,1.307,0.704,1.811,1.219c0.504,0.518,0.91,1.133,1.208,1.821c0.293,0.683,0.44,1.443,0.44,2.255
				c0,0.789-0.147,1.527-0.44,2.216c-0.298,0.686-0.698,1.29-1.202,1.798c-0.503,0.495-1.114,0.901-1.816,1.194
				c-0.699,0.293-1.469,0.446-2.285,0.446c-0.847,0-1.626-0.153-2.328-0.446c-0.699-0.293-1.308-0.699-1.817-1.194
				c-0.496-0.501-0.893-1.104-1.175-1.788C94.058,55.044,93.917,54.302,93.917,53.513z"/>
			<path fill="#563500" d="M196.167,44.565v1.424c-0.279-0.23-0.595-0.45-0.945-0.655c-0.597-0.359-1.299-0.666-2.092-0.918
				c-0.806-0.257-1.699-0.387-2.657-0.387c-1.335,0-2.604,0.248-3.774,0.752c-1.169,0.491-2.19,1.176-3.037,2.045
				c-0.844,0.861-1.529,1.87-2.023,3c-0.491,1.14-0.744,2.38-0.744,3.687c0,1.284,0.253,2.505,0.744,3.645
				c0.494,1.131,1.18,2.136,2.027,2.982c0.843,0.846,1.868,1.531,3.033,2.023c1.17,0.499,2.439,0.747,3.774,0.747
				c0.9,0,1.758-0.127,2.546-0.388c0.788-0.262,1.495-0.58,2.094-0.969c0.392-0.247,0.743-0.499,1.055-0.766v1.838h3.356l0.477-0.08
				v-17.98H196.167z M184.729,53.513c0-0.816,0.144-1.577,0.423-2.262c0.28-0.685,0.681-1.297,1.181-1.814
				c0.499-0.515,1.107-0.925,1.808-1.219c0.705-0.292,1.485-0.446,2.333-0.446c0.815,0,1.58,0.154,2.283,0.446
				c0.699,0.294,1.307,0.704,1.812,1.219c0.501,0.518,0.904,1.133,1.203,1.821c0.292,0.683,0.44,1.443,0.44,2.255
				c0,0.789-0.148,1.527-0.44,2.216c-0.299,0.686-0.698,1.29-1.203,1.798c-0.5,0.495-1.112,0.901-1.812,1.194
				c-0.703,0.293-1.468,0.446-2.283,0.446c-0.844,0-1.628-0.153-2.333-0.446c-0.7-0.293-1.309-0.699-1.808-1.194
				c-0.504-0.501-0.9-1.104-1.181-1.788C184.872,55.044,184.729,54.302,184.729,53.513z"/>
		</g>
	</g>
	<g>
		<polygon fill="#603A17" points="21.723,5.718 21.751,5.704 21.723,5.713 		"/>
		<g>
			<path fill="#6CB13F" d="M20.818,0c-1.135,0.461-1.951,1.632-1.951,3.015c0,1.379,0.815,2.545,1.951,3.014
				c1.135-0.469,1.946-1.635,1.946-3.014C22.765,1.632,21.954,0.461,20.818,0z"/>
			<path fill="#6CB13F" d="M14.335,6.487c0.459-1.14,1.631-1.95,3.009-1.95c1.384,0,2.55,0.811,3.015,1.95
				c-0.465,1.136-1.636,1.946-3.015,1.946C15.966,8.434,14.794,7.623,14.335,6.487z"/>
		</g>
		<path fill="#EB3029" d="M32.023,6.537c3.113,3.117,3.113,8.169,0,11.281s-8.164,3.112-11.277,0c-3.122-3.112-3.114-8.164,0-11.275
			C23.859,3.429,28.911,3.425,32.023,6.537z"/>
		<path fill="#563500" d="M53.005,16.161C50.162,8.816,43.296,3.5,35.465,2.613c-0.812-0.094-1.626-0.14-2.451-0.14
			c-3.459,0-6.717,0.843-9.605,2.307c2.87-1.158,6.286-0.572,8.615,1.757c0.153,0.153,0.288,0.315,0.428,0.478
			c2.468,0.262,4.875,1.194,6.874,2.82c4.686,3.798,6.218,10.492,3.596,15.94h-0.005c-3.302,6.775-11.078,10.727-18.048,12.484
			c-2.101,0.532-11.525,2.347-12.079,2.55C5.676,42.67,0.364,48.965,0.004,56.574c-0.018,0.171,0.026,2.464,0.129,3.203
			c0.497,6.456,1.879,24.221,1.879,24.221h4.821c0-6.925,5.617-12.54,12.543-12.54c6.925,0,12.543,5.615,12.543,12.54h4.933
			c-0.423-6.938-0.22-14.065,0.883-20.932c1.347-8.397,7.131-15.255,11.253-22.451C53.252,33.168,56.28,24.596,53.005,16.161z
			 M31.546,44.751c-1.947,0-1.951-3.027,0-3.027C33.497,41.724,33.497,44.751,31.546,44.751z"/>
	</g>
</g>
</svg>
