<?xml version="1.0" encoding="utf-8"?>
<!-- Generator: Adobe Illustrator 16.0.0, SVG Export Plug-In . SVG Version: 6.00 Build 0)  -->
<!DOCTYPE svg PUBLIC "-//W3C//DTD SVG 1.1//EN" "http://www.w3.org/Graphics/SVG/1.1/DTD/svg11.dtd">
<svg version="1.1" id="Layer_1" xmlns="http://www.w3.org/2000/svg" xmlns:xlink="http://www.w3.org/1999/xlink" x="0px" y="0px"
	 width="150px" height="168.963px" viewBox="0 0 150 168.963" enable-background="new 0 0 150 168.963" xml:space="preserve">
<g>
	<g>
		<g>
			<path fill="#563500" d="M13.565,124.867c-0.853,1.094-1.782,1.865-2.8,2.299c-1.019,0.445-2.197,0.664-3.54,0.664
				c-1.123,0-2.125-0.205-3.024-0.598c-0.89-0.395-1.654-0.934-2.27-1.605c-0.619-0.666-1.1-1.463-1.437-2.373
				c-0.33-0.92-0.496-1.891-0.496-2.93c0-1.096,0.176-2.107,0.548-3.039c0.367-0.918,0.869-1.713,1.52-2.377
				c0.651-0.654,1.426-1.174,2.32-1.539c0.894-0.361,1.871-0.549,2.924-0.549c0.999,0,1.918,0.166,2.747,0.508
				c0.835,0.336,1.549,0.816,2.154,1.463c0.6,0.635,1.06,1.422,1.386,2.34c0.324,0.936,0.485,1.984,0.485,3.164v0.758H2.559
				c0.036,0.613,0.187,1.199,0.439,1.76c0.252,0.557,0.584,1.043,0.998,1.459c0.402,0.42,0.883,0.75,1.426,0.992
				c0.552,0.25,1.146,0.363,1.804,0.363c1.033,0,1.912-0.178,2.624-0.549c0.708-0.361,1.349-0.904,1.918-1.611L13.565,124.867z
				 M11.524,119.043c-0.041-1.219-0.438-2.195-1.189-2.93c-0.748-0.732-1.792-1.098-3.109-1.098c-1.325,0-2.394,0.365-3.205,1.098
				c-0.812,0.734-1.302,1.711-1.462,2.93H11.524z"/>
			<path fill="#563500" d="M16.857,116.572c0-0.65-0.021-1.26-0.057-1.828c-0.047-0.574-0.068-1.086-0.068-1.557h2.265
				c0,0.383,0.006,0.771,0.026,1.158c0.025,0.389,0.035,0.785,0.035,1.188h0.057c0.171-0.344,0.395-0.676,0.688-1.002
				c0.299-0.326,0.646-0.621,1.049-0.867c0.413-0.26,0.868-0.455,1.38-0.615c0.511-0.154,1.054-0.229,1.644-0.229
				c0.774,0,1.415,0.098,1.938,0.291c0.522,0.195,0.944,0.428,1.297,0.697c0.341,0.279,0.615,0.574,0.812,0.889
				c0.186,0.314,0.346,0.594,0.465,0.836c0.533-0.852,1.147-1.518,1.835-1.994c0.688-0.48,1.588-0.719,2.683-0.719
				c1.018,0,1.87,0.135,2.563,0.408c0.692,0.279,1.25,0.672,1.678,1.189c0.424,0.523,0.729,1.154,0.91,1.896
				c0.186,0.744,0.274,1.57,0.274,2.486v8.66h-2.373v-8.543c0-0.484-0.056-0.965-0.155-1.43c-0.096-0.471-0.283-0.883-0.547-1.25
				s-0.626-0.666-1.07-0.885c-0.444-0.223-1.013-0.338-1.705-0.338c-0.506,0-0.986,0.104-1.437,0.307
				c-0.444,0.201-0.832,0.492-1.173,0.848c-0.336,0.367-0.604,0.816-0.795,1.334c-0.192,0.518-0.285,1.09-0.285,1.725v8.232h-2.383
				v-8.082c0-1.586-0.211-2.709-0.635-3.373c-0.43-0.658-1.132-0.99-2.107-0.99c-0.776,0-1.438,0.137-2.002,0.396
				c-0.559,0.268-1.013,0.639-1.369,1.125c-0.361,0.496-0.62,1.07-0.796,1.74c-0.169,0.672-0.257,1.418-0.257,2.229v6.955h-2.384
				V116.572z"/>
			<path fill="#563500" d="M56.681,117.344c-0.398-0.9-0.931-1.691-1.607-2.367c-0.672-0.674-1.479-1.205-2.408-1.602
				c-0.925-0.398-1.923-0.596-2.993-0.596c-0.712,0-1.385,0.109-2.009,0.311c-0.619,0.201-1.179,0.455-1.66,0.766
				c-0.485,0.305-0.884,0.619-1.198,0.949c-0.12,0.121-0.208,0.229-0.29,0.336v-2.123h-2.407v0.072v3.758v16.996h2.407v-8.281
				c0.082,0.105,0.17,0.199,0.244,0.287c0.299,0.305,0.676,0.6,1.152,0.873c0.47,0.283,1.023,0.527,1.658,0.729
				c0.636,0.203,1.333,0.305,2.103,0.305c1.07,0,2.068-0.201,2.993-0.594c0.93-0.393,1.736-0.936,2.408-1.623
				c0.677-0.688,1.209-1.484,1.607-2.387c0.392-0.9,0.594-1.875,0.594-2.926C57.274,119.215,57.072,118.248,56.681,117.344z
				 M54.49,122.279c-0.266,0.621-0.615,1.166-1.076,1.643c-0.46,0.465-1.008,0.836-1.64,1.1c-0.639,0.27-1.342,0.404-2.103,0.404
				c-0.739,0-1.431-0.135-2.067-0.404c-0.635-0.264-1.182-0.635-1.637-1.1c-0.461-0.477-0.827-1.021-1.09-1.643
				c-0.27-0.631-0.398-1.314-0.398-2.053c0-0.709,0.129-1.375,0.398-1.998c0.263-0.629,0.629-1.17,1.09-1.631
				c0.455-0.453,1.002-0.814,1.637-1.084c0.637-0.268,1.328-0.404,2.067-0.404c0.761,0,1.464,0.137,2.103,0.404
				c0.632,0.27,1.18,0.631,1.64,1.084c0.461,0.461,0.811,1.002,1.076,1.631c0.246,0.623,0.376,1.289,0.376,1.998
				C54.866,120.965,54.736,121.648,54.49,122.279z"/>
			<path fill="#563500" d="M59.083,120.324c0-1.115,0.19-2.135,0.579-3.049c0.387-0.914,0.914-1.703,1.587-2.367
				c0.671-0.654,1.472-1.174,2.413-1.539c0.931-0.361,1.947-0.549,3.044-0.549c1.094,0,2.113,0.188,3.053,0.549
				c0.937,0.365,1.736,0.885,2.403,1.539c0.672,0.664,1.2,1.453,1.593,2.367c0.383,0.914,0.578,1.934,0.578,3.049
				c0,1.117-0.195,2.135-0.578,3.049c-0.393,0.916-0.921,1.705-1.593,2.361c-0.667,0.668-1.467,1.18-2.403,1.545
				c-0.939,0.367-1.959,0.551-3.053,0.551c-1.097,0-2.113-0.184-3.044-0.551c-0.941-0.365-1.742-0.877-2.413-1.545
				c-0.673-0.656-1.2-1.445-1.587-2.361C59.273,122.459,59.083,121.441,59.083,120.324z M61.646,120.324
				c0,0.756,0.114,1.447,0.351,2.09c0.233,0.639,0.575,1.197,1.018,1.674c0.445,0.48,0.984,0.857,1.604,1.131
				c0.62,0.273,1.318,0.408,2.088,0.408c0.775,0,1.473-0.135,2.093-0.408s1.151-0.65,1.603-1.131
				c0.444-0.477,0.784-1.035,1.018-1.674c0.232-0.643,0.347-1.334,0.347-2.09c0-0.748-0.114-1.445-0.347-2.094
				c-0.233-0.639-0.573-1.197-1.018-1.674c-0.451-0.479-0.982-0.852-1.603-1.131c-0.62-0.273-1.317-0.41-2.093-0.41
				c-0.77,0-1.468,0.137-2.088,0.41c-0.619,0.279-1.158,0.652-1.604,1.131c-0.442,0.477-0.784,1.035-1.018,1.674
				C61.761,118.879,61.646,119.576,61.646,120.324z M67.771,105.381h3.358l-4.361,4.391h-2.164L67.771,105.381z"/>
			<path fill="#563500" d="M77.104,116.572c0-0.65-0.017-1.26-0.057-1.828c-0.042-0.574-0.062-1.086-0.062-1.557h2.258
				c0,0.383,0.01,0.771,0.03,1.158c0.021,0.389,0.032,0.785,0.032,1.188h0.061c0.162-0.344,0.383-0.676,0.684-1.002
				c0.295-0.326,0.646-0.621,1.053-0.867c0.408-0.26,0.865-0.455,1.375-0.615c0.501-0.154,1.055-0.229,1.644-0.229
				c0.16,0,0.321,0.012,0.484,0.031c0.167,0.021,0.328,0.062,0.493,0.125l-0.15,2.404c-0.413-0.121-0.837-0.182-1.286-0.182
				c-1.464,0-2.521,0.475-3.184,1.42c-0.661,0.941-0.992,2.242-0.992,3.887v6.955h-2.383V116.572z"/>
			<path fill="#563500" d="M86.591,107.604c0-0.467,0.167-0.869,0.507-1.215c0.331-0.348,0.744-0.518,1.23-0.518
				c0.49,0,0.905,0.17,1.239,0.518c0.331,0.346,0.502,0.748,0.502,1.215c0,0.51-0.164,0.924-0.491,1.254
				c-0.32,0.326-0.743,0.486-1.25,0.486s-0.921-0.16-1.251-0.486C86.758,108.527,86.591,108.113,86.591,107.604z M87.139,113.188
				h2.384v14.273h-2.384V113.188z"/>
			<path fill="#563500" d="M92.509,120.324c0-1.115,0.191-2.135,0.582-3.049c0.385-0.914,0.916-1.703,1.583-2.367
				c0.672-0.654,1.473-1.174,2.414-1.539c0.929-0.361,1.949-0.549,3.048-0.549c1.097,0,2.113,0.188,3.044,0.549
				c0.941,0.365,1.742,0.885,2.413,1.539c0.672,0.664,1.2,1.453,1.586,2.367c0.389,0.914,0.58,1.934,0.58,3.049
				c0,1.117-0.191,2.135-0.58,3.049c-0.386,0.916-0.914,1.705-1.586,2.361c-0.671,0.668-1.472,1.18-2.413,1.545
				c-0.931,0.367-1.947,0.551-3.044,0.551c-1.099,0-2.119-0.184-3.048-0.551c-0.941-0.365-1.742-0.877-2.414-1.545
				c-0.667-0.656-1.198-1.445-1.583-2.361C92.7,122.459,92.509,121.441,92.509,120.324z M95.072,120.324
				c0,0.756,0.118,1.447,0.351,2.09c0.233,0.639,0.574,1.197,1.023,1.674c0.445,0.48,0.977,0.857,1.597,1.131
				s1.318,0.408,2.093,0.408c0.775,0,1.469-0.135,2.088-0.408c0.62-0.273,1.152-0.65,1.602-1.131
				c0.449-0.477,0.787-1.035,1.02-1.674c0.236-0.643,0.351-1.334,0.351-2.09c0-0.748-0.114-1.445-0.351-2.094
				c-0.232-0.639-0.57-1.197-1.02-1.674c-0.449-0.479-0.981-0.852-1.602-1.131c-0.619-0.273-1.312-0.41-2.088-0.41
				c-0.774,0-1.473,0.137-2.093,0.41c-0.62,0.279-1.151,0.652-1.597,1.131c-0.449,0.477-0.79,1.035-1.023,1.674
				C95.19,118.879,95.072,119.576,95.072,120.324z"/>
		</g>
		<g>
			<path fill="#563500" d="M118.146,123.162c0.388,0.904,0.932,1.695,1.602,2.371c0.673,0.674,1.479,1.209,2.409,1.604
				c0.93,0.391,1.932,0.588,2.996,0.588c0.713,0,1.386-0.1,2.007-0.305c0.624-0.199,1.172-0.455,1.657-0.76
				c0.486-0.305,0.884-0.623,1.205-0.955c0.113-0.119,0.207-0.23,0.289-0.33v2.115h2.403v-0.07v-3.762v-16.986h-2.403v8.27
				c-0.088-0.102-0.176-0.197-0.249-0.273c-0.299-0.307-0.676-0.602-1.146-0.879c-0.475-0.281-1.028-0.523-1.658-0.725
				c-0.636-0.207-1.339-0.311-2.104-0.311c-1.064,0-2.066,0.201-2.996,0.596c-0.931,0.393-1.736,0.934-2.409,1.623
				c-0.67,0.686-1.214,1.477-1.602,2.387c-0.397,0.902-0.594,1.881-0.594,2.918C117.552,121.297,117.748,122.258,118.146,123.162z
				 M120.342,118.236c0.253-0.619,0.61-1.168,1.07-1.641c0.454-0.473,1.003-0.838,1.642-1.107c0.637-0.27,1.334-0.404,2.099-0.404
				c0.739,0,1.427,0.135,2.062,0.404c0.637,0.27,1.185,0.635,1.649,1.107c0.455,0.473,0.816,1.021,1.085,1.641
				c0.265,0.625,0.397,1.309,0.397,2.041c0,0.715-0.133,1.381-0.397,2.012c-0.269,0.625-0.63,1.164-1.085,1.623
				c-0.465,0.455-1.013,0.82-1.649,1.086c-0.635,0.271-1.322,0.402-2.062,0.402c-0.765,0-1.462-0.131-2.099-0.402
				c-0.639-0.266-1.188-0.631-1.642-1.086c-0.46-0.459-0.817-0.998-1.07-1.623c-0.258-0.631-0.383-1.297-0.383-2.012
				C119.959,119.545,120.084,118.861,120.342,118.236z"/>
			<path fill="#563500" d="M135.163,123.162c0.393,0.904,0.93,1.695,1.602,2.371c0.678,0.674,1.479,1.209,2.414,1.604
				c0.93,0.391,1.927,0.588,2.998,0.588c0.713,0,1.374-0.1,1.998-0.305c0.633-0.199,1.184-0.455,1.665-0.76
				c0.485-0.305,0.884-0.623,1.204-0.955c0.113-0.119,0.207-0.23,0.288-0.33v2.115h2.399v-0.07v-3.762v-10.449h-2.399v1.732
				c-0.087-0.102-0.175-0.197-0.246-0.273c-0.295-0.307-0.678-0.602-1.148-0.879c-0.47-0.281-1.029-0.523-1.663-0.725
				c-0.636-0.207-1.339-0.311-2.098-0.311c-1.071,0-2.068,0.201-2.998,0.596c-0.936,0.393-1.736,0.934-2.414,1.623
				c-0.672,0.686-1.209,1.477-1.602,2.387c-0.397,0.902-0.59,1.881-0.59,2.918C134.573,121.297,134.766,122.258,135.163,123.162z
				 M137.366,118.236c0.251-0.619,0.608-1.168,1.059-1.641c0.46-0.473,1.012-0.838,1.647-1.107c0.642-0.27,1.339-0.404,2.104-0.404
				c0.738,0,1.426,0.135,2.062,0.404s1.183,0.635,1.637,1.107c0.466,0.473,0.827,1.021,1.098,1.641
				c0.264,0.625,0.397,1.309,0.397,2.041c0,0.715-0.134,1.381-0.397,2.012c-0.271,0.625-0.632,1.164-1.098,1.623
				c-0.454,0.455-1.001,0.82-1.637,1.086c-0.636,0.271-1.323,0.402-2.062,0.402c-0.766,0-1.463-0.131-2.104-0.402
				c-0.636-0.266-1.188-0.631-1.647-1.086c-0.45-0.459-0.808-0.998-1.059-1.623c-0.26-0.631-0.384-1.297-0.384-2.012
				C136.982,119.545,137.106,118.861,137.366,118.236z"/>
		</g>
		<g>
			<g>
				<rect x="75.32" y="139.725" fill="#563500" width="4.362" height="20.697"/>
				<path fill="#563500" d="M77.501,137.062c0.704,0,1.282-0.238,1.736-0.693c0.459-0.453,0.688-1.037,0.688-1.734
					c0-0.652-0.232-1.227-0.697-1.707c-0.465-0.473-1.045-0.719-1.727-0.719s-1.261,0.246-1.732,0.719
					c-0.458,0.48-0.697,1.055-0.697,1.707c0,0.697,0.239,1.281,0.688,1.732C76.22,136.824,76.804,137.062,77.501,137.062z"/>
			</g>
			<path fill="#563500" d="M101.112,141.627c-0.666-0.762-1.525-1.357-2.526-1.773c-1.001-0.424-2.19-0.631-3.54-0.631
				c-0.862,0-1.675,0.113-2.418,0.336c-0.751,0.227-1.427,0.529-2.02,0.9c-0.602,0.371-1.129,0.807-1.562,1.291
				c-0.035,0.041-0.078,0.082-0.113,0.125l-0.006-0.043c-0.025-0.521-0.036-1.037-0.036-1.562v-0.545h-4.189v0.545
				c0,0.664,0.024,1.398,0.085,2.178c0.053,0.76,0.08,1.592,0.08,2.475v15.5h4.36v-10.104c0-1.061,0.115-2.035,0.341-2.914
				c0.213-0.848,0.549-1.588,0.999-2.201c0.428-0.596,0.991-1.055,1.678-1.381c0.684-0.326,1.536-0.49,2.512-0.49
				c1.36,0,2.332,0.396,2.952,1.209c0.646,0.848,0.976,2.047,0.976,3.561v12.32h4.362V147.77c0-1.213-0.15-2.359-0.467-3.4
				C102.266,143.299,101.769,142.387,101.112,141.627z"/>
			<path fill="#563500" d="M123.138,141.627c-0.666-0.756-1.514-1.357-2.521-1.773c-1.003-0.424-2.197-0.631-3.546-0.631
				c-0.801,0-1.571,0.104-2.284,0.314c-0.713,0.207-1.363,0.477-1.943,0.803c-0.583,0.32-1.085,0.697-1.514,1.109
				c-0.025,0.027-0.053,0.051-0.078,0.078v-8.918h-4.354v27.812h4.354v-10.104c0-1.061,0.109-2.043,0.342-2.914
				c0.217-0.848,0.554-1.588,1.004-2.201c0.429-0.596,0.997-1.055,1.674-1.381c0.692-0.326,1.535-0.49,2.506-0.49
				c1.369,0,2.335,0.396,2.96,1.209c0.646,0.848,0.979,2.041,0.979,3.561v12.32h4.356V147.77c0-1.219-0.15-2.367-0.46-3.4
				C124.296,143.299,123.799,142.387,123.138,141.627z"/>
			<path fill="#563500" d="M69.182,142.127c-0.978-0.973-2.146-1.752-3.479-2.318c-1.344-0.576-2.797-0.859-4.336-0.859
				c-1.028,0-2.016,0.15-2.92,0.445c-0.899,0.299-1.71,0.666-2.402,1.109c-0.449,0.283-0.848,0.578-1.205,0.879v-2.102h-3.854
				l-0.55,0.088v29.594h4.403v-10.598c0.316,0.258,0.684,0.512,1.081,0.75c0.682,0.402,1.488,0.758,2.396,1.047
				c0.926,0.301,1.953,0.445,3.05,0.445c1.539,0,2.992-0.283,4.336-0.857c1.333-0.564,2.506-1.354,3.479-2.352
				c0.971-0.988,1.752-2.146,2.313-3.441c0.575-1.303,0.865-2.73,0.865-4.232c0-1.469-0.29-2.873-0.865-4.176
				C70.934,144.25,70.152,143.104,69.182,142.127z M61.367,156.309c-0.935,0-1.813-0.172-2.615-0.508
				c-0.807-0.336-1.499-0.807-2.077-1.396c-0.578-0.586-1.043-1.295-1.385-2.086c-0.331-0.785-0.501-1.658-0.501-2.594
				c0-0.9,0.17-1.752,0.501-2.537c0.342-0.791,0.807-1.482,1.379-2.059c0.58-0.572,1.276-1.037,2.083-1.373
				c0.802-0.336,1.681-0.514,2.615-0.514c0.972,0,1.871,0.178,2.677,0.508c0.801,0.342,1.504,0.807,2.084,1.379
				c0.566,0.576,1.021,1.268,1.342,2.053c0.321,0.785,0.486,1.637,0.486,2.543c0,0.939-0.165,1.814-0.486,2.598
				c-0.32,0.793-0.775,1.496-1.348,2.082c-0.578,0.59-1.282,1.061-2.078,1.396C63.238,156.137,62.339,156.309,61.367,156.309z"/>
			<path fill="#563500" d="M18.739,142.127c-0.978-0.973-2.149-1.752-3.479-2.318c-1.344-0.576-2.802-0.859-4.331-0.859
				c-1.034,0-2.015,0.15-2.924,0.445c-0.899,0.293-1.71,0.666-2.403,1.109c-0.449,0.283-0.859,0.578-1.21,0.879v-2.102H0.543
				L0,139.369v29.594h4.393v-10.598c0.316,0.258,0.688,0.512,1.091,0.75c0.677,0.402,1.478,0.758,2.393,1.047
				c0.924,0.301,1.958,0.445,3.053,0.445c1.529,0,2.987-0.283,4.331-0.857c1.329-0.564,2.506-1.354,3.479-2.352
				c0.971-0.988,1.747-2.146,2.314-3.441c0.568-1.303,0.858-2.73,0.858-4.232c0-1.463-0.29-2.873-0.858-4.182
				C20.486,144.246,19.705,143.1,18.739,142.127z M10.93,156.309c-0.935,0-1.818-0.172-2.625-0.508
				c-0.8-0.336-1.499-0.807-2.071-1.396c-0.579-0.592-1.045-1.295-1.385-2.086c-0.336-0.785-0.508-1.658-0.508-2.594
				c0-0.9,0.171-1.752,0.508-2.537c0.34-0.791,0.807-1.482,1.379-2.059c0.574-0.572,1.277-1.037,2.077-1.373
				c0.807-0.336,1.69-0.514,2.625-0.514c0.967,0,1.867,0.178,2.672,0.508c0.801,0.342,1.504,0.807,2.078,1.379
				c0.573,0.576,1.028,1.268,1.35,2.053c0.319,0.785,0.479,1.637,0.479,2.543c0,0.939-0.16,1.814-0.479,2.598
				c-0.321,0.793-0.776,1.496-1.354,2.082c-0.574,0.59-1.272,1.061-2.073,1.396C12.797,156.137,11.896,156.309,10.93,156.309z"/>
			<path fill="#563500" d="M41.436,141.197c-0.31-0.264-0.684-0.518-1.086-0.75c-0.677-0.412-1.487-0.764-2.393-1.053
				c-0.93-0.295-1.952-0.445-3.054-0.445c-1.535,0-2.986,0.283-4.33,0.863c-1.338,0.562-2.506,1.348-3.483,2.346
				c-0.967,0.988-1.742,2.145-2.31,3.438c-0.57,1.309-0.864,2.734-0.864,4.232c0,1.473,0.294,2.877,0.864,4.182
				c0.567,1.297,1.343,2.449,2.32,3.42c0.972,0.971,2.135,1.756,3.473,2.32c1.344,0.574,2.795,0.857,4.33,0.857
				c1.028,0,2.021-0.145,2.927-0.445c0.892-0.293,1.703-0.664,2.4-1.111c0.45-0.283,0.848-0.578,1.205-0.879v2.111h3.855
				l0.547-0.096v-20.623h-4.402V141.197z M28.319,149.828c0-0.936,0.16-1.811,0.481-2.596c0.324-0.783,0.78-1.486,1.354-2.08
				c0.578-0.59,1.276-1.061,2.077-1.396c0.807-0.336,1.702-0.514,2.672-0.514c0.936,0,1.819,0.178,2.62,0.514
				c0.807,0.336,1.499,0.807,2.077,1.396c0.578,0.594,1.044,1.299,1.386,2.09c0.336,0.781,0.506,1.654,0.506,2.586
				c0,0.904-0.17,1.752-0.506,2.541c-0.342,0.787-0.801,1.48-1.381,2.062c-0.573,0.568-1.275,1.033-2.082,1.369
				c-0.801,0.336-1.685,0.512-2.62,0.512c-0.97,0-1.865-0.176-2.672-0.512c-0.801-0.336-1.499-0.801-2.083-1.369
				c-0.567-0.574-1.023-1.266-1.348-2.051C28.479,151.584,28.319,150.732,28.319,149.828z"/>
			<path fill="#563500" d="M145.602,139.564v1.633c-0.32-0.264-0.682-0.518-1.084-0.75c-0.683-0.412-1.489-0.764-2.398-1.053
				c-0.926-0.295-1.949-0.445-3.05-0.445c-1.529,0-2.986,0.283-4.33,0.863c-1.338,0.562-2.511,1.348-3.482,2.346
				c-0.967,0.988-1.752,2.145-2.32,3.441c-0.563,1.307-0.854,2.73-0.854,4.229c0,1.473,0.29,2.873,0.854,4.182
				c0.568,1.297,1.354,2.449,2.324,3.42c0.968,0.971,2.145,1.756,3.479,2.32c1.344,0.574,2.801,0.857,4.33,0.857
				c1.035,0,2.016-0.145,2.92-0.445c0.905-0.299,1.716-0.664,2.402-1.111c0.451-0.283,0.855-0.572,1.21-0.879v2.111h3.849
				l0.55-0.096v-20.623H145.602z M132.481,149.828c0-0.936,0.165-1.811,0.486-2.596c0.32-0.783,0.779-1.486,1.353-2.08
				c0.573-0.59,1.272-1.061,2.072-1.396c0.811-0.336,1.706-0.514,2.677-0.514c0.936,0,1.813,0.178,2.62,0.514
				c0.802,0.336,1.499,0.807,2.077,1.396c0.575,0.594,1.041,1.299,1.381,2.09c0.335,0.781,0.506,1.654,0.506,2.586
				c0,0.904-0.171,1.752-0.506,2.541c-0.34,0.787-0.802,1.48-1.381,2.062c-0.572,0.568-1.275,1.033-2.077,1.369
				c-0.807,0.336-1.685,0.512-2.62,0.512c-0.966,0-1.866-0.176-2.677-0.512c-0.8-0.336-1.499-0.801-2.072-1.369
				c-0.579-0.574-1.032-1.266-1.353-2.051C132.646,151.584,132.481,150.732,132.481,149.828z"/>
		</g>
	</g>
	<polygon fill="#603A17" points="77.595,6.558 77.626,6.542 77.595,6.553 	"/>
	<g>
		<path fill="#6CB33F" d="M76.556,0c-1.303,0.526-2.236,1.869-2.236,3.457c0,1.581,0.934,2.92,2.236,3.457
			c1.303-0.536,2.233-1.876,2.233-3.457C78.789,1.869,77.858,0.526,76.556,0z"/>
		<path fill="#6CB33F" d="M69.118,7.441c0.527-1.309,1.872-2.237,3.453-2.237c1.586,0,2.925,0.929,3.458,2.237
			c-0.533,1.302-1.878,2.232-3.458,2.232C70.99,9.673,69.646,8.743,69.118,7.441z"/>
	</g>
	<path fill="#ED3029" d="M89.407,7.498c3.572,3.575,3.572,9.369,0,12.939c-3.569,3.57-9.363,3.57-12.934,0
		c-3.581-3.57-3.572-9.364,0-12.934C80.044,3.932,85.838,3.927,89.407,7.498z"/>
	<path fill="#563500" d="M113.474,18.535c-3.261-8.423-11.136-14.52-20.118-15.538c-0.93-0.108-1.865-0.16-2.812-0.16
		c-3.967,0-7.703,0.964-11.016,2.645c3.291-1.328,7.209-0.657,9.879,2.016c0.177,0.176,0.332,0.362,0.491,0.547
		c2.832,0.3,5.592,1.369,7.885,3.235c5.376,4.356,7.133,12.036,4.125,18.284h-0.004c-3.787,7.771-12.707,12.303-20.702,14.319
		c-2.409,0.609-13.221,2.692-13.855,2.925c-8.16,2.133-14.254,9.354-14.666,18.082c-0.021,0.195,0.03,2.826,0.148,3.674
		c0.569,7.406,2.156,27.781,2.156,27.781h5.53c0-7.941,6.443-14.381,14.387-14.381c7.942,0,14.388,6.439,14.388,14.381h5.658
		c-0.486-7.957-0.254-16.135,1.014-24.008c1.544-9.635,8.18-17.498,12.908-25.752C113.759,38.043,117.231,28.21,113.474,18.535z
		 M88.86,51.33c-2.232,0-2.238-3.472,0-3.472C91.098,47.858,91.098,51.33,88.86,51.33z"/>
</g>
</svg>
