<?xml version="1.0" encoding="utf-8"?>
<!-- Generator: Adobe Illustrator 16.0.0, SVG Export Plug-In . SVG Version: 6.00 Build 0)  -->
<!DOCTYPE svg PUBLIC "-//W3C//DTD SVG 1.1//EN" "http://www.w3.org/Graphics/SVG/1.1/DTD/svg11.dtd">
<svg version="1.1" id="Layer_1" xmlns="http://www.w3.org/2000/svg" xmlns:xlink="http://www.w3.org/1999/xlink" x="0px" y="0px"
	 width="142.001px" height="67.173px" viewBox="0 0 142.001 67.173" enable-background="new 0 0 142.001 67.173"
	 xml:space="preserve">
<g>
	<path fill-rule="evenodd" clip-rule="evenodd" fill="#FFFFFF" d="M1.988,20.193C-0.54,29.137,1.835,39.674,12.285,48.21
		l-0.332,0.406l0.393,0.354l-3.254,3.633c-0.502,0.656-0.818,1.409-0.91,2.168c-0.104,0.798,0.039,1.604,0.453,2.304
		c0.422,0.715,1.137,1.331,2.176,1.757c1.199,0.484,2.824,0.705,4.934,0.508l4.781-5.028c0.186-0.196,0.494-0.226,0.711-0.049
		l0.109,0.083c9.932,7.91,21.918,11.928,33.178,11.771c11.211-0.156,21.703-4.462,28.703-13.194l0.021-0.029l0.053-0.063h0.002
		c0.098-0.122,0.244-0.194,0.41-0.194h50.92c1.92-0.191,3.471-0.805,4.551-1.904c1.008-1.032,1.623-2.51,1.76-4.511V23.427
		c-0.551-4.477-2.172-7.769-4.625-10.115c-2.467-2.354-5.793-3.783-9.766-4.521H45.5V8.786c-0.123,0-0.248-0.039-0.346-0.128
		C35.271-0.005,24.541-0.54,16.15,3.458c-3.41,1.619-6.438,3.992-8.869,6.859C4.849,13.19,3.015,16.56,1.988,20.193L1.988,20.193z"
		/>
	<g>
		<path fill-rule="evenodd" clip-rule="evenodd" fill="#231F20" d="M11.195,48.675L8.308,51.9c-0.021,0.019-0.037,0.039-0.055,0.054
			c-0.617,0.808-1.008,1.746-1.125,2.69c-0.127,1.018,0.059,2.055,0.6,2.97c0.535,0.905,1.416,1.682,2.686,2.196
			c1.379,0.557,3.232,0.807,5.615,0.557c0.125-0.01,0.248-0.062,0.342-0.161l4.588-4.817c10.07,7.914,22.186,11.94,33.576,11.78
			c11.469-0.163,22.217-4.561,29.428-13.483h50.684c0.023,0,0.045,0,0.066,0c2.178-0.216,3.953-0.924,5.221-2.217
			c1.189-1.212,1.91-2.915,2.062-5.176c0-0.023,0.006-0.049,0.006-0.068v-22.83H142l-0.004-0.063
			c-0.582-4.746-2.311-8.258-4.951-10.782c-2.625-2.511-6.139-4.021-10.312-4.795c-0.047-0.014-0.094-0.02-0.143-0.02H45.693
			C35.482-1.125,24.396-1.639,15.695,2.504C12.15,4.193,9.003,6.653,6.478,9.637c-2.529,2.984-4.436,6.492-5.508,10.273
			C-1.625,29.098,0.728,39.889,11.195,48.675L11.195,48.675z M1.988,20.193C-0.54,29.137,1.835,39.674,12.285,48.21l-0.332,0.406
			l0.393,0.354l-3.254,3.633c-0.502,0.656-0.818,1.409-0.91,2.168c-0.104,0.798,0.039,1.604,0.453,2.304
			c0.422,0.715,1.137,1.331,2.176,1.757c1.199,0.484,2.824,0.705,4.934,0.508l4.781-5.028c0.186-0.196,0.494-0.226,0.711-0.049
			l0.109,0.083c9.932,7.91,21.918,11.928,33.178,11.771c11.211-0.156,21.703-4.462,28.703-13.194l0.021-0.029l0.053-0.063h0.002
			c0.098-0.122,0.244-0.194,0.41-0.194h50.92c1.92-0.191,3.471-0.805,4.551-1.904c1.008-1.032,1.623-2.51,1.76-4.511V23.427
			c-0.551-4.477-2.172-7.769-4.625-10.115c-2.467-2.354-5.793-3.783-9.766-4.521H45.5V8.786c-0.123,0-0.248-0.039-0.346-0.128
			C35.271-0.005,24.541-0.54,16.15,3.458c-3.41,1.619-6.438,3.992-8.869,6.859C4.849,13.19,3.015,16.56,1.988,20.193L1.988,20.193z
			 M90.496,47.242v-8.164h4.205c0.953,0,1.639,0.215,2.051,0.641c0.414,0.43,0.621,0.915,0.621,1.448c0,0.508-0.105,0.88-0.314,1.12
			c-0.207,0.234-0.459,0.421-0.748,0.554c0.893,0.316,1.338,0.983,1.338,1.985c0,0.318-0.066,0.625-0.197,0.92
			c-0.135,0.293-0.318,0.547-0.547,0.757c-0.199,0.183-0.395,0.319-0.586,0.422c-0.193,0.103-0.463,0.182-0.811,0.239
			c-0.342,0.055-0.791,0.078-1.346,0.078H90.496L90.496,47.242z M92.232,43.651h2.307c0.363,0,0.67,0.084,0.926,0.244
			c0.25,0.163,0.377,0.412,0.377,0.745c0,0.41-0.123,0.713-0.357,0.905c-0.236,0.19-0.58,0.288-1.035,0.288h-2.217V43.651
			L92.232,43.651z M92.232,40.492h2.078c0.436,0,0.768,0.063,0.988,0.194c0.227,0.133,0.338,0.358,0.338,0.681
			c0,0.201-0.061,0.373-0.172,0.514c-0.109,0.137-0.26,0.234-0.451,0.299c-0.189,0.063-0.41,0.097-0.66,0.097h-2.121V40.492
			L92.232,40.492z M99.509,47.242v-8.164h4.381c0.541,0,0.996,0.083,1.359,0.25c0.365,0.16,0.643,0.361,0.84,0.605
			c0.193,0.24,0.33,0.489,0.406,0.739c0.084,0.255,0.123,0.488,0.123,0.715c0,0.298-0.055,0.576-0.158,0.841
			c-0.102,0.259-0.258,0.488-0.461,0.679c-0.199,0.192-0.443,0.334-0.721,0.421c0.209,0.084,0.375,0.173,0.502,0.26
			c0.127,0.088,0.234,0.197,0.322,0.333c0.088,0.142,0.158,0.327,0.205,0.562c0.047,0.236,0.068,0.539,0.068,0.921
			c0,0.357,0.002,0.621,0.006,0.788c0.006,0.17,0.021,0.308,0.045,0.425c0.02,0.117,0.059,0.206,0.107,0.27
			c0.055,0.063,0.127,0.107,0.223,0.142v0.215h-1.998c-0.131-0.405-0.195-0.953-0.195-1.647c0-0.427-0.025-0.745-0.078-0.944
			c-0.055-0.195-0.178-0.348-0.379-0.446c-0.195-0.103-0.516-0.152-0.955-0.152h-1.865v3.19H99.509L99.509,47.242z M101.287,42.673
			v-2.182h2.256c0.467,0,0.795,0.106,0.984,0.322c0.188,0.215,0.281,0.464,0.281,0.744c0,0.264-0.053,0.469-0.154,0.64
			c-0.104,0.161-0.256,0.284-0.459,0.362c-0.205,0.079-0.469,0.113-0.791,0.113H101.287L101.287,42.673z M110.357,45.559l-0.6,1.683
			h-1.906l3.086-8.164h2.09l3.055,8.164h-1.969l-0.553-1.683H110.357L110.357,45.559z M111.949,40.917h0.025l1.076,3.232h-2.207
			L111.949,40.917L111.949,40.917z M117.095,44.727h1.738c0.01,0.201,0.059,0.396,0.15,0.597c0.1,0.197,0.279,0.368,0.551,0.51
			c0.27,0.146,0.648,0.216,1.133,0.216c0.508,0,0.939-0.073,1.287-0.229c0.348-0.158,0.518-0.437,0.518-0.832
			c0-0.284-0.123-0.495-0.365-0.632c-0.246-0.133-0.646-0.26-1.199-0.377l-0.93-0.205c-0.615-0.132-1.102-0.264-1.469-0.406
			c-0.361-0.142-0.664-0.366-0.912-0.685c-0.248-0.313-0.373-0.749-0.373-1.311c0-0.373,0.092-0.75,0.273-1.125
			c0.184-0.377,0.525-0.705,1.027-0.975c0.498-0.273,1.176-0.411,2.035-0.411c0.635,0,1.17,0.088,1.604,0.255
			c0.436,0.166,0.781,0.387,1.037,0.65c0.262,0.27,0.443,0.553,0.561,0.861c0.115,0.304,0.174,0.597,0.174,0.871h-1.738
			c-0.037-0.314-0.174-0.603-0.406-0.853c-0.232-0.249-0.686-0.371-1.367-0.371c-0.246,0-0.484,0.029-0.715,0.094
			c-0.23,0.063-0.42,0.166-0.57,0.316c-0.148,0.147-0.223,0.339-0.223,0.568c0,0.272,0.09,0.47,0.26,0.587
			c0.174,0.117,0.393,0.205,0.662,0.259l2.107,0.49c0.709,0.167,1.266,0.405,1.664,0.723c0.4,0.319,0.604,0.809,0.604,1.474
			c0,0.738-0.211,1.307-0.629,1.707c-0.42,0.396-0.887,0.654-1.395,0.782c-0.508,0.122-0.973,0.186-1.389,0.186
			c-0.746,0-1.369-0.092-1.865-0.269c-0.496-0.176-0.875-0.4-1.141-0.68c-0.262-0.278-0.445-0.571-0.547-0.88
			C117.144,45.324,117.095,45.025,117.095,44.727L117.095,44.727z M127.554,39.078v8.164h-1.809v-8.164H127.554L127.554,39.078z
			 M131.357,39.078v6.687h4.307v1.478h-6.117v-8.164H131.357L131.357,39.078z M47.421,16.671v1.609h-0.949v-4.456h2.072
			c0.221,0,0.422,0.029,0.592,0.098c0.172,0.059,0.318,0.156,0.441,0.279c0.121,0.128,0.217,0.278,0.283,0.46
			c0.064,0.176,0.098,0.376,0.098,0.587c0,0.132-0.023,0.274-0.064,0.426c-0.041,0.156-0.115,0.312-0.221,0.464
			c-0.107,0.157-0.256,0.284-0.449,0.388c-0.188,0.097-0.426,0.146-0.717,0.146H47.421L47.421,16.671z M47.421,15.904v-1.311h0.75
			c0.297,0,0.51,0.048,0.641,0.142c0.129,0.103,0.197,0.255,0.197,0.475c0,0.181-0.043,0.342-0.125,0.479
			c-0.08,0.143-0.277,0.216-0.584,0.216H47.421L47.421,15.904z M50.693,18.281v-4.456h2.293c0.285,0,0.523,0.044,0.713,0.133
			c0.193,0.088,0.34,0.2,0.439,0.331c0.102,0.133,0.174,0.266,0.215,0.402c0.039,0.141,0.062,0.269,0.062,0.391
			c0,0.162-0.027,0.313-0.084,0.461c-0.053,0.142-0.133,0.264-0.24,0.371c-0.107,0.103-0.23,0.182-0.377,0.23
			c0.107,0.044,0.195,0.092,0.266,0.142c0.066,0.044,0.121,0.108,0.166,0.181c0.049,0.078,0.084,0.176,0.107,0.309
			c0.025,0.127,0.033,0.293,0.033,0.5c0,0.195,0.004,0.342,0.006,0.429c0.006,0.094,0.012,0.172,0.021,0.235
			c0.012,0.063,0.033,0.107,0.057,0.146c0.029,0.033,0.068,0.059,0.119,0.078v0.117h-1.049c-0.066-0.22-0.102-0.522-0.102-0.905
			c0-0.229-0.012-0.4-0.043-0.509c-0.025-0.112-0.094-0.19-0.195-0.248c-0.105-0.054-0.271-0.078-0.5-0.078h-0.979v1.74H50.693
			L50.693,18.281z M51.623,15.787v-1.193h1.18c0.248,0,0.42,0.059,0.516,0.176c0.1,0.117,0.148,0.254,0.148,0.405
			c0,0.143-0.025,0.261-0.078,0.349c-0.053,0.092-0.135,0.156-0.244,0.2c-0.104,0.039-0.242,0.063-0.412,0.063H51.623L51.623,15.787
			z M54.925,16.05c0-0.631,0.129-1.125,0.385-1.472c0.258-0.348,0.553-0.583,0.879-0.7c0.328-0.117,0.635-0.177,0.922-0.177
			c0.201,0,0.416,0.03,0.648,0.088c0.23,0.055,0.467,0.161,0.705,0.323c0.232,0.168,0.432,0.406,0.588,0.725
			c0.16,0.322,0.238,0.725,0.238,1.213c0,0.49-0.078,0.891-0.232,1.209c-0.162,0.318-0.357,0.557-0.592,0.724
			c-0.236,0.161-0.471,0.269-0.705,0.328c-0.234,0.058-0.449,0.088-0.65,0.088c-0.287,0-0.594-0.059-0.922-0.176
			c-0.326-0.118-0.621-0.348-0.879-0.699C55.054,17.175,54.925,16.681,54.925,16.05L54.925,16.05z M55.875,16.05
			c0-0.293,0.039-0.543,0.115-0.749c0.076-0.21,0.176-0.371,0.299-0.488s0.254-0.2,0.393-0.25c0.143-0.049,0.285-0.073,0.43-0.073
			s0.287,0.029,0.43,0.078c0.143,0.05,0.273,0.133,0.396,0.245c0.119,0.112,0.219,0.274,0.293,0.479s0.113,0.455,0.113,0.758
			c0,0.387-0.064,0.695-0.188,0.929c-0.125,0.231-0.281,0.393-0.469,0.491c-0.186,0.093-0.375,0.141-0.576,0.141
			c-0.322,0-0.607-0.122-0.859-0.361C56,17.004,55.875,16.608,55.875,16.05L55.875,16.05z M60.05,18.281v-4.456h2.004
			c0.473,0,0.842,0.108,1.119,0.328c0.277,0.221,0.465,0.488,0.57,0.807c0.104,0.317,0.156,0.646,0.156,0.983
			c0,0.264-0.027,0.528-0.088,0.797c-0.061,0.265-0.162,0.52-0.309,0.754c-0.141,0.234-0.336,0.425-0.586,0.567
			c-0.248,0.146-0.549,0.22-0.9,0.22H60.05L60.05,18.281z M60.98,14.593h0.91c0.176,0,0.338,0.029,0.488,0.092
			c0.152,0.059,0.283,0.196,0.393,0.411c0.107,0.211,0.16,0.519,0.16,0.915c0,0.42-0.078,0.773-0.244,1.062
			c-0.166,0.294-0.426,0.436-0.785,0.436H60.98V14.593L60.98,14.593z M68.251,13.825v2.896c0,0.572-0.164,0.994-0.486,1.268
			c-0.326,0.274-0.787,0.411-1.381,0.411c-0.258,0-0.516-0.04-0.773-0.122c-0.258-0.078-0.48-0.216-0.664-0.416
			c-0.082-0.092-0.15-0.191-0.201-0.303c-0.049-0.113-0.088-0.23-0.111-0.354c-0.025-0.128-0.041-0.268-0.045-0.43v-2.95h0.975
			v2.891c0,0.289,0.072,0.514,0.227,0.666c0.15,0.152,0.346,0.229,0.58,0.229c0.607,0,0.912-0.283,0.912-0.856v-2.93H68.251
			L68.251,13.825z M71.111,14.613v3.668h-0.949v-3.668h-1.369v-0.788h3.693v0.788H71.111L71.111,14.613z M72.589,16.05
			c0-0.631,0.129-1.125,0.387-1.472c0.254-0.348,0.547-0.583,0.875-0.7c0.33-0.117,0.635-0.177,0.922-0.177
			c0.199,0,0.416,0.03,0.648,0.088c0.234,0.055,0.467,0.161,0.705,0.323c0.234,0.168,0.434,0.406,0.592,0.725
			c0.154,0.322,0.234,0.725,0.234,1.213c0,0.49-0.08,0.891-0.234,1.209c-0.158,0.318-0.355,0.557-0.588,0.724
			c-0.238,0.161-0.473,0.269-0.707,0.328c-0.234,0.058-0.451,0.088-0.65,0.088c-0.287,0-0.592-0.059-0.922-0.176
			c-0.328-0.118-0.621-0.348-0.875-0.699C72.718,17.175,72.589,16.681,72.589,16.05L72.589,16.05z M73.537,16.05
			c0-0.293,0.039-0.543,0.113-0.749c0.078-0.21,0.178-0.371,0.299-0.488s0.256-0.2,0.396-0.25c0.141-0.049,0.283-0.073,0.428-0.073
			s0.289,0.029,0.434,0.078c0.141,0.05,0.273,0.133,0.395,0.245c0.117,0.112,0.217,0.274,0.293,0.479s0.111,0.455,0.111,0.758
			c0,0.387-0.062,0.695-0.188,0.929c-0.129,0.231-0.281,0.393-0.465,0.491c-0.189,0.093-0.381,0.141-0.58,0.141
			c-0.32,0-0.607-0.122-0.859-0.361C73.666,17.004,73.537,16.608,73.537,16.05L73.537,16.05z M46.74,34.851v-14.03h7.223
			c0.893,0,1.643,0.142,2.242,0.421c0.602,0.277,1.066,0.626,1.385,1.046c0.32,0.415,0.547,0.843,0.676,1.271
			c0.129,0.437,0.195,0.842,0.195,1.224c0,0.514-0.086,0.998-0.26,1.443c-0.168,0.45-0.422,0.842-0.756,1.175
			c-0.334,0.327-0.732,0.571-1.191,0.724c0.344,0.146,0.623,0.294,0.832,0.44c0.211,0.151,0.387,0.347,0.533,0.575
			c0.146,0.241,0.258,0.56,0.33,0.965c0.078,0.401,0.113,0.93,0.113,1.576c0,0.621,0.002,1.07,0.014,1.36
			c0.012,0.292,0.033,0.532,0.072,0.728c0.031,0.201,0.096,0.353,0.18,0.465c0.088,0.104,0.209,0.187,0.363,0.244v0.373h-3.293
			c-0.215-0.7-0.32-1.645-0.32-2.834c0-0.738-0.043-1.275-0.135-1.623c-0.086-0.342-0.291-0.602-0.619-0.772s-0.854-0.26-1.578-0.26
			h-3.082v5.489H46.74L46.74,34.851z M49.664,26.994v-3.752h3.725c0.777,0,1.314,0.186,1.627,0.558
			c0.307,0.372,0.461,0.798,0.461,1.282c0,0.444-0.082,0.812-0.254,1.095c-0.168,0.29-0.422,0.495-0.758,0.621
			c-0.338,0.133-0.771,0.196-1.303,0.196H49.664L49.664,26.994z M67.326,29.65v-2.366h5.969v7.567h-1.992l-0.293-1.762
			c-0.285,0.328-0.539,0.597-0.77,0.808c-0.227,0.22-0.51,0.426-0.852,0.626c-0.342,0.205-0.746,0.372-1.211,0.504
			c-0.471,0.133-1.02,0.195-1.629,0.195c-0.877,0-1.709-0.156-2.49-0.465c-0.787-0.307-1.484-0.767-2.1-1.39
			c-0.617-0.616-1.104-1.385-1.453-2.318c-0.355-0.925-0.533-1.985-0.533-3.175c0-0.992,0.143-1.927,0.42-2.808
			c0.279-0.876,0.711-1.668,1.293-2.368c0.584-0.705,1.314-1.258,2.195-1.653c0.887-0.396,1.908-0.597,3.086-0.597
			c1.359,0,2.504,0.244,3.43,0.738c0.928,0.489,1.621,1.091,2.07,1.815c0.455,0.719,0.709,1.448,0.768,2.172h-2.982
			c0-0.216-0.123-0.514-0.373-0.891c-0.254-0.377-0.611-0.704-1.082-0.988c-0.469-0.277-1.029-0.421-1.674-0.421
			c-0.746,0-1.428,0.172-2.053,0.529c-0.621,0.352-1.117,0.904-1.492,1.663c-0.371,0.757-0.557,1.706-0.557,2.847
			c0,0.91,0.117,1.679,0.346,2.319c0.236,0.636,0.553,1.13,0.949,1.491c0.398,0.367,0.84,0.627,1.328,0.778
			c0.484,0.161,0.998,0.24,1.537,0.24c0.342,0,0.74-0.074,1.189-0.221c0.447-0.147,0.896-0.45,1.342-0.91
			c0.443-0.46,0.758-1.116,0.934-1.962H67.326L67.326,29.65z M78.626,31.958l-0.99,2.893h-3.15l5.094-14.03h3.451l5.037,14.03h-3.25
			l-0.914-2.893H78.626L78.626,31.958z M81.251,23.981h0.039l1.779,5.552h-3.646L81.251,23.981L81.251,23.981z M82.523,16.554
			l2.266,2.856h-2.246l-1.275-1.603l-1.258,1.603h-2.25l2.27-2.856H82.523L82.523,16.554z M98.203,30.594v-9.773h2.789v14.03h-2.994
			l-5.832-10.009h-0.039v10.009h-2.791v-14.03h3.152l5.674,9.773H98.203L98.203,30.594z M106.103,20.821v14.03h-2.988v-14.03
			H106.103L106.103,20.821z M120.498,25.414h-2.984c-0.188-0.68-0.496-1.257-0.922-1.723c-0.424-0.469-1.172-0.704-2.248-0.704
			c-0.916,0-1.742,0.378-2.461,1.122c-0.723,0.746-1.084,2.01-1.084,3.785c0,0.866,0.125,1.663,0.375,2.392
			c0.248,0.734,0.635,1.312,1.164,1.747c0.527,0.436,1.197,0.646,2.006,0.646c0.83,0,1.525-0.226,2.078-0.681
			c0.553-0.454,0.914-1.109,1.092-1.956h2.984c-0.211,1.051-0.582,1.961-1.105,2.729c-0.52,0.769-1.211,1.371-2.078,1.801
			c-0.869,0.436-1.877,0.65-3.031,0.65c-1.283,0-2.414-0.283-3.393-0.842c-0.984-0.562-1.752-1.398-2.305-2.508
			c-0.555-1.111-0.836-2.451-0.836-4.018c0-1.179,0.168-2.235,0.498-3.18c0.33-0.939,0.797-1.723,1.393-2.349
			c0.604-0.631,1.297-1.101,2.088-1.409c0.789-0.312,1.658-0.469,2.594-0.469c1.021,0,1.92,0.151,2.701,0.464
			c0.777,0.309,1.416,0.71,1.902,1.2c0.496,0.497,0.867,1.031,1.127,1.6C120.31,24.284,120.458,24.851,120.498,25.414
			L120.498,25.414z M121.63,27.834c0-1.995,0.404-3.536,1.211-4.632c0.807-1.101,1.73-1.83,2.76-2.196
			c1.033-0.372,2.002-0.558,2.904-0.558c0.625,0,1.311,0.088,2.039,0.265c0.734,0.171,1.471,0.518,2.213,1.03
			c0.744,0.51,1.365,1.274,1.861,2.276c0.5,1.013,0.75,2.285,0.75,3.814c0,1.531-0.25,2.799-0.742,3.802
			c-0.496,1.008-1.115,1.762-1.857,2.271c-0.742,0.513-1.48,0.859-2.217,1.041c-0.736,0.18-1.422,0.273-2.047,0.273
			c-0.902,0-1.871-0.186-2.904-0.553c-1.029-0.371-1.953-1.105-2.76-2.201S121.63,29.828,121.63,27.834L121.63,27.834z
			 M124.617,27.834c0-0.924,0.121-1.707,0.357-2.361c0.242-0.651,0.557-1.161,0.939-1.532c0.385-0.367,0.799-0.631,1.246-0.782
			c0.443-0.151,0.891-0.229,1.346-0.229s0.904,0.084,1.359,0.234c0.445,0.162,0.861,0.416,1.242,0.773
			c0.379,0.357,0.684,0.865,0.922,1.512c0.236,0.646,0.355,1.442,0.355,2.386c0,1.209-0.201,2.183-0.596,2.911
			c-0.395,0.738-0.883,1.253-1.463,1.551c-0.586,0.295-1.195,0.446-1.82,0.446c-1.014,0-1.91-0.382-2.705-1.14
			C125.011,30.849,124.617,29.592,124.617,27.834L124.617,27.834z M15.957,26.861c0-4.103,0.834-7.288,2.498-9.553
			c1.66-2.261,3.561-3.773,5.689-4.53c2.135-0.763,4.123-1.145,5.984-1.145c1.293,0,2.703,0.18,4.209,0.542
			c1.51,0.357,3.029,1.067,4.561,2.124c1.533,1.058,2.812,2.627,3.836,4.701c1.033,2.084,1.551,4.701,1.551,7.86
			c0,3.161-0.518,5.774-1.533,7.843c-0.186,0.372-0.375,0.724-0.576,1.062c-2.445,0.681-4.926,1.448-7.426,2.323
			c-3.037,1.062-5.951,2.223-8.715,3.445c-0.619-0.157-1.248-0.353-1.891-0.579c-2.129-0.761-4.029-2.273-5.689-4.533
			C16.791,34.156,15.957,30.971,15.957,26.861L15.957,26.861z M22.113,26.861c0-1.902,0.246-3.521,0.738-4.86
			c0.5-1.356,1.141-2.403,1.939-3.167c0.791-0.763,1.648-1.297,2.561-1.608c0.916-0.319,1.84-0.474,2.777-0.474
			s1.865,0.16,2.799,0.483c0.922,0.323,1.779,0.851,2.564,1.59c0.779,0.744,1.418,1.78,1.9,3.112
			c0.488,1.329,0.732,2.973,0.732,4.924c0,2.496-0.41,4.502-1.223,6.009c-0.814,1.521-1.818,2.583-3.023,3.194
			c-1.203,0.611-2.457,0.915-3.75,0.915c-2.088,0-3.941-0.783-5.574-2.349C22.925,33.076,22.113,30.482,22.113,26.861z"/>
		<path fill-rule="evenodd" clip-rule="evenodd" fill="#00A651" d="M26.457,3.595c7.854,0,14.764,4.037,18.811,10.152
			c-3.645-4.429-9.164-7.252-15.344-7.252c-10.969,0-19.861,8.895-19.861,19.862c0,8.032,4.768,14.945,11.621,18.075l-3.777,2.878
			C9.677,43.92,3.882,35.791,3.882,26.294C3.882,13.761,13.988,3.595,26.457,3.595L26.457,3.595z M68.341,50.637
			c-11.959-7.901-23.779-10.132-40.4-4.05c-6.719-0.808-5.041,4.687-2.795,2.724C40.324,42.261,54.468,43.525,68.341,50.637
			L68.341,50.637z M26.078,53.539c12.736,10.342,43.236,17.588,58.645-9.456c-3.219,1.804-6.537,2.348-10.092,0.121
			C45.785,28.99,25.552,40.858,12.207,55.68c0.547,0.085,1.092,0.168,1.639,0.255C17.757,49.84,21.83,48.871,26.078,53.539z"/>
	</g>
</g>
</svg>
