<?xml version="1.0" encoding="utf-8"?>
<!-- Generator: Adobe Illustrator 16.0.0, SVG Export Plug-In . SVG Version: 6.00 Build 0)  -->
<!DOCTYPE svg PUBLIC "-//W3C//DTD SVG 1.1//EN" "http://www.w3.org/Graphics/SVG/1.1/DTD/svg11.dtd">
<svg version="1.1" id="Layer_1" xmlns="http://www.w3.org/2000/svg" xmlns:xlink="http://www.w3.org/1999/xlink" x="0px" y="0px"
	 width="541.139px" height="86.133px" viewBox="0 0 541.139 86.133" enable-background="new 0 0 541.139 86.133"
	 xml:space="preserve">
<g>
	<polygon fill="#F8D44C" points="495.466,86.133 45.346,86.133 70.931,42.985 45.346,0 495.466,0 467.298,42.985 	"/>
	<g>
		<path fill="#9DD8D7" d="M45.435,8.495C43.701,3.56,39.05,0,33.524,0c-6.999,0-12.668,5.673-12.668,12.671
			c0,1.277,0.246,2.486,0.596,3.646L0,32.132c0,0,15.283,19.705,35.797,8.445C55.356,29.837,47.062,12.681,45.435,8.495z"/>
		<polygon fill="#F7941E" points="46.827,0 45.844,3.56 44.86,7.12 42.271,4.486 39.68,1.856 43.255,0.93 		"/>
		<path fill="#F7941E" d="M7.007,19.193l27.311,1.876c0,0-0.229,15.309-13.989,14.315C6.567,34.396,7.007,19.193,7.007,19.193z"/>
		<path fill="#FFFFFF" d="M31.757,10.125c0-1.186,0.96-2.146,2.149-2.146c1.186,0,2.147,0.96,2.147,2.146h1.306
			c0-1.91-1.547-3.454-3.456-3.454c-1.907,0-3.451,1.544-3.454,3.454H31.757z"/>
	</g>
	<g>
		<path fill="#FDD1B0" d="M495.702,8.495C497.438,3.56,502.086,0,507.616,0c6.998,0,12.67,5.673,12.67,12.671
			c0,1.277-0.249,2.486-0.597,3.646l21.449,15.815c0,0-15.281,19.705-35.8,8.445C485.78,29.837,494.074,12.681,495.702,8.495z"/>
		<polygon fill="#F7941E" points="494.312,0 495.296,3.56 496.276,7.12 498.868,4.486 501.456,1.856 497.884,0.93 		"/>
		<path fill="#F7941E" d="M534.13,19.193l-27.309,1.876c0,0,0.229,15.309,13.988,14.315C534.569,34.396,534.13,19.193,534.13,19.193
			z"/>
		<path fill="#FFFFFF" d="M509.384,10.125c0-1.186-0.963-2.146-2.152-2.146c-1.188,0-2.146,0.96-2.146,2.146h-1.306
			c0-1.91,1.545-3.454,3.457-3.454c1.904,0,3.45,1.544,3.451,3.454H509.384z"/>
	</g>
	<g>
		<path fill="#563500" d="M105.124,17.972c0.426,0,1.473,2.855,3.139,8.566c0.234,1.301,1.189,4.505,2.866,9.616h-0.503v-0.213
			c-0.233-4.938-0.351-7.712-0.351-8.321c0-0.184,0.025-0.803,0.076-1.859c-0.01-0.112-0.015-0.355-0.015-0.732
			c0.081-0.802,0.122-1.438,0.122-1.904v-4.345c0.051-0.427,0.325-0.64,0.823-0.64l0.641,0.335
			c-0.122,2.409-0.184,4.191-0.184,5.351v1.722c0,3.536,0.112,8.154,0.336,13.854l-0.61,0.305c-0.508,0-2.108-4.583-4.801-13.748
			l-1.6-5.455l0.563,0.913l0.046-0.884c0.071,0.844,0.106,1.515,0.106,2.013l0.015,0.518c-0.081,2.256-0.122,3.836-0.122,4.74
			c0,4.542,0.183,8.393,0.548,11.553h-0.762c-0.478,0-0.716-0.214-0.716-0.641c-0.234-3.546-0.351-6.722-0.351-9.524V18.612
			C104.463,18.187,104.707,17.972,105.124,17.972z"/>
		<path fill="#563500" d="M117.43,18.109c1.381,0,2.423,2.835,3.124,8.505c0.041,0.538,0.061,1.219,0.061,2.042v0.243
			c0,0.163-0.015,0.326-0.046,0.488c0.031,0.041,0.046,0.203,0.046,0.488v0.06c0,0.286-0.015,0.448-0.046,0.488
			c0.031,0.163,0.046,0.265,0.046,0.305c0,4.37-0.64,7.093-1.92,8.17c-0.518,0.202-0.879,0.305-1.082,0.305h-0.487
			c-1.657-0.396-2.678-2.383-3.064-5.96l-0.183-2.499c0-5.771,0.736-9.8,2.21-12.087C116.576,18.292,117.023,18.109,117.43,18.109z
			 M115.25,30.546c0,2.266,0.299,4.247,0.899,5.944c0.498,0.995,0.884,1.493,1.158,1.493h0.061c0.61,0,1.017-0.492,1.219-1.479
			c0.437-1.036,0.656-3.266,0.656-6.69v-1.22c0-2.367-0.422-5.085-1.265-8.153c-0.274-0.609-0.478-0.961-0.61-1.052
			c-0.223,0.081-0.366,0.214-0.427,0.396C115.814,22.173,115.25,25.761,115.25,30.546z"/>
		<path fill="#563500" d="M126.904,18.429l0.351,0.443v0.197c0,0.143-0.183,0.341-0.549,0.595h-0.747
			c-0.904,0-1.514,0.33-1.829,0.991c-0.315,0.854-0.472,1.809-0.472,2.865c0,0.639,0.279,1.696,0.838,3.17
			c0.182,0.365,1.259,1.442,3.231,3.23c1.067,1.524,1.6,3.023,1.6,4.496c0,1.158-0.249,2.291-0.747,3.398
			c-0.264,0.6-0.935,1.098-2.012,1.494c-0.406,0.213-0.751,0.32-1.036,0.32c-0.386,0-0.656-0.162-0.808-0.488v-0.213
			c0-0.295,0.315-0.473,0.945-0.533c1.159-0.438,1.738-0.89,1.738-1.357c0.366-0.731,0.549-1.66,0.549-2.789
			c0-1.473-0.661-2.91-1.981-4.313c-1.098-0.833-1.92-1.64-2.469-2.423c-0.396-0.426-0.783-1.52-1.159-3.276
			c0-0.214-0.021-0.482-0.061-0.808c0-1.352,0.254-2.556,0.762-3.612C123.688,18.892,124.974,18.429,126.904,18.429z"/>
		<path fill="#563500" d="M133.936,18.429l0.35,0.443v0.197c0,0.143-0.183,0.341-0.548,0.595h-0.747
			c-0.904,0-1.514,0.33-1.829,0.991c-0.315,0.854-0.472,1.809-0.472,2.865c0,0.639,0.279,1.696,0.838,3.17
			c0.183,0.365,1.26,1.442,3.231,3.23c1.067,1.524,1.601,3.023,1.601,4.496c0,1.158-0.249,2.291-0.747,3.398
			c-0.264,0.6-0.935,1.098-2.012,1.494c-0.406,0.213-0.752,0.32-1.037,0.32c-0.386,0-0.655-0.162-0.807-0.488v-0.213
			c0-0.295,0.314-0.473,0.944-0.533c1.159-0.438,1.738-0.89,1.738-1.357c0.365-0.731,0.549-1.66,0.549-2.789
			c0-1.473-0.661-2.91-1.981-4.313c-1.097-0.833-1.92-1.64-2.469-2.423c-0.396-0.426-0.782-1.52-1.159-3.276
			c0-0.214-0.02-0.482-0.061-0.808c0-1.352,0.254-2.556,0.762-3.612C130.72,18.892,132.005,18.429,133.936,18.429z"/>
		<path fill="#563500" d="M140.471,18.216h0.152c0.731,0.335,1.316,1.128,1.753,2.378c1.138,3.516,1.976,7.996,2.514,13.442
			c0.356,1.768,0.534,3.343,0.534,4.725c-0.122,0.305-0.472,0.457-1.052,0.457c-0.244-0.467-0.528-2.169-0.853-5.105
			c-0.091-0.314-0.284-1.59-0.58-3.825l-0.137-0.016c-1.931,0.183-2.896,0.305-2.896,0.366v2.377l-0.411,5.578
			c0.091,0.133,0.137,0.285,0.137,0.458s-0.177,0.365-0.533,0.579c-0.691,0-1.036-0.33-1.036-0.991
			c0.315-4.287,0.473-6.858,0.473-7.712c-0.041-0.559-0.062-1.127-0.062-1.707c0.021-2.936,0.264-6.046,0.732-9.327
			C139.44,18.774,139.861,18.216,140.471,18.216z M140.745,19.786c-0.518,1.991-0.776,4.882-0.776,8.672
			c-0.041,0-0.062,0.392-0.062,1.174v-0.229c0.986-0.275,1.966-0.412,2.941-0.412v0.229c0-1.219-0.671-4.13-2.012-8.732
			C140.583,19.938,140.552,19.704,140.745,19.786z"/>
		<path fill="#563500" d="M151.228,18.429l0.351,0.443v0.197c0,0.143-0.183,0.341-0.549,0.595h-0.747
			c-0.904,0-1.514,0.33-1.829,0.991c-0.315,0.854-0.472,1.809-0.472,2.865c0,0.639,0.279,1.696,0.838,3.17
			c0.183,0.365,1.26,1.442,3.231,3.23c1.066,1.524,1.6,3.023,1.6,4.496c0,1.158-0.249,2.291-0.747,3.398
			c-0.265,0.6-0.935,1.098-2.012,1.494c-0.406,0.213-0.751,0.32-1.036,0.32c-0.386,0-0.655-0.162-0.808-0.488v-0.213
			c0-0.295,0.315-0.473,0.945-0.533c1.158-0.438,1.737-0.89,1.737-1.357c0.366-0.731,0.549-1.66,0.549-2.789
			c0-1.473-0.661-2.91-1.981-4.313c-1.097-0.833-1.92-1.64-2.469-2.423c-0.396-0.426-0.782-1.52-1.159-3.276
			c0-0.214-0.02-0.482-0.061-0.808c0-1.352,0.253-2.556,0.762-3.612C148.012,18.892,149.297,18.429,151.228,18.429z"/>
		<path fill="#563500" d="M165.167,17.987l0.137,0.076c-0.284,0-0.426-0.03-0.426-0.092c1.809,0.163,2.713,0.417,2.713,0.762v0.107
			c-0.132,0.377-0.372,0.563-0.717,0.563l-1.768-0.183c-0.082,0-0.34,0.015-0.777,0.046l0.03,0.427c0,0.671,0.097,3.257,0.29,7.757
			h0.061c0.294,0,0.549-0.019,0.762-0.06c0.955,0.081,1.707,0.121,2.256,0.121l0.35,0.473v0.259c0,0.325-0.208,0.488-0.625,0.488
			c-0.366,0-0.955-0.04-1.768-0.122c-0.539,0.041-0.879,0.061-1.021,0.061V28.61c0,2.865,0.137,6.076,0.411,9.633
			c0.051,0,0.076,0.015,0.076,0.045c1.27-0.071,2.083-0.106,2.439-0.106c0.314,0.103,0.539,0.284,0.67,0.549v0.122
			c0,0.162-0.163,0.346-0.488,0.549c-1.615,0.04-2.585,0.08-2.911,0.121c-0.762,0-1.143-0.36-1.143-1.082
			c-0.285-3.881-0.426-7.117-0.426-9.708v-1.95c-0.204-3.578-0.305-5.985-0.305-7.226c-0.122-0.608-0.183-0.989-0.183-1.142
			l0.473-0.352h0.823C164.324,18.063,164.679,18.038,165.167,17.987z"/>
		<path fill="#563500" d="M170.418,17.866c0.478,0.152,1.89,3.418,4.237,9.799h-0.502c0-0.264,1.036-3.403,3.109-9.419h0.732
			l0.274,0.533l0.015,0.671c-0.112,3.638-0.167,6.711-0.167,9.221c0,0.966,0.183,4.512,0.549,10.639l-0.655,0.32
			c-0.549,0-0.945-3.414-1.189-10.242v-7.148h0.503c-1.443,4.48-2.322,6.849-2.636,7.104c-0.65-0.041-1.916-2.709-3.795-8.003h0.473
			v-0.122l0.899,17.726l-0.625,0.336c-0.569,0-0.854-0.224-0.854-0.671c-0.355-10.617-0.716-17.41-1.082-20.377L170.418,17.866z"/>
		<path fill="#563500" d="M182.75,16.829c1.493,0,2.393,1.417,2.697,4.252v1.188c-0.203,1.474-0.889,3.074-2.057,4.801
			c-0.041,0.011-0.127,0.103-0.26,0.274v-0.229c0.762,0.285,1.423,0.895,1.982,1.83c0.559,0.832,0.935,2.113,1.127,3.84
			c0,2.164-0.462,4.009-1.387,5.533c-0.65,0.711-1.311,1.148-1.981,1.311h-0.184c-0.823,0-1.234-0.787-1.234-2.363
			c-0.487-7-0.731-12.385-0.731-16.155c-0.081-1.087-0.208-2.163-0.381-3.23C181.185,17.18,181.988,16.829,182.75,16.829z
			 M181.805,18.384c0.315,2.458,0.473,6.04,0.473,10.744c0.162,1.91,0.366,4.99,0.609,9.236l-0.03-0.03
			c0.569-0.233,1-0.741,1.296-1.524c0.478-1.341,0.716-2.672,0.716-3.992c-0.294-1.758-0.528-2.637-0.701-2.637
			c-0.294-0.874-0.848-1.545-1.661-2.013c-0.417,0-0.747-0.202-0.991-0.609v-0.336c1.331-1.493,2.184-3.118,2.561-4.877v-0.93
			c-0.184-2.245-0.625-3.368-1.326-3.368C182.364,18.048,182.049,18.16,181.805,18.384z"/>
		<path fill="#563500" d="M190.801,18.216h0.152c0.732,0.335,1.316,1.128,1.753,2.378c1.138,3.516,1.976,7.996,2.515,13.442
			c0.356,1.768,0.534,3.343,0.534,4.725c-0.123,0.305-0.473,0.457-1.051,0.457c-0.244-0.467-0.529-2.169-0.854-5.105
			c-0.092-0.314-0.285-1.59-0.579-3.825l-0.137-0.016c-1.931,0.183-2.896,0.305-2.896,0.366v2.377l-0.412,5.578
			c0.092,0.133,0.138,0.285,0.138,0.458s-0.178,0.365-0.533,0.579c-0.691,0-1.037-0.33-1.037-0.991
			c0.315-4.287,0.473-6.858,0.473-7.712c-0.041-0.559-0.061-1.127-0.061-1.707c0.02-2.936,0.264-6.046,0.731-9.327
			C189.77,18.774,190.191,18.216,190.801,18.216z M191.075,19.786c-0.519,1.991-0.777,4.882-0.777,8.672
			c-0.041,0-0.061,0.392-0.061,1.174v-0.229c0.986-0.275,1.966-0.412,2.941-0.412v0.229c0-1.219-0.671-4.13-2.013-8.732
			C190.913,19.938,190.882,19.704,191.075,19.786z"/>
		<path fill="#563500" d="M198.819,17.134h0.061c0.224,0,0.432,0.157,0.625,0.473c0,0.457,0.021,0.686,0.062,0.686l-0.123-0.244
			c0.285,4.471,0.427,8.226,0.427,11.264c0.122,0.986,0.183,2.352,0.183,4.1v4.999h2.912c0.233,0,0.421,0.143,0.563,0.427v0.244
			c0,0.365-0.473,0.549-1.417,0.549h-2.804c-0.213,0-0.422-0.158-0.625-0.473v-0.442c0-0.487,0.01-0.731,0.03-0.731l-0.03-0.412
			v-4.465c-0.163-5.345-0.326-9.79-0.488-13.336l-0.184-2.058C198.133,17.326,198.402,17.134,198.819,17.134z"/>
		<path fill="#563500" d="M208.093,18.216h0.152c0.732,0.335,1.316,1.128,1.753,2.378c1.138,3.516,1.976,7.996,2.515,13.442
			c0.355,1.768,0.533,3.343,0.533,4.725c-0.122,0.305-0.472,0.457-1.051,0.457c-0.244-0.467-0.528-2.169-0.854-5.105
			c-0.092-0.314-0.285-1.59-0.58-3.825l-0.137-0.016c-1.931,0.183-2.896,0.305-2.896,0.366v2.377l-0.412,5.578
			c0.091,0.133,0.137,0.285,0.137,0.458s-0.177,0.365-0.533,0.579c-0.691,0-1.037-0.33-1.037-0.991
			c0.315-4.287,0.473-6.858,0.473-7.712c-0.041-0.559-0.061-1.127-0.061-1.707c0.021-2.936,0.264-6.046,0.731-9.327
			C207.062,18.774,207.483,18.216,208.093,18.216z M208.368,19.786c-0.519,1.991-0.777,4.882-0.777,8.672
			c-0.041,0-0.061,0.392-0.061,1.174v-0.229c0.985-0.275,1.965-0.412,2.941-0.412v0.229c0-1.219-0.671-4.13-2.012-8.732
			C208.205,19.938,208.175,19.704,208.368,19.786z"/>
		<path fill="#563500" d="M218.531,19.024h0.137c0.915,0,1.651,0.355,2.21,1.066v0.213c0,0.163-0.167,0.346-0.503,0.549
			c-0.253,0-0.63-0.157-1.127-0.473c-0.184-0.091-0.396-0.137-0.641-0.137h-0.183c-1.006,0.244-1.509,3.617-1.509,10.12
			c0,3.109,0.361,5.472,1.083,7.087c0.193,0.417,0.568,0.736,1.127,0.96h0.106c0.508-0.102,0.762-0.406,0.762-0.915
			c0.163,0,0.366-1.122,0.61-3.367v-2.957v-0.016c0.427,0,0.64,0.031,0.64,0.092c-2.134-0.162-3.201-0.391-3.201-0.686l-0.061-0.305
			v-0.076c0-0.174,0.152-0.336,0.458-0.488h0.442c0.142,0.112,1.031,0.238,2.667,0.381c0.285,0.285,0.427,0.768,0.427,1.448v1.524
			c0,0.243-0.02,0.553-0.061,0.93c0.041,0.07,0.061,0.152,0.061,0.244c-0.294,3.403-0.762,5.105-1.402,5.105
			c0,0.04-0.417,0.143-1.25,0.305h-0.336c-0.792-0.184-1.478-0.625-2.057-1.326c-0.925-1.748-1.388-4.414-1.388-8.002
			c0-6.817,0.757-10.551,2.271-11.201L218.531,19.024z"/>
		<path fill="#563500" d="M227.037,17.987l0.136,0.076c-0.284,0-0.426-0.03-0.426-0.092c1.809,0.163,2.713,0.417,2.713,0.762v0.107
			c-0.131,0.377-0.371,0.563-0.716,0.563l-1.769-0.183c-0.081,0-0.34,0.015-0.777,0.046l0.03,0.427c0,0.671,0.097,3.257,0.29,7.757
			h0.062c0.294,0,0.548-0.019,0.762-0.06c0.955,0.081,1.707,0.121,2.255,0.121l0.351,0.473v0.259c0,0.325-0.208,0.488-0.625,0.488
			c-0.365,0-0.955-0.04-1.768-0.122c-0.539,0.041-0.879,0.061-1.021,0.061V28.61c0,2.865,0.137,6.076,0.412,9.633
			c0.05,0,0.076,0.015,0.076,0.045c1.27-0.071,2.083-0.106,2.438-0.106c0.315,0.103,0.539,0.284,0.671,0.549v0.122
			c0,0.162-0.163,0.346-0.488,0.549c-1.616,0.04-2.586,0.08-2.911,0.121c-0.762,0-1.143-0.36-1.143-1.082
			c-0.285-3.881-0.427-7.117-0.427-9.708v-1.95c-0.203-3.578-0.305-5.985-0.305-7.226c-0.122-0.608-0.182-0.989-0.182-1.142
			l0.472-0.352h0.824C226.193,18.063,226.549,18.038,227.037,17.987z"/>
		<path fill="#563500" d="M232.716,17.972c0.426,0,1.473,2.855,3.139,8.566c0.234,1.301,1.189,4.505,2.866,9.616h-0.503v-0.213
			c-0.234-4.938-0.351-7.712-0.351-8.321c0-0.184,0.026-0.803,0.076-1.859c-0.01-0.112-0.015-0.355-0.015-0.732
			c0.081-0.802,0.122-1.438,0.122-1.904v-4.345c0.051-0.427,0.325-0.64,0.823-0.64l0.641,0.335
			c-0.123,2.409-0.184,4.191-0.184,5.351v1.722c0,3.536,0.112,8.154,0.336,13.854l-0.61,0.305c-0.508,0-2.109-4.583-4.801-13.748
			l-1.6-5.455l0.563,0.913l0.046-0.884c0.071,0.844,0.106,1.515,0.106,2.013l0.015,0.518c-0.081,2.256-0.122,3.836-0.122,4.74
			c0,4.542,0.183,8.393,0.548,11.553h-0.762c-0.478,0-0.716-0.214-0.716-0.641c-0.234-3.546-0.351-6.722-0.351-9.524V18.612
			C232.056,18.187,232.3,17.972,232.716,17.972z"/>
		<path fill="#563500" d="M245.76,18.429l0.35,0.443v0.197c0,0.143-0.182,0.341-0.549,0.595h-0.747c-0.904,0-1.514,0.33-1.829,0.991
			c-0.315,0.854-0.473,1.809-0.473,2.865c0,0.639,0.279,1.696,0.838,3.17c0.183,0.365,1.26,1.442,3.231,3.23
			c1.067,1.524,1.601,3.023,1.601,4.496c0,1.158-0.25,2.291-0.748,3.398c-0.264,0.6-0.934,1.098-2.011,1.494
			c-0.406,0.213-0.752,0.32-1.037,0.32c-0.386,0-0.656-0.162-0.808-0.488v-0.213c0-0.295,0.315-0.473,0.945-0.533
			c1.159-0.438,1.737-0.89,1.737-1.357c0.366-0.731,0.549-1.66,0.549-2.789c0-1.473-0.661-2.91-1.982-4.313
			c-1.098-0.833-1.92-1.64-2.469-2.423c-0.396-0.426-0.782-1.52-1.159-3.276c0-0.214-0.02-0.482-0.061-0.808
			c0-1.352,0.254-2.556,0.762-3.612C242.544,18.892,243.83,18.429,245.76,18.429z"/>
		<path fill="#563500" d="M257.457,17.972c0.427,0,1.474,2.855,3.14,8.566c0.234,1.301,1.189,4.505,2.865,9.616h-0.503v-0.213
			c-0.233-4.938-0.35-7.712-0.35-8.321c0-0.184,0.025-0.803,0.076-1.859c-0.011-0.112-0.016-0.355-0.016-0.732
			c0.081-0.802,0.121-1.438,0.121-1.904v-4.345c0.052-0.427,0.326-0.64,0.823-0.64l0.641,0.335
			c-0.122,2.409-0.183,4.191-0.183,5.351v1.722c0,3.536,0.111,8.154,0.335,13.854l-0.609,0.305c-0.508,0-2.108-4.583-4.801-13.748
			l-1.601-5.455l0.563,0.913l0.046-0.884c0.07,0.844,0.106,1.515,0.106,2.013l0.016,0.518c-0.081,2.256-0.122,3.836-0.122,4.74
			c0,4.542,0.183,8.393,0.549,11.553h-0.762c-0.479,0-0.717-0.214-0.717-0.641c-0.233-3.546-0.35-6.722-0.35-9.524V18.612
			C256.797,18.187,257.041,17.972,257.457,17.972z"/>
		<path fill="#563500" d="M273.023,14.863h0.366c0.233,0,0.421,0.142,0.563,0.427v0.121c0,0.996-0.411,1.637-1.234,1.921
			c-0.112,0.062-0.274,0.092-0.487,0.092c-0.844,0-1.687-0.3-2.53-0.899c-0.518-0.213-0.874-0.32-1.067-0.32
			c-0.305,0-0.645,0.406-1.021,1.22h-0.596c-0.354-0.152-0.532-0.417-0.532-0.793c0.559-1.098,1.275-1.646,2.148-1.646
			c0.65,0,1.707,0.406,3.17,1.219h0.366c0.163,0,0.295-0.138,0.396-0.412l-0.046-0.076v-0.305
			C272.521,15.249,272.688,15.065,273.023,14.863z M268.954,18.216h0.152c0.731,0.335,1.316,1.128,1.753,2.378
			c1.138,3.516,1.977,7.996,2.515,13.442c0.355,1.768,0.533,3.343,0.533,4.725c-0.121,0.305-0.473,0.457-1.052,0.457
			c-0.243-0.467-0.528-2.169-0.853-5.105c-0.092-0.314-0.285-1.59-0.58-3.825l-0.137-0.016c-1.931,0.183-2.896,0.305-2.896,0.366
			v2.377l-0.412,5.578c0.092,0.133,0.137,0.285,0.137,0.458s-0.177,0.365-0.533,0.579c-0.69,0-1.035-0.33-1.035-0.991
			c0.314-4.287,0.471-6.858,0.471-7.712c-0.04-0.559-0.06-1.127-0.06-1.707c0.02-2.936,0.264-6.046,0.731-9.327
			C267.923,18.774,268.345,18.216,268.954,18.216z M269.229,19.786c-0.519,1.991-0.777,4.882-0.777,8.672
			c-0.04,0-0.061,0.392-0.061,1.174v-0.229c0.985-0.275,1.965-0.412,2.941-0.412v0.229c0-1.219-0.671-4.13-2.012-8.732
			C269.066,19.938,269.035,19.704,269.229,19.786z"/>
		<path fill="#563500" d="M279.387,18.109c1.382,0,2.423,2.835,3.125,8.505c0.04,0.538,0.061,1.219,0.061,2.042v0.243
			c0,0.163-0.016,0.326-0.046,0.488c0.03,0.041,0.046,0.203,0.046,0.488v0.06c0,0.286-0.016,0.448-0.046,0.488
			c0.03,0.163,0.046,0.265,0.046,0.305c0,4.37-0.641,7.093-1.921,8.17c-0.518,0.202-0.879,0.305-1.082,0.305h-0.487
			c-1.656-0.396-2.678-2.383-3.063-5.96l-0.184-2.499c0-5.771,0.737-9.8,2.211-12.087C278.533,18.292,278.98,18.109,279.387,18.109z
			 M277.207,30.546c0,2.266,0.3,4.247,0.899,5.944c0.498,0.995,0.884,1.493,1.158,1.493h0.062c0.609,0,1.016-0.492,1.219-1.479
			c0.438-1.036,0.655-3.266,0.655-6.69v-1.22c0-2.367-0.422-5.085-1.265-8.153c-0.274-0.609-0.478-0.961-0.609-1.052
			c-0.224,0.081-0.366,0.214-0.427,0.396C277.771,22.173,277.207,25.761,277.207,30.546z"/>
		<path fill="#563500" d="M295.565,18.353h0.473c0.955,0.173,1.433,0.539,1.433,1.098c0,0.162-0.168,0.346-0.504,0.549h-0.563
			c-0.265-0.324-0.457-0.487-0.579-0.487c-0.813,0.284-1.22,0.527-1.22,0.731c-0.812,1.544-1.219,3.638-1.219,6.279v1.036
			c0,1.798,0.244,3.958,0.731,6.478c0.284,1.818,0.665,3.033,1.143,3.643c0.539,0.467,0.991,0.711,1.356,0.731
			c0.448,0,1.021-0.446,1.723-1.341h0.396c0.233,0,0.422,0.143,0.563,0.426v0.184c0,0.467-0.503,1.021-1.509,1.661
			c-0.457,0.193-0.873,0.29-1.25,0.29h-0.091c-0.701-0.082-1.412-0.438-2.134-1.067c-0.782-0.619-1.448-2.991-1.997-7.117
			c-0.203-0.884-0.305-2.343-0.305-4.375v-0.364c0.071-4.207,0.793-6.829,2.164-7.865C294.858,18.516,295.321,18.353,295.565,18.353
			z"/>
		<path fill="#563500" d="M303.887,18.109c1.382,0,2.424,2.835,3.124,8.505c0.041,0.538,0.062,1.219,0.062,2.042v0.243
			c0,0.163-0.016,0.326-0.046,0.488c0.03,0.041,0.046,0.203,0.046,0.488v0.06c0,0.286-0.016,0.448-0.046,0.488
			c0.03,0.163,0.046,0.265,0.046,0.305c0,4.37-0.641,7.093-1.921,8.17c-0.518,0.202-0.879,0.305-1.082,0.305h-0.487
			c-1.656-0.396-2.677-2.383-3.064-5.96l-0.182-2.499c0-5.771,0.736-9.8,2.209-12.087C303.033,18.292,303.48,18.109,303.887,18.109z
			 M301.707,30.546c0,2.266,0.3,4.247,0.899,5.944c0.498,0.995,0.884,1.493,1.158,1.493h0.062c0.609,0,1.016-0.492,1.22-1.479
			c0.436-1.036,0.654-3.266,0.654-6.69v-1.22c0-2.367-0.421-5.085-1.265-8.153c-0.274-0.609-0.479-0.961-0.609-1.052
			c-0.224,0.081-0.366,0.214-0.428,0.396C302.271,22.173,301.707,25.761,301.707,30.546z"/>
		<path fill="#563500" d="M310.237,17.972c0.427,0,1.473,2.855,3.14,8.566c0.233,1.301,1.188,4.505,2.865,9.616h-0.503v-0.213
			c-0.234-4.938-0.351-7.712-0.351-8.321c0-0.184,0.025-0.803,0.076-1.859c-0.011-0.112-0.016-0.355-0.016-0.732
			c0.081-0.802,0.122-1.438,0.122-1.904v-4.345c0.051-0.427,0.325-0.64,0.823-0.64l0.64,0.335c-0.121,2.409-0.182,4.191-0.182,5.351
			v1.722c0,3.536,0.111,8.154,0.334,13.854l-0.609,0.305c-0.508,0-2.108-4.583-4.801-13.748l-1.601-5.455l0.564,0.913l0.046-0.884
			c0.071,0.844,0.106,1.515,0.106,2.013l0.015,0.518c-0.081,2.256-0.121,3.836-0.121,4.74c0,4.542,0.183,8.393,0.549,11.553h-0.763
			c-0.478,0-0.717-0.214-0.717-0.641c-0.233-3.546-0.35-6.722-0.35-9.524V18.612C309.577,18.187,309.821,17.972,310.237,17.972z"/>
		<path fill="#563500" d="M325.735,19.146l0.396,0.458v0.243c0,0.376-0.696,0.564-2.088,0.564h-1.707
			c0.122,0,0.188-0.016,0.198-0.046l0.121,2.759c-0.04,0.254-0.061,0.391-0.061,0.411c0.365,6.147,0.549,10.531,0.549,13.153
			c0.041,0.07,0.061,0.172,0.061,0.305c-0.04,0.061-0.061,0.081-0.061,0.061l0.076,0.412c-0.143,0.324-0.336,0.487-0.579,0.487
			h-0.243c-0.173,0-0.382-0.143-0.626-0.427c0-0.143,0.021-0.371,0.062-0.686c0-0.864-0.183-5.248-0.549-13.152
			c0-1.281-0.035-2.398-0.106-3.354l0.137,0.076h-0.061l-2.134,0.183c-0.264-0.285-0.396-0.549-0.396-0.793
			c0-0.173,0.193-0.354,0.579-0.548c0.356,0.091,0.528,0.137,0.519,0.137c0.782-0.071,1.336-0.106,1.661-0.106h2.5
			C324.479,19.283,325.063,19.236,325.735,19.146z"/>
		<path fill="#563500" d="M330.192,13.857c0.65,0.294,1.514,0.873,2.592,1.737v0.427c-0.123,0.295-0.356,0.441-0.701,0.441
			c-0.143,0-0.839-0.431-2.088-1.295h0.305c-0.184,0.203-0.56,0.69-1.129,1.463l-0.427,0.213c-0.345-0.11-0.568-0.284-0.67-0.518
			v-0.122c0.021-0.426,0.589-1.209,1.706-2.347H330.192z M330.573,17.987l0.138,0.076c-0.285,0-0.427-0.03-0.427-0.092
			c1.809,0.163,2.713,0.417,2.713,0.762v0.107c-0.132,0.377-0.371,0.563-0.717,0.563l-1.768-0.183c-0.082,0-0.34,0.015-0.777,0.046
			l0.031,0.427c0,0.671,0.096,3.257,0.289,7.757h0.061c0.295,0,0.549-0.019,0.763-0.06c0.955,0.081,1.706,0.121,2.255,0.121
			l0.351,0.473v0.259c0,0.325-0.208,0.488-0.624,0.488c-0.367,0-0.955-0.04-1.769-0.122c-0.538,0.041-0.879,0.061-1.021,0.061V28.61
			c0,2.865,0.137,6.076,0.411,9.633c0.051,0,0.076,0.015,0.076,0.045c1.271-0.071,2.083-0.106,2.438-0.106
			c0.314,0.103,0.538,0.284,0.671,0.549v0.122c0,0.162-0.162,0.346-0.488,0.549c-1.615,0.04-2.586,0.08-2.911,0.121
			c-0.762,0-1.143-0.36-1.143-1.082c-0.285-3.881-0.427-7.117-0.427-9.708v-1.95c-0.203-3.578-0.305-5.985-0.305-7.226
			c-0.122-0.608-0.184-0.989-0.184-1.142l0.473-0.352h0.823C329.73,18.063,330.086,18.038,330.573,17.987z"/>
		<path fill="#563500" d="M335.87,17.866c0.478,0.152,1.89,3.418,4.236,9.799h-0.502c0-0.264,1.036-3.403,3.108-9.419h0.731
			l0.274,0.533l0.016,0.671c-0.112,3.638-0.168,6.711-0.168,9.221c0,0.966,0.184,4.512,0.549,10.639l-0.655,0.32
			c-0.549,0-0.945-3.414-1.189-10.242v-7.148h0.504c-1.443,4.48-2.322,6.849-2.637,7.104c-0.65-0.041-1.916-2.709-3.795-8.003h0.473
			v-0.122l0.898,17.726l-0.625,0.336c-0.568,0-0.854-0.224-0.854-0.671c-0.355-10.617-0.716-17.41-1.082-20.377L335.87,17.866z"/>
		<path fill="#563500" d="M355.005,16.829c1.494,0,2.393,1.417,2.697,4.252v1.188c-0.202,1.474-0.889,3.074-2.058,4.801
			c-0.04,0.011-0.126,0.103-0.259,0.274v-0.229c0.763,0.285,1.424,0.895,1.982,1.83c0.559,0.832,0.935,2.113,1.127,3.84
			c0,2.164-0.462,4.009-1.387,5.533c-0.65,0.711-1.312,1.148-1.981,1.311h-0.183c-0.823,0-1.234-0.787-1.234-2.363
			c-0.488-7-0.732-12.385-0.732-16.155c-0.081-1.087-0.208-2.163-0.381-3.23C353.44,17.18,354.243,16.829,355.005,16.829z
			 M354.061,18.384c0.314,2.458,0.472,6.04,0.472,10.744c0.163,1.91,0.366,4.99,0.609,9.236l-0.03-0.03
			c0.569-0.233,1.001-0.741,1.296-1.524c0.479-1.341,0.717-2.672,0.717-3.992c-0.296-1.758-0.529-2.637-0.702-2.637
			c-0.294-0.874-0.848-1.545-1.661-2.013c-0.416,0-0.746-0.202-0.99-0.609v-0.336c1.331-1.493,2.185-3.118,2.561-4.877v-0.93
			c-0.183-2.245-0.625-3.368-1.326-3.368C354.619,18.048,354.304,18.16,354.061,18.384z"/>
		<path fill="#563500" d="M361.906,18.292h0.244c0.538,0,0.808,1.179,0.808,3.536v0.793c0,0.803-0.121,2.86-0.365,6.173
			c0,0.132,0.02,0.279,0.061,0.441c-0.041,2.144-0.061,3.841-0.061,5.09v3.963c0,0.062,0.04,0.26,0.122,0.595
			c-0.082,0.498-0.29,0.747-0.625,0.747h-0.244c-0.417,0-0.624-0.65-0.624-1.951c0-7.062,0.121-11.924,0.364-14.586v-1.691
			c0-0.935-0.061-1.783-0.183-2.546C361.403,18.684,361.571,18.495,361.906,18.292z"/>
		<path fill="#563500" d="M369.726,18.429l0.351,0.443v0.197c0,0.143-0.183,0.341-0.55,0.595h-0.746
			c-0.904,0-1.514,0.33-1.828,0.991c-0.315,0.854-0.473,1.809-0.473,2.865c0,0.639,0.278,1.696,0.837,3.17
			c0.184,0.365,1.261,1.442,3.232,3.23c1.066,1.524,1.601,3.023,1.601,4.496c0,1.158-0.25,2.291-0.748,3.398
			c-0.264,0.6-0.934,1.098-2.012,1.494c-0.406,0.213-0.751,0.32-1.036,0.32c-0.387,0-0.655-0.162-0.808-0.488v-0.213
			c0-0.295,0.314-0.473,0.945-0.533c1.158-0.438,1.737-0.89,1.737-1.357c0.365-0.731,0.549-1.66,0.549-2.789
			c0-1.473-0.661-2.91-1.981-4.313c-1.098-0.833-1.92-1.64-2.469-2.423c-0.396-0.426-0.783-1.52-1.159-3.276
			c0-0.214-0.021-0.482-0.061-0.808c0-1.352,0.254-2.556,0.762-3.612C366.509,18.892,367.795,18.429,369.726,18.429z"/>
		<path fill="#563500" d="M374.826,18.339c1.655,0.08,2.946,0.121,3.871,0.121l0.274,0.412c0,0.538-0.254,0.808-0.762,0.808
			c-1.047-0.041-2.068-0.062-3.064-0.062l0.29,7.316v0.045l0.03,0.396c0.376-0.05,0.869-0.076,1.479-0.076h1.586
			c0.305,0,0.497,0.26,0.578,0.778l-0.549,0.441H376.7c-0.762,0-1.143-0.02-1.143-0.061v0.67c0,0.59,0.041,3.028,0.121,7.316V37.1
			l0.062,0.366c0,0.254-0.011,0.381-0.031,0.381l0.031,0.289v0.687c0,0.162-0.152,0.325-0.458,0.487h-0.29
			c-0.223,0-0.432-0.158-0.624-0.473l-0.229-12.574l-0.26-0.609l0.122,0.244c-0.162-3.222-0.244-5.624-0.244-7.209
			C374.084,18.455,374.44,18.339,374.826,18.339z"/>
		<path fill="#563500" d="M383.782,17.987l0.138,0.076c-0.284,0-0.427-0.03-0.427-0.092c1.809,0.163,2.713,0.417,2.713,0.762v0.107
			c-0.133,0.377-0.371,0.563-0.717,0.563l-1.768-0.183c-0.082,0-0.34,0.015-0.777,0.046l0.03,0.427c0,0.671,0.097,3.257,0.29,7.757
			h0.061c0.295,0,0.549-0.019,0.762-0.06c0.955,0.081,1.707,0.121,2.256,0.121l0.351,0.473v0.259c0,0.325-0.208,0.488-0.625,0.488
			c-0.365,0-0.955-0.04-1.768-0.122c-0.538,0.041-0.879,0.061-1.021,0.061V28.61c0,2.865,0.138,6.076,0.412,9.633
			c0.05,0,0.076,0.015,0.076,0.045c1.27-0.071,2.083-0.106,2.438-0.106c0.314,0.103,0.539,0.284,0.67,0.549v0.122
			c0,0.162-0.162,0.346-0.487,0.549c-1.616,0.04-2.585,0.08-2.911,0.121c-0.762,0-1.143-0.36-1.143-1.082
			c-0.285-3.881-0.428-7.117-0.428-9.708v-1.95c-0.202-3.578-0.305-5.985-0.305-7.226c-0.121-0.608-0.183-0.989-0.183-1.142
			l0.474-0.352h0.822C382.938,18.063,383.295,18.038,383.782,17.987z"/>
		<path fill="#563500" d="M389.465,17.972c0.427,0,1.474,2.855,3.14,8.566c0.234,1.301,1.189,4.505,2.866,9.616h-0.504v-0.213
			c-0.233-4.938-0.351-7.712-0.351-8.321c0-0.184,0.025-0.803,0.076-1.859c-0.01-0.112-0.015-0.355-0.015-0.732
			c0.081-0.802,0.121-1.438,0.121-1.904v-4.345c0.052-0.427,0.325-0.64,0.824-0.64l0.64,0.335c-0.123,2.409-0.184,4.191-0.184,5.351
			v1.722c0,3.536,0.112,8.154,0.336,13.854l-0.609,0.305c-0.509,0-2.109-4.583-4.801-13.748l-1.601-5.455l0.564,0.913l0.045-0.884
			c0.071,0.844,0.106,1.515,0.106,2.013l0.016,0.518c-0.081,2.256-0.122,3.836-0.122,4.74c0,4.542,0.183,8.393,0.548,11.553H389.8
			c-0.477,0-0.716-0.214-0.716-0.641c-0.233-3.546-0.351-6.722-0.351-9.524V18.612C388.804,18.187,389.048,17.972,389.465,17.972z"
			/>
		<path fill="#563500" d="M401.77,18.109c1.382,0,2.423,2.835,3.124,8.505c0.041,0.538,0.062,1.219,0.062,2.042v0.243
			c0,0.163-0.016,0.326-0.046,0.488c0.03,0.041,0.046,0.203,0.046,0.488v0.06c0,0.286-0.016,0.448-0.046,0.488
			c0.03,0.163,0.046,0.265,0.046,0.305c0,4.37-0.641,7.093-1.92,8.17c-0.519,0.202-0.879,0.305-1.083,0.305h-0.487
			c-1.657-0.396-2.678-2.383-3.063-5.96l-0.184-2.499c0-5.771,0.737-9.8,2.211-12.087C400.915,18.292,401.363,18.109,401.77,18.109z
			 M399.59,30.546c0,2.266,0.3,4.247,0.899,5.944c0.498,0.995,0.884,1.493,1.158,1.493h0.061c0.61,0,1.017-0.492,1.22-1.479
			c0.438-1.036,0.655-3.266,0.655-6.69v-1.22c0-2.367-0.422-5.085-1.265-8.153c-0.274-0.609-0.478-0.961-0.61-1.052
			c-0.224,0.081-0.365,0.214-0.426,0.396C400.154,22.173,399.59,25.761,399.59,30.546z"/>
		<path fill="#563500" d="M408.039,17.134h0.061c0.224,0,0.432,0.157,0.624,0.473c0,0.457,0.021,0.686,0.062,0.686l-0.122-0.244
			c0.285,4.471,0.427,8.226,0.427,11.264c0.122,0.986,0.184,2.352,0.184,4.1v4.999h2.91c0.234,0,0.422,0.143,0.564,0.427v0.244
			c0,0.365-0.473,0.549-1.417,0.549h-2.805c-0.213,0-0.422-0.158-0.625-0.473v-0.442c0-0.487,0.011-0.731,0.031-0.731l-0.031-0.412
			v-4.465c-0.162-5.345-0.325-9.79-0.487-13.336l-0.184-2.058C407.354,17.326,407.622,17.134,408.039,17.134z"/>
		<path fill="#563500" d="M424.479,18.216h0.152c0.731,0.335,1.315,1.128,1.753,2.378c1.139,3.516,1.976,7.996,2.516,13.442
			c0.354,1.768,0.533,3.343,0.533,4.725c-0.123,0.305-0.473,0.457-1.053,0.457c-0.243-0.467-0.527-2.169-0.853-5.105
			c-0.092-0.314-0.285-1.59-0.579-3.825l-0.138-0.016c-1.931,0.183-2.896,0.305-2.896,0.366v2.377l-0.411,5.578
			c0.092,0.133,0.137,0.285,0.137,0.458s-0.177,0.365-0.533,0.579c-0.69,0-1.036-0.33-1.036-0.991
			c0.314-4.287,0.473-6.858,0.473-7.712c-0.04-0.559-0.061-1.127-0.061-1.707c0.021-2.936,0.265-6.046,0.731-9.327
			C423.447,18.774,423.869,18.216,424.479,18.216z M424.753,19.786c-0.519,1.991-0.777,4.882-0.777,8.672
			c-0.04,0-0.062,0.392-0.062,1.174v-0.229c0.986-0.275,1.967-0.412,2.941-0.412v0.229c0-1.219-0.669-4.13-2.011-8.732
			C424.591,19.938,424.56,19.704,424.753,19.786z"/>
		<path fill="#563500" d="M149.689,49.2l0.138,0.077c-0.285,0-0.427-0.03-0.427-0.092c1.809,0.163,2.713,0.417,2.713,0.762v0.107
			c-0.132,0.376-0.371,0.564-0.716,0.564l-1.768-0.184c-0.082,0-0.341,0.015-0.777,0.046l0.03,0.426c0,0.672,0.097,3.257,0.29,7.759
			h0.061c0.294,0,0.548-0.021,0.762-0.062c0.955,0.082,1.707,0.122,2.256,0.122l0.35,0.472v0.26c0,0.325-0.208,0.488-0.625,0.488
			c-0.366,0-0.955-0.041-1.768-0.122c-0.539,0.041-0.879,0.061-1.021,0.061v-0.061c0,2.865,0.137,6.076,0.412,9.632
			c0.051,0,0.076,0.016,0.076,0.046c1.27-0.071,2.083-0.106,2.438-0.106c0.315,0.102,0.539,0.285,0.67,0.549v0.122
			c0,0.162-0.162,0.345-0.487,0.548c-1.616,0.041-2.586,0.081-2.911,0.121c-0.762,0-1.143-0.359-1.143-1.081
			c-0.285-3.881-0.427-7.117-0.427-9.708v-1.951c-0.203-3.577-0.305-5.985-0.305-7.224c-0.122-0.61-0.183-0.991-0.183-1.144
			l0.473-0.351h0.823C148.846,49.277,149.202,49.252,149.689,49.2z"/>
		<path fill="#563500" d="M165.641,49.643l0.351,0.442v0.198c0,0.143-0.183,0.341-0.549,0.595h-0.747
			c-0.905,0-1.514,0.33-1.829,0.99c-0.315,0.854-0.473,1.809-0.473,2.865c0,0.64,0.28,1.697,0.838,3.17
			c0.183,0.366,1.26,1.443,3.231,3.231c1.067,1.524,1.601,3.022,1.601,4.497c0,1.157-0.249,2.291-0.747,3.397
			c-0.264,0.6-0.935,1.098-2.012,1.494c-0.407,0.212-0.752,0.319-1.037,0.319c-0.386,0-0.655-0.162-0.808-0.487v-0.213
			c0-0.295,0.315-0.473,0.945-0.534c1.158-0.437,1.738-0.889,1.738-1.356c0.366-0.731,0.548-1.661,0.548-2.789
			c0-1.473-0.66-2.911-1.981-4.312c-1.098-0.834-1.92-1.642-2.469-2.424c-0.396-0.427-0.783-1.52-1.158-3.277
			c0-0.213-0.021-0.482-0.061-0.808c0-1.351,0.254-2.555,0.762-3.611C162.425,50.104,163.71,49.643,165.641,49.643z"/>
		<path fill="#563500" d="M176.261,46.077h0.366c0.234,0,0.422,0.142,0.564,0.426v0.122c0,0.995-0.412,1.636-1.235,1.921
			c-0.112,0.061-0.274,0.092-0.487,0.092c-0.844,0-1.687-0.301-2.53-0.9c-0.519-0.213-0.874-0.319-1.067-0.319
			c-0.305,0-0.646,0.406-1.021,1.22h-0.594c-0.356-0.152-0.534-0.417-0.534-0.793c0.559-1.098,1.275-1.646,2.149-1.646
			c0.65,0,1.707,0.406,3.17,1.22h0.366c0.163,0,0.295-0.138,0.396-0.412l-0.045-0.076v-0.305
			C175.758,46.463,175.926,46.279,176.261,46.077z M172.191,49.43h0.152c0.732,0.335,1.316,1.128,1.753,2.378
			c1.138,3.516,1.976,7.996,2.515,13.442c0.355,1.768,0.534,3.343,0.534,4.725c-0.122,0.305-0.472,0.457-1.052,0.457
			c-0.244-0.468-0.528-2.169-0.853-5.105c-0.092-0.315-0.285-1.591-0.58-3.826l-0.137-0.015c-1.931,0.183-2.896,0.305-2.896,0.366
			v2.377l-0.411,5.578c0.091,0.132,0.137,0.284,0.137,0.458c0,0.172-0.177,0.365-0.533,0.578c-0.691,0-1.037-0.33-1.037-0.99
			c0.315-4.288,0.473-6.857,0.473-7.713c-0.041-0.558-0.062-1.127-0.062-1.706c0.021-2.937,0.264-6.046,0.732-9.327
			C171.16,49.988,171.582,49.43,172.191,49.43z M172.466,51c-0.519,1.991-0.777,4.882-0.777,8.672c-0.041,0-0.062,0.391-0.062,1.173
			v-0.229c0.986-0.274,1.966-0.41,2.942-0.41v0.228c0-1.219-0.671-4.13-2.012-8.733C172.303,51.152,172.273,50.918,172.466,51z"/>
		<path fill="#563500" d="M182.625,49.323c1.381,0,2.423,2.834,3.125,8.504c0.041,0.539,0.061,1.219,0.061,2.043v0.243
			c0,0.163-0.016,0.325-0.046,0.487c0.031,0.041,0.046,0.204,0.046,0.488v0.062c0,0.284-0.016,0.446-0.046,0.487
			c0.031,0.162,0.046,0.264,0.046,0.305c0,4.369-0.641,7.093-1.921,8.169c-0.518,0.203-0.879,0.306-1.082,0.306h-0.487
			c-1.657-0.396-2.677-2.383-3.064-5.96l-0.183-2.499c0-5.771,0.736-9.801,2.21-12.087
			C181.771,49.506,182.219,49.323,182.625,49.323z M180.446,61.76c0,2.267,0.299,4.247,0.899,5.944
			c0.498,0.995,0.884,1.493,1.158,1.493h0.061c0.609,0,1.016-0.493,1.219-1.479c0.437-1.035,0.655-3.266,0.655-6.69v-1.219
			c0-2.368-0.421-5.086-1.265-8.153c-0.274-0.609-0.478-0.96-0.609-1.053c-0.224,0.082-0.366,0.214-0.427,0.397
			C181.01,53.387,180.446,56.974,180.446,61.76z"/>
		<path fill="#563500" d="M198.806,49.566h0.473c0.955,0.174,1.433,0.538,1.433,1.098c0,0.162-0.167,0.346-0.503,0.548h-0.563
			c-0.264-0.324-0.457-0.486-0.58-0.486c-0.812,0.284-1.219,0.527-1.219,0.731c-0.813,1.544-1.219,3.638-1.219,6.278v1.037
			c0,1.798,0.244,3.958,0.731,6.478c0.284,1.817,0.666,3.032,1.143,3.643c0.538,0.467,0.991,0.712,1.356,0.731
			c0.447,0,1.021-0.447,1.722-1.342h0.396c0.233,0,0.421,0.143,0.563,0.427v0.184c0,0.467-0.503,1.021-1.508,1.661
			c-0.457,0.193-0.874,0.289-1.25,0.289h-0.092c-0.701-0.081-1.413-0.436-2.133-1.066c-0.783-0.62-1.448-2.992-1.997-7.117
			c-0.204-0.884-0.305-2.343-0.305-4.375v-0.365c0.071-4.206,0.792-6.828,2.164-7.864C198.1,49.729,198.562,49.566,198.806,49.566z"
			/>
		<path fill="#563500" d="M206.552,49.2l0.137,0.077c-0.284,0-0.427-0.03-0.427-0.092c1.809,0.163,2.713,0.417,2.713,0.762v0.107
			c-0.131,0.376-0.371,0.564-0.716,0.564l-1.768-0.184c-0.081,0-0.341,0.015-0.777,0.046l0.03,0.426c0,0.672,0.097,3.257,0.29,7.759
			h0.062c0.294,0,0.548-0.021,0.762-0.062c0.955,0.082,1.707,0.122,2.256,0.122l0.35,0.472v0.26c0,0.325-0.208,0.488-0.625,0.488
			c-0.366,0-0.955-0.041-1.769-0.122c-0.539,0.041-0.879,0.061-1.021,0.061v-0.061c0,2.865,0.137,6.076,0.412,9.632
			c0.05,0,0.076,0.016,0.076,0.046c1.27-0.071,2.083-0.106,2.438-0.106c0.315,0.102,0.539,0.285,0.671,0.549v0.122
			c0,0.162-0.163,0.345-0.488,0.548c-1.616,0.041-2.586,0.081-2.911,0.121c-0.762,0-1.143-0.359-1.143-1.081
			c-0.285-3.881-0.427-7.117-0.427-9.708v-1.951c-0.203-3.577-0.305-5.985-0.305-7.224c-0.122-0.61-0.183-0.991-0.183-1.144
			l0.472-0.351h0.823C205.708,49.277,206.063,49.252,206.552,49.2z"/>
		<path fill="#563500" d="M211.661,47.737h0.487c0.123,0.163,0.457,0.29,1.006,0.381c0.884,0.356,1.59,0.986,2.118,1.891
			c0.712,1.718,1.067,2.992,1.067,3.826v0.609c0,2.743-0.655,4.628-1.965,5.654c1.544,0.365,2.463,2.52,2.758,6.462v2.332
			c0,0.345,0.025,0.899,0.076,1.661l-0.442,0.289h-0.473l-0.457-0.35c-0.05-0.905-0.076-1.561-0.076-1.967v-2.194
			c0-1.483-0.447-2.992-1.341-4.526c-0.549-0.519-1.011-0.778-1.387-0.778h0.335c0.03,0.672,0.045,1.22,0.045,1.646v2.317
			c0.082,2.011,0.123,3.149,0.123,3.413v0.183c-0.163,0.326-0.412,0.488-0.748,0.488c-0.193,0-0.426-0.157-0.7-0.473l0.076-0.518
			c-0.081-1.708-0.122-2.84-0.122-3.399v-3.353c-0.102,0-0.224-0.168-0.366-0.503v-0.29c0.163-0.324,0.259-0.487,0.29-0.487
			c-0.193-5.365-0.457-9.348-0.793-11.949L211.661,47.737z M212.712,49.2c0.224,2.755,0.427,6.118,0.61,10.091
			c1.098-0.743,1.646-2.256,1.646-4.542v-0.854c0-1.027-0.427-2.332-1.28-3.917c-0.569-0.519-0.97-0.778-1.205-0.778H212.712z"/>
		<path fill="#563500" d="M225.367,50.359l0.396,0.457v0.243c0,0.377-0.696,0.564-2.087,0.564h-1.707
			c0.122,0,0.188-0.016,0.198-0.045l0.122,2.758c-0.041,0.255-0.061,0.391-0.061,0.412c0.366,6.147,0.549,10.531,0.549,13.152
			c0.041,0.071,0.061,0.173,0.061,0.305c-0.04,0.062-0.061,0.081-0.061,0.062l0.076,0.411c-0.143,0.325-0.335,0.487-0.579,0.487
			h-0.244c-0.173,0-0.381-0.142-0.625-0.427c0-0.142,0.021-0.37,0.061-0.686c0-0.863-0.183-5.247-0.549-13.152
			c0-1.281-0.035-2.398-0.106-3.354l0.137,0.076h-0.061l-2.134,0.184c-0.264-0.285-0.396-0.549-0.396-0.793
			c0-0.173,0.193-0.355,0.58-0.549c0.356,0.092,0.528,0.137,0.518,0.137c0.783-0.07,1.336-0.106,1.662-0.106h2.5
			C224.111,50.496,224.695,50.45,225.367,50.359z"/>
		<path fill="#563500" d="M228.688,49.506h0.244c0.539,0,0.808,1.179,0.808,3.536v0.793c0,0.802-0.123,2.859-0.366,6.172
			c0,0.132,0.02,0.279,0.061,0.441c-0.041,2.145-0.061,3.841-0.061,5.091v3.963c0,0.061,0.041,0.26,0.122,0.595
			c-0.081,0.497-0.29,0.746-0.624,0.746h-0.244c-0.417,0-0.625-0.65-0.625-1.95c0-7.062,0.122-11.924,0.366-14.587v-1.69
			c0-0.935-0.061-1.784-0.182-2.546C228.185,49.897,228.352,49.709,228.688,49.506z"/>
		<path fill="#563500" d="M233.618,49.552c1.656,0.081,2.946,0.121,3.871,0.121l0.274,0.412c0,0.539-0.254,0.808-0.762,0.808
			c-1.047-0.04-2.068-0.062-3.063-0.062l0.289,7.316v0.046l0.03,0.396c0.376-0.052,0.869-0.076,1.479-0.076h1.585
			c0.305,0,0.498,0.259,0.579,0.777l-0.549,0.44h-1.859c-0.762,0-1.144-0.019-1.144-0.06v0.67c0,0.59,0.042,3.028,0.123,7.316v0.655
			l0.061,0.365c0,0.254-0.011,0.381-0.031,0.381l0.031,0.29v0.686c0,0.162-0.153,0.325-0.458,0.488h-0.29
			c-0.224,0-0.432-0.158-0.625-0.473l-0.229-12.574l-0.259-0.61l0.122,0.245c-0.162-3.221-0.244-5.624-0.244-7.209
			C232.876,49.669,233.232,49.552,233.618,49.552z"/>
		<path fill="#563500" d="M241.093,49.506h0.244c0.539,0,0.808,1.179,0.808,3.536v0.793c0,0.802-0.122,2.859-0.366,6.172
			c0,0.132,0.021,0.279,0.061,0.441c-0.04,2.145-0.061,3.841-0.061,5.091v3.963c0,0.061,0.042,0.26,0.123,0.595
			c-0.081,0.497-0.291,0.746-0.625,0.746h-0.244c-0.417,0-0.625-0.65-0.625-1.95c0-7.062,0.122-11.924,0.365-14.587v-1.69
			c0-0.935-0.06-1.784-0.182-2.546C240.591,49.897,240.759,49.709,241.093,49.506z"/>
		<path fill="#563500" d="M248.321,49.566h0.473c0.955,0.174,1.432,0.538,1.432,1.098c0,0.162-0.167,0.346-0.502,0.548h-0.564
			c-0.264-0.324-0.457-0.486-0.579-0.486c-0.812,0.284-1.219,0.527-1.219,0.731c-0.812,1.544-1.219,3.638-1.219,6.278v1.037
			c0,1.798,0.245,3.958,0.732,6.478c0.285,1.817,0.666,3.032,1.143,3.643c0.539,0.467,0.99,0.712,1.356,0.731
			c0.447,0,1.021-0.447,1.722-1.342h0.396c0.234,0,0.422,0.143,0.564,0.427v0.184c0,0.467-0.503,1.021-1.509,1.661
			c-0.457,0.193-0.873,0.289-1.25,0.289h-0.091c-0.702-0.081-1.413-0.436-2.134-1.066c-0.782-0.62-1.447-2.992-1.996-7.117
			c-0.204-0.884-0.305-2.343-0.305-4.375v-0.365c0.07-4.206,0.792-6.828,2.164-7.864C247.614,49.729,248.077,49.566,248.321,49.566z
			"/>
		<path fill="#563500" d="M256.232,49.43h0.153c0.731,0.335,1.315,1.128,1.753,2.378c1.137,3.516,1.976,7.996,2.514,13.442
			c0.356,1.768,0.533,3.343,0.533,4.725c-0.121,0.305-0.473,0.457-1.051,0.457c-0.243-0.468-0.529-2.169-0.854-5.105
			c-0.092-0.315-0.284-1.591-0.579-3.826l-0.138-0.015c-1.93,0.183-2.895,0.305-2.895,0.366v2.377l-0.412,5.578
			c0.092,0.132,0.137,0.284,0.137,0.458c0,0.172-0.178,0.365-0.533,0.578c-0.691,0-1.036-0.33-1.036-0.99
			c0.315-4.288,0.473-6.857,0.473-7.713c-0.04-0.558-0.062-1.127-0.062-1.706c0.021-2.937,0.264-6.046,0.732-9.327
			C255.201,49.988,255.623,49.43,256.232,49.43z M256.508,51c-0.519,1.991-0.777,4.882-0.777,8.672
			c-0.041,0-0.061,0.391-0.061,1.173v-0.229c0.984-0.274,1.965-0.41,2.94-0.41v0.228c0-1.219-0.671-4.13-2.012-8.733
			C256.345,51.152,256.314,50.918,256.508,51z"/>
		<path fill="#563500" d="M263.462,48.409h0.519c1.758,0.578,3.094,1.681,4.009,3.307c1.32,2.682,1.981,5.441,1.981,8.275v0.305
			c0,4.064-1.499,7.402-4.496,10.014c-0.468,0.152-0.783,0.229-0.945,0.229c-0.346,0-0.559-0.441-0.641-1.326l0.062-0.122
			c-0.112-0.894-0.192-2.301-0.244-4.221H263.6l0.122,0.243v-0.121c0-1.605,0.021-3.069,0.061-4.391L263.462,48.409z M264.91,50.085
			v-0.396c0.041,4.582,0.123,8.199,0.244,10.852c-0.041,1.088-0.061,2.205-0.061,3.354v0.731c0,1.534,0.056,2.921,0.166,4.16
			c0.52-0.446,1.17-1.306,1.952-2.575c0.925-2.032,1.386-3.942,1.386-5.73V59.87c0-2.511-0.619-5.07-1.858-7.682
			C265.886,50.907,265.276,50.207,264.91,50.085z"/>
		<path fill="#563500" d="M274.228,49.43h0.152c0.731,0.335,1.316,1.128,1.753,2.378c1.138,3.516,1.976,7.996,2.516,13.442
			c0.354,1.768,0.532,3.343,0.532,4.725c-0.121,0.305-0.473,0.457-1.052,0.457c-0.243-0.468-0.527-2.169-0.853-5.105
			c-0.092-0.315-0.285-1.591-0.58-3.826l-0.137-0.015c-1.931,0.183-2.896,0.305-2.896,0.366v2.377l-0.411,5.578
			c0.092,0.132,0.138,0.284,0.138,0.458c0,0.172-0.178,0.365-0.534,0.578c-0.69,0-1.036-0.33-1.036-0.99
			c0.314-4.288,0.473-6.857,0.473-7.713c-0.041-0.558-0.061-1.127-0.061-1.706c0.02-2.937,0.264-6.046,0.731-9.327
			C273.196,49.988,273.618,49.43,274.228,49.43z M274.502,51c-0.519,1.991-0.777,4.882-0.777,8.672c-0.04,0-0.062,0.391-0.062,1.173
			v-0.229c0.986-0.274,1.967-0.41,2.941-0.41v0.228c0-1.219-0.669-4.13-2.012-8.733C274.34,51.152,274.309,50.918,274.502,51z"/>
		<path fill="#563500" d="M284.982,49.643l0.352,0.442v0.198c0,0.143-0.184,0.341-0.549,0.595h-0.747
			c-0.905,0-1.515,0.33-1.829,0.99c-0.314,0.854-0.473,1.809-0.473,2.865c0,0.64,0.279,1.697,0.838,3.17
			c0.183,0.366,1.261,1.443,3.231,3.231c1.066,1.524,1.601,3.022,1.601,4.497c0,1.157-0.249,2.291-0.747,3.397
			c-0.264,0.6-0.935,1.098-2.012,1.494c-0.406,0.212-0.752,0.319-1.037,0.319c-0.386,0-0.654-0.162-0.807-0.487v-0.213
			c0-0.295,0.314-0.473,0.944-0.534c1.158-0.437,1.738-0.889,1.738-1.356c0.364-0.731,0.548-1.661,0.548-2.789
			c0-1.473-0.66-2.911-1.981-4.312c-1.097-0.834-1.92-1.642-2.469-2.424c-0.396-0.427-0.782-1.52-1.159-3.277
			c0-0.213-0.02-0.482-0.061-0.808c0-1.351,0.255-2.555,0.763-3.611C281.767,50.104,283.052,49.643,284.982,49.643z"/>
		<path fill="#563500" d="M297.168,48.835c2.164,0,3.627,0.95,4.39,2.85c0.132,0.417,0.218,0.904,0.26,1.464
			c0,2.57-0.453,5.39-1.357,8.459c-0.468,0.803-1.138,1.422-2.012,1.859c-0.315,0.01-0.473-0.031-0.473-0.122v0.061
			c0,0.528,0.021,0.976,0.062,1.342c-0.041,0.365-0.062,0.568-0.062,0.609c0.122,2.296,0.183,3.536,0.183,3.719
			c0.122,0.021,0.184,0.265,0.184,0.731v0.229c-0.163,0.427-0.381,0.696-0.656,0.808h-0.213c-0.213,0-0.422-0.157-0.625-0.472
			v-0.503v-0.366c-0.03-0.173-0.07-0.595-0.122-1.265c0-0.255,0.016-0.381,0.046-0.381l-0.168-2.256
			c0.041-0.417,0.062-0.722,0.062-0.915c-0.04-0.741-0.062-1.152-0.062-1.234c-0.162-0.081-0.243-0.249-0.243-0.503
			c0.091-0.346,0.162-0.518,0.213-0.518c-0.061-0.865-0.092-1.413-0.092-1.646l0.29-10.791c-0.07,0-0.106-0.143-0.106-0.427v-0.183
			C296.665,49.221,296.832,49.038,297.168,48.835z M298.144,50.131l-0.29,10.653c0.041,0.854,0.062,1.387,0.062,1.601l-0.152-0.076
			c0.274,0,0.614-0.214,1.021-0.641c0.641-0.407,1.174-2.84,1.601-7.3c0.04-0.731,0.062-1.215,0.062-1.448
			c0-0.965-0.549-1.834-1.646-2.606C298.504,50.212,298.285,50.151,298.144,50.131z"/>
		<path fill="#563500" d="M306.254,49.2l0.138,0.077c-0.285,0-0.427-0.03-0.427-0.092c1.808,0.163,2.713,0.417,2.713,0.762v0.107
			c-0.132,0.376-0.371,0.564-0.717,0.564l-1.768-0.184c-0.082,0-0.341,0.015-0.777,0.046l0.03,0.426c0,0.672,0.097,3.257,0.29,7.759
			h0.061c0.295,0,0.549-0.021,0.763-0.062c0.955,0.082,1.706,0.122,2.255,0.122l0.351,0.472v0.26c0,0.325-0.208,0.488-0.625,0.488
			c-0.366,0-0.955-0.041-1.768-0.122c-0.538,0.041-0.879,0.061-1.021,0.061v-0.061c0,2.865,0.138,6.076,0.412,9.632
			c0.05,0,0.076,0.016,0.076,0.046c1.27-0.071,2.082-0.106,2.438-0.106c0.314,0.102,0.538,0.285,0.671,0.549v0.122
			c0,0.162-0.163,0.345-0.488,0.548c-1.616,0.041-2.586,0.081-2.911,0.121c-0.762,0-1.143-0.359-1.143-1.081
			c-0.285-3.881-0.428-7.117-0.428-9.708v-1.951c-0.202-3.577-0.305-5.985-0.305-7.224c-0.122-0.61-0.183-0.991-0.183-1.144
			l0.473-0.351h0.823C305.41,49.277,305.767,49.252,306.254,49.2z"/>
		<path fill="#563500" d="M311.866,48.347h0.061c0.223,0,0.431,0.158,0.625,0.473c0,0.458,0.02,0.687,0.06,0.687l-0.121-0.244
			c0.284,4.471,0.427,8.226,0.427,11.263c0.122,0.986,0.183,2.353,0.183,4.101v4.999h2.911c0.234,0,0.421,0.143,0.564,0.427v0.244
			c0,0.364-0.473,0.548-1.418,0.548h-2.805c-0.213,0-0.421-0.157-0.625-0.472v-0.442c0-0.487,0.011-0.731,0.031-0.731l-0.031-0.412
			V64.32c-0.162-5.345-0.325-9.79-0.487-13.337l-0.183-2.057C311.18,48.54,311.449,48.347,311.866,48.347z"/>
		<path fill="#563500" d="M321.17,49.323c1.382,0,2.423,2.834,3.124,8.504c0.041,0.539,0.062,1.219,0.062,2.043v0.243
			c0,0.163-0.015,0.325-0.046,0.487c0.031,0.041,0.046,0.204,0.046,0.488v0.062c0,0.284-0.015,0.446-0.046,0.487
			c0.031,0.162,0.046,0.264,0.046,0.305c0,4.369-0.64,7.093-1.921,8.169c-0.518,0.203-0.878,0.306-1.082,0.306h-0.487
			c-1.656-0.396-2.677-2.383-3.063-5.96l-0.183-2.499c0-5.771,0.736-9.801,2.21-12.087C320.316,49.506,320.764,49.323,321.17,49.323
			z M318.991,61.76c0,2.267,0.299,4.247,0.898,5.944c0.498,0.995,0.884,1.493,1.158,1.493h0.061c0.61,0,1.017-0.493,1.22-1.479
			c0.437-1.035,0.655-3.266,0.655-6.69v-1.219c0-2.368-0.422-5.086-1.265-8.153c-0.274-0.609-0.478-0.96-0.61-1.053
			c-0.223,0.082-0.365,0.214-0.426,0.397C319.555,53.387,318.991,56.974,318.991,61.76z"/>
		<path fill="#563500" d="M335.323,49.506h0.244c0.539,0,0.809,1.179,0.809,3.536v0.793c0,0.802-0.123,2.859-0.367,6.172
			c0,0.132,0.021,0.279,0.062,0.441c-0.041,2.145-0.062,3.841-0.062,5.091v3.963c0,0.061,0.042,0.26,0.123,0.595
			c-0.081,0.497-0.29,0.746-0.625,0.746h-0.243c-0.417,0-0.626-0.65-0.626-1.95c0-7.062,0.122-11.924,0.366-14.587v-1.69
			c0-0.935-0.061-1.784-0.184-2.546C334.82,49.897,334.988,49.709,335.323,49.506z"/>
		<path fill="#563500" d="M339.937,49.186c0.427,0,1.474,2.855,3.14,8.565c0.234,1.301,1.189,4.507,2.865,9.617h-0.503v-0.213
			c-0.233-4.939-0.35-7.712-0.35-8.321c0-0.184,0.024-0.803,0.076-1.86c-0.011-0.111-0.016-0.355-0.016-0.731
			c0.081-0.803,0.122-1.438,0.122-1.905v-4.344c0.05-0.427,0.324-0.64,0.822-0.64l0.641,0.335c-0.122,2.408-0.184,4.191-0.184,5.35
			v1.723c0,3.535,0.112,8.154,0.336,13.854l-0.61,0.305c-0.507,0-2.107-4.582-4.8-13.747l-1.601-5.456l0.563,0.914l0.046-0.884
			c0.07,0.843,0.106,1.515,0.106,2.012l0.016,0.519c-0.081,2.256-0.122,3.836-0.122,4.74c0,4.541,0.183,8.392,0.549,11.553h-0.762
			c-0.478,0-0.717-0.214-0.717-0.641c-0.233-3.546-0.351-6.722-0.351-9.525V49.826C339.276,49.399,339.52,49.186,339.937,49.186z"/>
		<path fill="#563500" d="M349.452,49.079c0.478,0.152,1.89,3.419,4.237,9.8h-0.503c0-0.265,1.036-3.403,3.108-9.419h0.732
			l0.273,0.533l0.016,0.671c-0.112,3.638-0.168,6.711-0.168,9.221c0,0.966,0.184,4.512,0.549,10.639l-0.655,0.319
			c-0.549,0-0.945-3.413-1.188-10.242v-7.147h0.503c-1.443,4.48-2.322,6.849-2.637,7.103c-0.65-0.041-1.915-2.708-3.795-8.002h0.473
			v-0.122l0.899,17.726l-0.626,0.336c-0.568,0-0.853-0.225-0.853-0.671c-0.355-10.618-0.717-17.41-1.082-20.378L349.452,49.079z"/>
		<path fill="#563500" d="M362.204,49.2l0.137,0.077c-0.284,0-0.426-0.03-0.426-0.092c1.809,0.163,2.713,0.417,2.713,0.762v0.107
			c-0.133,0.376-0.372,0.564-0.717,0.564l-1.768-0.184c-0.082,0-0.341,0.015-0.778,0.046l0.031,0.426
			c0,0.672,0.096,3.257,0.289,7.759h0.062c0.294,0,0.549-0.021,0.762-0.062c0.955,0.082,1.707,0.122,2.256,0.122l0.35,0.472v0.26
			c0,0.325-0.208,0.488-0.624,0.488c-0.366,0-0.955-0.041-1.769-0.122c-0.538,0.041-0.879,0.061-1.021,0.061v-0.061
			c0,2.865,0.137,6.076,0.411,9.632c0.051,0,0.076,0.016,0.076,0.046c1.271-0.071,2.083-0.106,2.439-0.106
			c0.314,0.102,0.538,0.285,0.67,0.549v0.122c0,0.162-0.163,0.345-0.488,0.548c-1.615,0.041-2.585,0.081-2.91,0.121
			c-0.763,0-1.144-0.359-1.144-1.081c-0.284-3.881-0.427-7.117-0.427-9.708v-1.951c-0.203-3.577-0.305-5.985-0.305-7.224
			c-0.122-0.61-0.184-0.991-0.184-1.144l0.473-0.351h0.823C361.36,49.277,361.716,49.252,362.204,49.2z"/>
		<path fill="#563500" d="M373.522,50.359l0.396,0.457v0.243c0,0.377-0.695,0.564-2.088,0.564h-1.707
			c0.122,0,0.188-0.016,0.198-0.045l0.122,2.758c-0.041,0.255-0.062,0.391-0.062,0.412c0.366,6.147,0.549,10.531,0.549,13.152
			c0.041,0.071,0.062,0.173,0.062,0.305c-0.041,0.062-0.062,0.081-0.062,0.062l0.077,0.411c-0.144,0.325-0.336,0.487-0.58,0.487
			h-0.243c-0.173,0-0.382-0.142-0.625-0.427c0-0.142,0.02-0.37,0.061-0.686c0-0.863-0.184-5.247-0.548-13.152
			c0-1.281-0.036-2.398-0.107-3.354l0.137,0.076h-0.061l-2.134,0.184c-0.265-0.285-0.396-0.549-0.396-0.793
			c0-0.173,0.192-0.355,0.578-0.549c0.355,0.092,0.529,0.137,0.519,0.137c0.782-0.07,1.336-0.106,1.661-0.106h2.5
			C372.269,50.496,372.852,50.45,373.522,50.359z"/>
		<path fill="#563500" d="M376.17,47.737h0.487c0.122,0.163,0.457,0.29,1.006,0.381c0.885,0.356,1.59,0.986,2.119,1.891
			c0.711,1.718,1.066,2.992,1.066,3.826v0.609c0,2.743-0.655,4.628-1.966,5.654c1.544,0.365,2.464,2.52,2.759,6.462v2.332
			c0,0.345,0.025,0.899,0.076,1.661l-0.442,0.289h-0.472l-0.458-0.35c-0.051-0.905-0.076-1.561-0.076-1.967v-2.194
			c0-1.483-0.447-2.992-1.341-4.526c-0.549-0.519-1.012-0.778-1.387-0.778h0.334c0.031,0.672,0.047,1.22,0.047,1.646v2.317
			c0.081,2.011,0.121,3.149,0.121,3.413v0.183c-0.162,0.326-0.411,0.488-0.746,0.488c-0.193,0-0.427-0.157-0.701-0.473l0.076-0.518
			c-0.082-1.708-0.122-2.84-0.122-3.399v-3.353c-0.102,0-0.224-0.168-0.366-0.503v-0.29c0.162-0.324,0.26-0.487,0.29-0.487
			c-0.193-5.365-0.457-9.348-0.792-11.949L376.17,47.737z M377.222,49.2c0.224,2.755,0.426,6.118,0.609,10.091
			c1.098-0.743,1.646-2.256,1.646-4.542v-0.854c0-1.027-0.427-2.332-1.28-3.917c-0.568-0.519-0.971-0.778-1.203-0.778H377.222z"/>
		<path fill="#563500" d="M386.974,49.323c1.381,0,2.422,2.834,3.124,8.504c0.04,0.539,0.061,1.219,0.061,2.043v0.243
			c0,0.163-0.015,0.325-0.046,0.487c0.031,0.041,0.046,0.204,0.046,0.488v0.062c0,0.284-0.015,0.446-0.046,0.487
			c0.031,0.162,0.046,0.264,0.046,0.305c0,4.369-0.64,7.093-1.92,8.169c-0.519,0.203-0.879,0.306-1.083,0.306h-0.486
			c-1.657-0.396-2.678-2.383-3.064-5.96l-0.183-2.499c0-5.771,0.736-9.801,2.21-12.087C386.12,49.506,386.566,49.323,386.974,49.323
			z M384.794,61.76c0,2.267,0.299,4.247,0.898,5.944c0.498,0.995,0.885,1.493,1.158,1.493h0.062c0.609,0,1.017-0.493,1.219-1.479
			c0.438-1.035,0.655-3.266,0.655-6.69v-1.219c0-2.368-0.422-5.086-1.265-8.153c-0.274-0.609-0.478-0.96-0.609-1.053
			c-0.224,0.082-0.366,0.214-0.427,0.397C385.357,53.387,384.794,56.974,384.794,61.76z"/>
		<path fill="#563500" d="M393.06,68.739h0.335c0.214,0,0.422,0.158,0.624,0.473v0.412c-0.365,0.467-0.726,0.701-1.081,0.701
			c-0.346-0.152-0.543-0.325-0.595-0.519v-0.274C392.577,69.116,392.815,68.852,393.06,68.739z"/>
	</g>
</g>
</svg>
