<?xml version="1.0" encoding="utf-8"?>
<!-- Generator: Adobe Illustrator 16.0.0, SVG Export Plug-In . SVG Version: 6.00 Build 0)  -->
<!DOCTYPE svg PUBLIC "-//W3C//DTD SVG 1.1//EN" "http://www.w3.org/Graphics/SVG/1.1/DTD/svg11.dtd">
<svg version="1.1" id="Layer_1" xmlns="http://www.w3.org/2000/svg" xmlns:xlink="http://www.w3.org/1999/xlink" x="0px" y="0px"
	 width="158.275px" height="110.655px" viewBox="0 0 158.275 110.655" enable-background="new 0 0 158.275 110.655"
	 xml:space="preserve">
<g>
	<path fill="#FCCF9A" d="M11.311,103.844c0,0-10.857-9.502-4.98-21.264c5.894-11.771,20.817-8.604,20.817-8.604l4.077-15.382
		c0,0-14.027-4.979-18.106-14.035c-4.067-9.041-2.266-9.041-2.266-9.041s0.547-9.918,8.695-15.359
		c8.154-5.42,12.129-5.916,12.129-5.916L37.699,0l4.206,13.787h6.062l9.959-11.76v16.737c0,0,6.336,4.974,6.336,14.487
		c0,9.5,0,70.137,0,70.137s11.311-0.447,15.842-13.116c4.515-12.671,18.755-47.159,32.133-55.211
		c5.408-3.265,11.118-4.075,15.846-4.075c16.679,0,30.193,13.518,30.193,30.189c0,16.677-13.515,30.186-30.193,30.186
		c-7.048,0-13.523-2.438-18.658-6.488c-2.579,4.37-19.476,22.376-36.436,24.854c-14.333,2.086-72.988,0-72.988,0v-5.884H11.311z"/>
	<path fill="#563500" d="M121.227,51.215c-2.955,0-6.519,0.516-9.897,2.553c-8.339,5.014-17.233,26.545-20.056,34.457
		c-1.005,2.82-7.775,16.553-8.877,18.681c1.042-0.083,5.438-2.786,6.052-3.167c13.542-8.453,18.932-16.127,21.126-18.879
		c3.21,2.523,7.248,4.047,11.652,4.047c10.409,0,18.845-8.43,18.845-18.844C140.071,59.654,131.636,51.215,121.227,51.215z"/>
	<path fill="#563500" d="M40.137,29.453c0-2.162,1.752-3.913,3.918-3.913c2.158,0,3.91,1.751,3.91,3.913h2.373
		c0-3.471-2.813-6.291-6.283-6.291c-3.479,0-6.286,2.82-6.293,6.291H40.137z"/>
	<path fill="#563500" d="M18.32,35.349c0,2.515-2.047,4.556-4.559,4.556c-2.519,0-4.569-2.041-4.569-4.556
		c0-2.527,2.051-4.567,4.569-4.567C16.273,30.781,18.32,32.821,18.32,35.349z"/>
</g>
</svg>
