<?xml version="1.0" encoding="utf-8"?>
<!-- Generator: Adobe Illustrator 19.0.0, SVG Export Plug-In . SVG Version: 6.00 Build 0)  -->
<svg version="1.1" id="Layer_1" xmlns="http://www.w3.org/2000/svg" xmlns:xlink="http://www.w3.org/1999/xlink" x="0px" y="0px"
	 viewBox="0 0 80 117.5" style="enable-background:new 0 0 80 117.5;" xml:space="preserve">
<style type="text/css">
	.st0{fill:#EE3129;}
	.st1{fill:#62BB46;}
	.st2{fill:#563500;}
</style>
<g>
	<circle id="XMLID_17_" class="st0" cx="40" cy="47.2" r="40"/>
	<g>
		<path id="XMLID_16_" class="st1" d="M45.4,0.3c-1.6-0.6-3.5-0.2-4.8,1.2c-1.3,1.4-1.6,3.3-0.9,4.8c1.6,0.6,3.5,0.2,4.8-1.2
			C45.8,3.7,46.1,1.8,45.4,0.3z"/>
		<path id="XMLID_15_" class="st1" d="M32.9,0.7c1.5-0.7,3.5-0.4,4.8,0.9c1.4,1.3,1.8,3.2,1.2,4.8c-1.5,0.7-3.5,0.4-4.8-0.9
			C32.7,4.2,32.3,2.3,32.9,0.7z"/>
	</g>
	<rect id="XMLID_13_" x="32.8" y="73.1" class="st0" width="3.3" height="44.1"/>
	<rect id="XMLID_5_" x="41.7" y="73.1" class="st0" width="3.3" height="44.4"/>
	<path id="XMLID_4_" class="st2" d="M30.7,114.2c-3,0-5.3,1.5-5.3,3.3h10.7C36.1,115.7,33.7,114.2,30.7,114.2z"/>
	<path id="XMLID_3_" class="st2" d="M47.7,114.2c-3,0-5.4,1.5-5.4,3.3H53C53,115.7,50.6,114.2,47.7,114.2z"/>
	<g>
		<path id="XMLID_2_" class="st2" d="M29.7,46.9c0-1.2,1-2.2,2.2-2.2c1.2,0,2.2,1,2.2,2.2h1.3c0-2-1.6-3.5-3.5-3.5
			c-2,0-3.5,1.6-3.5,3.5H29.7z"/>
		<path id="XMLID_1_" class="st2" d="M44.3,46.9c0-1.2,1-2.2,2.2-2.2c1.2,0,2.2,1,2.2,2.2H50c0-2-1.6-3.5-3.5-3.5
			c-1.9,0-3.5,1.6-3.5,3.5H44.3z"/>
	</g>
</g>
</svg>
